<?xml version="1.0" encoding="UTF-8"?>
<svg id="Lag_2" xmlns="http://www.w3.org/2000/svg" viewBox="0 0 256.59 244.46">
  <defs>
    <style>
      .cls-1 {
        fill: #fcfcf0;
      }
    </style>
  </defs>
  <g id="Lag_1-2" data-name="Lag_1">
    <g>
      <path class="cls-1" d="M81,80.46c7.66,3.52,12.84,4.79,9-2-20.76-36.7-2.72-63.26,30-76,15.9-6.19,34.3.14,48.46,9.66,33.47,22.5,49.53,50.57,8.88,91.06-2.71,2.7-.9,7.3,2.91,7.42,61.59,1.94,71.56,22.72,75.75,44.85,4.17,22.03-13.74,51.2-55.85,45.41-2.29-.31-4.15,1.27-4.15,3.58v39.84c0,.1-.08.18-.18.18l-162.64-.08c-.1,0-.18-.08-.18-.18v-61.74c0-4.54-2.06-8.82-5.56-11.68C8.11,155,.47,142.72,0,125.4v-.21c3.23-47.76,32.14-60.72,81-44.77v.03ZM53.3,163.39c10.97-2.99,15.75-3.97,29.03-25.76,1.88-3.08,6.36-5.51,9.95-5.1,4.33.5,6.4,3.91,4.93,11.86l-.02.06c-6.74,13.34-29.19,18.53-49.86,31.89-5.09,3.28-3.98,11.93-4.27,17.98-.53,10.9.28,26.86.86,41.96,0,.1.08.17.18.17h140.73c.09,0,.17-.08.18-.17.6-10.66.71-16.74,0-22.84-.29-2.56-.42-6.77,0-9.33,1.68-10.26-13.31-17.37-39.85-30.72-5-2.51-9.26-6.36-12.11-11.18-10.8-18.23,4.28-26.04,15.07-7.46,2.37,4.09,7.87,10.87,12.93,14.6,23.89,17.58,65.69,38.54,82.8,4.99,8.69-15.73-1.22-41.22-22.94-46.89h0c-13.97-4.99-26.94-6.98-46.88-6.98-13.11,0-17.93-9.41-10.97-19.95,4.04-6.3,8.68-11.03,12.8-15.94,9.1-10.84,16.78-22.95,11.14-35.93-7.24-16.69-27.36-35.15-46.89-36.91-15.87-1.21-33.71,1.92-42.9,15.96-3.32,5.08-6.43,14.91-6.98,20.95-1,10.97,2.99,18.95,6.98,27.93,0,0,.28-.16,8.28,14.49,8.08,14.78-7.94,19.71-14.78,7.96-6.71-11.53-22.21-12.71-35.39-15.46-4.08-.85-10.92-.73-14.98.22-19.04,4.43-27.35,15.52-28.69,34.65-.27,3.86-.08,7.74.49,11.57,2.13,14.47,7.5,30.08,25.23,33.37,1.65.31,6.31,1.13,7.98,1,3.01-.23,7.31-.82,7.98-1l-.03.02Z"/>
      <path class="cls-1" d="M153,190.67c-2.64-3.53-5.29-4.41-7.93-1.76s0,37.03,2.64,39.68,7.05,1.76,9.69-.88c2.64-2.64-1.76-33.5-4.4-37.03h0Z"/>
      <path class="cls-1" d="M116.11,182.37c-3-4-5.81-3-7.91,0s-.09,42,1.91,45,4.46,4,8.23,0,.77-41-2.23-45Z"/>
      <path class="cls-1" d="M75.89,176.93c-2.79-3.42-4.93-3.42-6.86,0-1.93,3.42-.93,43.27,1.07,48.97,1.02,2.9,4.94,5.69,8.47,2.28s.11-47.83-2.68-51.25Z"/>
    </g>
  </g>
</svg>