<?xml version="1.0" encoding="UTF-8"?>
<svg version="1.1" xmlns="http://www.w3.org/2000/svg" width="128" height="128">
<path d="M0 0 C25.08 0 50.16 0 76 0 C76 2.97 76 5.94 76 9 C76.928125 8.95875 77.85625 8.9175 78.8125 8.875 C82 9 82 9 85 11 C85.92070253 14.25787048 86.31856608 16.19296594 85.0625 19.375 C84.711875 19.91125 84.36125 20.4475 84 21 C81.36 21 78.72 21 76 21 C76.01571045 21.82201904 76.0314209 22.64403809 76.04760742 23.4909668 C76.11005073 27.22307428 76.14902136 30.95507172 76.1875 34.6875 C76.21263672 35.98107422 76.23777344 37.27464844 76.26367188 38.60742188 C76.27333984 39.85458984 76.28300781 41.10175781 76.29296875 42.38671875 C76.3086792 43.53358154 76.32438965 44.68044434 76.34057617 45.86206055 C75.96091035 49.36015714 75.09252814 51.19989014 73 54 C70.73828125 55.36328125 70.73828125 55.36328125 68.3125 56.3125 C67.10013672 56.80169922 67.10013672 56.80169922 65.86328125 57.30078125 C64.94095703 57.64689453 64.94095703 57.64689453 64 58 C64.66 58.99 65.32 59.98 66 61 C66.25760279 63.69452521 66.08900053 66.28548375 66 69 C66.62648438 68.97679688 67.25296875 68.95359375 67.8984375 68.9296875 C68.71570313 68.91164063 69.53296875 68.89359375 70.375 68.875 C71.18710938 68.85179688 71.99921875 68.82859375 72.8359375 68.8046875 C75 69 75 69 77 71 C77.25 74 77.25 74 77 77 C74.11462866 79.88537134 72.05199628 79.26038419 68.01171875 79.2746582 C67.29287506 79.27976913 66.57403137 79.28488007 65.83340454 79.29014587 C63.45135227 79.30407452 61.06958821 79.30308287 58.6875 79.30078125 C57.03605033 79.30466606 55.38460166 79.30900028 53.7331543 79.31376648 C50.26966108 79.32123548 46.80626978 79.32093228 43.34277344 79.31567383 C38.89696872 79.30987469 34.45158001 79.32681739 30.00584412 79.3500185 C26.59498644 79.36472496 23.18422971 79.36563184 19.77334595 79.36250877 C18.13383153 79.36302343 16.49431168 79.36828806 14.85482788 79.37832069 C12.56570101 79.3906101 10.27739425 79.38393977 7.98828125 79.37231445 C6.68415283 79.37294388 5.38002441 79.3735733 4.03637695 79.3742218 C3.03437256 79.25072861 2.03236816 79.12723541 1 79 C-1 76 -1 76 -0.6875 72.875 C0 70 0 70 1 69 C2.51928038 68.92820036 4.04167482 68.91607993 5.5625 68.9375 C6.80193359 68.95103516 6.80193359 68.95103516 8.06640625 68.96484375 C9.02353516 68.98224609 9.02353516 68.98224609 10 69 C9.95875 67.741875 9.9175 66.48375 9.875 65.1875 C9.7609626 61.70935927 9.94074319 61.08888522 12 58 C10.948125 57.62875 9.89625 57.2575 8.8125 56.875 C5.60678474 55.74357109 3.12147607 53.83798292 1.0012207 51.17138672 C-1.33500288 46.10472674 -0.49020276 40.07637399 -0.3125 34.625 C-0.27866211 32.66240234 -0.27866211 32.66240234 -0.24414062 30.66015625 C-0.18535914 27.43893113 -0.10322731 24.2200568 0 21 C-1.670625 21.061875 -1.670625 21.061875 -3.375 21.125 C-7 21 -7 21 -9 19 C-9.30078125 17.125 -9.30078125 17.125 -9.3125 15 C-9.32925781 14.29875 -9.34601562 13.5975 -9.36328125 12.875 C-9.24339844 12.25625 -9.12351562 11.6375 -9 11 C-5.5647952 8.70986347 -4.014669 8.82157027 0 9 C0 6.03 0 3.06 0 0 Z M4 4 C3.938125 10.64125 3.87625 17.2825 3.8125 24.125 C3.78518799 26.21086426 3.75787598 28.29672852 3.72973633 30.44580078 C3.72096861 32.11229881 3.71332535 33.77880329 3.70703125 35.4453125 C3.69168335 36.29988037 3.67633545 37.15444824 3.66052246 38.03491211 C3.65831206 43.10556395 4.14470454 46.61878536 7 51 C9.76452033 52.38226016 12.0461363 52.09525387 15.125 52.0625 C16.22070312 52.05347656 17.31640625 52.04445312 18.4453125 52.03515625 C19.28835937 52.02355469 20.13140625 52.01195312 21 52 C21.66 49.36 22.32 46.72 23 44 C24.36125 44.2475 24.36125 44.2475 25.75 44.5 C29.11087503 45.10137146 29.11087503 45.10137146 33 45 C33.66 42.36 34.32 39.72 35 37 C39.8642194 37.41693309 41.89876673 39.32748692 45 43 C46.8125 46.3125 46.8125 46.3125 48 49 C48.66 48.67 49.32 48.34 50 48 C50 47.34 50 46.68 50 46 C51.875 46.1875 51.875 46.1875 54 47 C55.1328125 49.55078125 55.1328125 49.55078125 56 52 C63.21111036 52.70887565 63.21111036 52.70887565 69.625 50.125 C71.57528845 47.11091785 72.12416379 45.47070428 72.11352539 41.91748047 C72.11334412 40.63877075 72.11334412 40.63877075 72.11315918 39.33422852 C72.10804321 38.43760498 72.10292725 37.54098145 72.09765625 36.6171875 C72.09614563 35.38174194 72.09614563 35.38174194 72.09460449 34.12133789 C72.08936519 31.03921114 72.07540396 27.9571042 72.0625 24.875 C72.041875 17.98625 72.02125 11.0975 72 4 C49.56 4 27.12 4 4 4 Z M-5 14 C-5 14.99 -5 15.98 -5 17 C-3.35 17 -1.7 17 0 17 C0 16.01 0 15.02 0 14 C-1.65 14 -3.3 14 -5 14 Z M76 14 C76 14.99 76 15.98 76 17 C77.65 17 79.3 17 81 17 C81 16.01 81 15.02 81 14 C79.35 14 77.7 14 76 14 Z M38 42 C37.76925781 42.55429688 37.53851563 43.10859375 37.30078125 43.6796875 C34.60377358 49.67066895 34.60377358 49.67066895 31.25 51.5 C30.5075 51.665 29.765 51.83 29 52 C29 51.34 29 50.68 29 50 C28.01 49.67 27.02 49.34 26 49 C24.24252386 53.50353262 23.80705592 57.17639811 24 62 C25.45742463 62.08096803 26.91612807 62.13917774 28.375 62.1875 C29.59316406 62.23970703 29.59316406 62.23970703 30.8359375 62.29296875 C31.55007812 62.19628906 32.26421875 62.09960938 33 62 C33.66 61.01 34.32 60.02 35 59 C38 58.625 38 58.625 41 59 C41.66 59.99 42.32 60.98 43 62 C44.97747122 62.36297936 44.97747122 62.36297936 47.125 62.1875 C48.40375 62.125625 49.6825 62.06375 51 62 C52.19595537 59.1628485 52.19595537 59.1628485 53 56 C52.34 55.01 51.68 54.02 51 53 C50.01 53.66 49.02 54.32 48 55 C47.01 55 46.02 55 45 55 C44.74605469 54.22914062 44.49210937 53.45828125 44.23046875 52.6640625 C43.88628906 51.66117188 43.54210937 50.65828125 43.1875 49.625 C42.85105469 48.62726563 42.51460937 47.62953125 42.16796875 46.6015625 C41.1493425 43.7154291 41.1493425 43.7154291 38 42 Z M15 62 C15 64.31 15 66.62 15 69 C30.18 69 45.36 69 61 69 C61 66.69 61 64.38 61 62 C60.34 63.32 59.68 64.64 59 66 C52.73 66 46.46 66 40 66 C39.34 64.68 38.68 63.36 38 62 C37.34 63.32 36.68 64.64 36 66 C29.73 66 23.46 66 17 66 C16.34 64.68 15.68 63.36 15 62 Z M4 73 C4 73.66 4 74.32 4 75 C26.44 75 48.88 75 72 75 C72 74.34 72 73.68 72 73 C49.56 73 27.12 73 4 73 Z " fill="#000000" transform="translate(27,47)"/>
<path d="M0 0 C1.23105469 0.00644531 2.46210937 0.01289063 3.73046875 0.01953125 C6.8125 0.1875 6.8125 0.1875 8.8125 1.1875 C9.1829189 5.50905383 8.1172396 7.58823475 5.8125 11.1875 C6.62332031 11.15269531 7.43414062 11.11789062 8.26953125 11.08203125 C18.31690032 10.8364029 27.80267103 11.61533264 35.8125 18.1875 C36.8025 19.6725 36.8025 19.6725 37.8125 21.1875 C38.67875 21.6 39.545 22.0125 40.4375 22.4375 C41.613125 23.30375 41.613125 23.30375 42.8125 24.1875 C43.3125 27.75 43.3125 27.75 42.8125 31.1875 C39.36617934 33.4850471 37.0317191 33.83814288 32.95776367 34.51611328 C32.26470627 34.63344818 31.57164886 34.75078308 30.85758972 34.87167358 C28.56635733 35.25759801 26.27353145 35.63292907 23.98046875 36.0078125 C22.38478955 36.27349965 20.78919428 36.53969136 19.19367981 36.80636597 C15.84788048 37.36395432 12.50129986 37.9165034 9.15405273 38.46533203 C4.87220543 39.16765367 0.59222868 39.8806828 -3.68724537 40.59730721 C-6.9835272 41.14836221 -10.28060159 41.6945453 -13.57794762 42.23919296 C-15.15575274 42.50024092 -16.73334327 42.76258945 -18.310709 43.02627945 C-20.52123931 43.39488752 -22.73272285 43.75712715 -24.94458008 44.11767578 C-26.20128006 44.32482208 -27.45798004 44.53196838 -28.75276184 44.74539185 C-31.97675937 45.16037416 -34.94541063 45.43485075 -38.1875 45.1875 C-40.51754934 42.55679913 -41.23025754 41.08540826 -41.0625 37.5625 C-40.09730695 34.9426903 -39.17305436 34.09951531 -37.1875 32.1875 C-36.671875 31.115 -36.15625 30.0425 -35.625 28.9375 C-31.24211676 21.05497615 -21.5294953 16.65183256 -13.1875 14.1875 C-12.1975 14.1875 -11.2075 14.1875 -10.1875 14.1875 C-10.991875 13.424375 -11.79625 12.66125 -12.625 11.875 C-15.1875 9.1875 -15.1875 9.1875 -16.1875 6.1875 C-11.31568721 0.77437468 -7.17896474 -0.08321245 0 0 Z M-9.1875 6.1875 C-5.89053895 7.28648702 -4.78255097 7.05874444 -1.5 6.25 C-0.69175781 6.05535156 0.11648437 5.86070312 0.94921875 5.66015625 C1.56410156 5.50417969 2.17898437 5.34820312 2.8125 5.1875 C2.8125 4.8575 2.8125 4.5275 2.8125 4.1875 C-1.73555635 4.00914485 -5.0669254 4.18964565 -9.1875 6.1875 Z M-6.1875 11.1875 C-6.1875 11.8475 -6.1875 12.5075 -6.1875 13.1875 C-3.5475 12.8575 -0.9075 12.5275 1.8125 12.1875 C1.4825 11.5275 1.1525 10.8675 0.8125 10.1875 C-1.80863708 10.1875 -3.69685112 10.50042445 -6.1875 11.1875 Z M-28.97265625 27.90625 C-30.51303546 29.6706111 -30.51303546 29.6706111 -32.1875 32.1875 C-28.59807547 33.40551175 -25.8400425 33.00331806 -22.13378906 32.38305664 C-20.91282532 32.18277359 -19.69186157 31.98249054 -18.43389893 31.77613831 C-17.10694488 31.55015019 -15.78002092 31.32398536 -14.453125 31.09765625 C-13.09132366 30.87132071 -11.72940353 30.64569884 -10.36737061 30.42076111 C-6.78888171 29.82781228 -3.2120867 29.22519518 0.36444092 28.62054443 C4.01672586 28.00484949 7.67053102 27.39832012 11.32421875 26.79101562 C18.48849773 25.59880462 25.65101184 24.39637471 32.8125 23.1875 C27.88669212 17.93795553 22.81105731 16.12658407 15.74609375 15.75390625 C13.91421326 15.73036747 12.08192101 15.72986022 10.25 15.75 C8.80016724 15.76135986 8.80016724 15.76135986 7.32104492 15.77294922 C-5.35393605 16.06151962 -19.50172227 18.78762648 -28.97265625 27.90625 Z M29.88427734 27.17553711 C29.17197464 27.29243393 28.45967194 27.40933075 27.7257843 27.5297699 C25.36560938 27.91867146 23.00707344 28.31672375 20.6484375 28.71484375 C19.01471124 28.98587904 17.38089028 29.25634415 15.74697876 29.52626038 C11.44206925 30.23899566 7.13849326 30.95949167 2.83514404 31.68157959 C-1.55444133 32.41673572 -5.94523651 33.1445889 -10.3359375 33.87304688 C-18.95432991 35.30402953 -27.57132801 36.74320834 -36.1875 38.1875 C-36.1875 38.8475 -36.1875 39.5075 -36.1875 40.1875 C-27.28012795 39.59476655 -18.54877253 38.41459541 -9.7421875 36.97265625 C-8.39652213 36.75450408 -7.05082861 36.53652545 -5.70510864 36.31871033 C-2.91289233 35.86553312 -0.12130405 35.40869879 2.66992188 34.94946289 C6.24846226 34.3612364 9.82880955 33.78489784 13.40974617 33.21146488 C16.17640078 32.76667753 18.94180652 32.31448542 21.70690536 31.86013603 C23.6682434 31.53958035 25.63076425 31.22628919 27.59329224 30.9131012 C28.77567474 30.71627243 29.95805725 30.51944366 31.17626953 30.31665039 C32.2192923 30.14645889 33.26231506 29.9762674 34.33694458 29.80091858 C36.96949625 29.3746897 36.96949625 29.3746897 38.8125 27.1875 C35.72516908 25.64383454 33.2582303 26.61321162 29.88427734 27.17553711 Z " fill="#000000" transform="translate(53.1875,1.8125)"/>
<path d="M0 0 C0.928125 0.103125 1.85625 0.20625 2.8125 0.3125 C2.4375 2.25 2.4375 2.25 1.8125 4.3125 C0.8225 4.8075 0.8225 4.8075 -0.1875 5.3125 C-0.06375 6.92125 -0.06375 6.92125 0.0625 8.5625 C-0.1875 12.3125 -0.1875 12.3125 -1.875 14.8125 C-4.1875 16.3125 -4.1875 16.3125 -6.9375 16.0625 C-7.68 15.815 -8.4225 15.5675 -9.1875 15.3125 C-8.5275 13.9925 -7.8675 12.6725 -7.1875 11.3125 C-6.5275 11.3125 -5.8675 11.3125 -5.1875 11.3125 C-5.414375 10.425625 -5.64125 9.53875 -5.875 8.625 C-6.1875 5.3125 -6.1875 5.3125 -5.125 2.4375 C-3.1875 0.3125 -3.1875 0.3125 0 0 Z " fill="#000000" transform="translate(103.1875,27.6875)"/>
<path d="M0 0 C0.33 0.99 0.66 1.98 1 3 C0.67 3.66 0.34 4.32 0 5 C-0.99 5 -1.98 5 -3 5 C-2.94199219 5.61488281 -2.88398437 6.22976562 -2.82421875 6.86328125 C-2.68694945 9.32236272 -2.64596372 11.56060366 -3 14 C-5.3125 16.125 -5.3125 16.125 -8 17 C-8.99 16.67 -9.98 16.34 -11 16 C-10.625 14.0625 -10.625 14.0625 -10 12 C-9.34 11.67 -8.68 11.34 -8 11 C-8.061875 9.906875 -8.12375 8.81375 -8.1875 7.6875 C-8 4 -8 4 -6.625 2.125 C-4.12421302 0.39368594 -3.13949518 0 0 0 Z " fill="#000000" transform="translate(115,33)"/>
</svg>
