<?xml version="1.0" encoding="UTF-8"?>
<svg version="1.1" xmlns="http://www.w3.org/2000/svg" width="128" height="128">
<path d="M0 0 C2.70442646 0.6354758 3.93471321 1.70504079 5.97137451 3.58083439 C7.01412537 4.53735999 7.01412537 4.53735999 8.07794189 5.51320934 C11.29574802 8.59125632 14.44574964 11.72433731 17.55438232 14.91248417 C18.98367585 16.36807201 20.41304103 17.82358951 21.84246826 19.27904606 C22.58718384 20.03923479 23.33189941 20.79942352 24.09918213 21.58264828 C28.07819709 25.63868242 32.07553983 29.67660904 36.07000732 33.71741581 C41.1370912 38.8445771 46.19831996 43.9770956 51.23797607 49.13123417 C55.32766503 53.31285614 59.43656914 57.47470148 63.55914307 61.6238966 C65.12282388 63.20485332 66.67931018 64.79296002 68.22833252 66.38828182 C70.39175073 68.61444122 72.57884551 70.81446161 74.77313232 73.01014042 C75.40505493 73.67239628 76.03697754 74.33465214 76.68804932 75.01697636 C79.87427705 78.15291894 81.89722508 79.89229017 86.48483276 79.89360905 C87.69887787 79.76650043 88.91292297 79.63939182 90.16375732 79.50843143 C92.41717529 79.84388065 92.41717529 79.84388065 94.15594482 80.31311893 C94.79789795 80.48456425 95.43985107 80.65600956 96.10125732 80.83265018 C96.74063232 81.014408 97.38000732 81.19616581 98.03875732 81.38343143 C99.03262451 81.64446659 99.03262451 81.64446659 100.04656982 81.91077518 C103.05920419 82.73741266 104.91951337 83.26418749 107.16375732 85.50843143 C107.60125732 88.44593143 107.60125732 88.44593143 107.16375732 91.50843143 C104.36993987 93.75900661 101.67551539 94.85810587 98.16375732 95.50843143 C98.67938232 95.92093143 99.19500732 96.33343143 99.72625732 96.75843143 C100.20063232 97.33593143 100.67500732 97.91343143 101.16375732 98.50843143 C100.75360107 100.61780643 100.75360107 100.61780643 100.16375732 102.50843143 C90.25512675 105.13785814 79.14814264 107.76456982 69.47625732 102.88343143 C64.33801388 100.75057566 59.38709153 101.69957978 54.07781982 103.03186893 C50.94209382 103.81260071 48.37956863 103.84693789 45.16375732 103.50843143 C42.00421427 100.96705985 40.44834846 99.36220484 39.16375732 95.50843143 C39.06828862 93.19752726 39.03390345 90.88380169 39.03875732 88.57093143 C39.0361792 87.345033 39.03360107 86.11913456 39.03094482 84.85608768 C39.16375732 81.50843143 39.16375732 81.50843143 39.99627686 79.64295292 C40.43221012 77.23040364 40.43221012 77.23040364 38.05828857 74.91468143 C37.04262586 73.93369163 36.01430027 72.96570808 34.97625732 72.00843143 C34.43976562 71.49087284 33.90327393 70.97331425 33.3505249 70.44007206 C31.63301627 68.78375139 29.90059526 67.14445788 28.16375732 65.50843143 C25.87872085 63.3560256 23.61045784 61.18790344 21.35125732 59.00843143 C20.55135376 58.27076542 20.55135376 58.27076542 19.73529053 57.51819706 C18.26922607 56.10218143 18.26922607 56.10218143 16.16375732 53.50843143 C16.14485415 50.1310643 18.07282452 48.05391485 20.16375732 45.50843143 C18.80842896 44.16095829 18.80842896 44.16095829 17.42572021 42.78626347 C14.08172809 39.46033875 10.74101982 36.13113235 7.40130615 32.8009119 C5.95396198 31.35860395 4.50572257 29.91719378 3.05657959 28.47669315 C0.97667554 26.40888571 -1.10001304 24.33789643 -3.17608643 22.26624393 C-3.82713852 21.62035313 -4.47819061 20.97446232 -5.14897156 20.30899906 C-5.74951859 19.70852757 -6.35006561 19.10805607 -6.96881104 18.48938847 C-7.4995372 17.96088291 -8.03026337 17.43237736 -8.57707214 16.88785648 C-10.71731161 14.5432178 -10.84226934 13.39995146 -11.02374268 10.13343143 C-10.85137769 6.80104165 -10.71728113 5.18148608 -8.83624268 2.50843143 C-5.70715665 0.42237408 -3.74160298 -0.09414953 0 0 Z M-5.02374268 6.50843143 C-5.62186768 7.16843143 -6.21999268 7.82843143 -6.83624268 8.50843143 C-5.35040546 13.71745034 -2.06288357 16.66819842 1.70281982 20.34046268 C2.34367523 20.97707325 2.98453064 21.61368382 3.64480591 22.26958561 C5.68583581 24.2938725 7.73706588 26.30745683 9.78875732 28.32093143 C11.17746484 29.69458653 12.56549376 31.06892802 13.95281982 32.44397831 C17.34865346 35.80680071 20.75367135 39.16006504 24.16375732 42.50843143 C26.47375732 40.52843143 28.78375732 38.54843143 31.16375732 36.50843143 C25.88273617 30.06838971 20.06828161 24.1929487 14.19476318 18.29920292 C12.46299558 16.55759433 10.74217003 14.8056038 9.0211792 13.05335331 C7.91962272 11.94527785 6.81743205 10.8378324 5.71453857 9.73108768 C5.20200027 9.20620258 4.68946198 8.68131748 4.16139221 8.14052677 C-0.12451539 3.8377197 -0.12451539 3.8377197 -5.02374268 6.50843143 Z M30.34344482 42.13343143 C29.23678846 43.25342101 28.13543812 44.3786721 27.03875732 45.50843143 C26.19377686 46.36694706 26.19377686 46.36694706 25.33172607 47.24280643 C23.93789465 48.66026212 22.55024097 50.08378769 21.16375732 51.50843143 C25.66042723 56.84822695 30.31026455 61.99072274 35.16375732 67.00843143 C36.1924292 68.11831425 36.1924292 68.11831425 37.24188232 69.25061893 C39.13873333 71.19814916 40.93251383 72.95450884 43.16375732 74.50843143 C46.17046339 74.48676726 46.17046339 74.48676726 49.16375732 73.50843143 C52.14367099 73.77711217 55.00462447 74.44981016 57.91375732 75.13343143 C59.06424561 75.36352909 59.06424561 75.36352909 60.23797607 75.59827518 C65.71345157 76.85888554 65.71345157 76.85888554 67.69110107 79.71155643 C68.46340034 84.28152564 68.03301949 88.72331266 67.74578857 93.32874393 C67.81527287 96.65278627 67.81527287 96.65278627 70.42547607 98.37561893 C74.84538562 100.20411219 78.30014871 100.64554016 83.10125732 100.63343143 C84.63072998 100.63729862 84.63072998 100.63729862 86.19110107 100.64124393 C88.95964458 100.5175508 91.46915267 100.13369881 94.16375732 99.50843143 C88.54971317 92.66929385 82.30171285 86.48244153 76.05438232 80.23108768 C74.8794035 79.05289146 73.70449829 77.87462182 72.52966309 76.69628239 C70.08052367 74.24118632 67.62935792 71.78813414 65.17694092 69.33631229 C62.02881543 66.18828915 58.88766755 63.03339933 55.74817276 59.87677193 C53.33072605 57.44824347 50.90878544 55.02423629 48.48552704 52.60150814 C47.32445514 51.4392538 46.16500994 50.2753721 45.00720978 49.10985851 C43.3964283 47.48933873 41.77950688 45.87520738 40.16082764 44.26258183 C39.24182678 43.34215595 38.32282593 42.42173008 37.37597656 41.47341251 C33.98419457 38.4606969 33.70207182 39.00739633 30.34344482 42.13343143 Z M47.16375732 77.50843143 C43.64979559 81.58462705 42.87770371 85.06408864 42.93719482 90.43811893 C43.2804224 93.57450881 44.49155939 95.87150392 46.16375732 98.50843143 C46.82375732 98.83843143 47.48375732 99.16843143 48.16375732 99.50843143 C51.30635639 96.93721402 52.28952543 94.44247497 53.16375732 90.50843143 C53.17113798 86.2571758 52.82176577 82.681403 50.72625732 78.94593143 C49.27230715 77.28274592 49.27230715 77.28274592 47.16375732 77.50843143 Z M56.16375732 79.50843143 C56.16375732 85.44843143 56.16375732 91.38843143 56.16375732 97.50843143 C62.85879009 96.37294359 62.85879009 96.37294359 64.66375732 93.44593143 C65.36221974 89.34246473 64.82234297 85.59344241 64.16375732 81.50843143 C61.25775471 80.25178166 59.36771148 79.50843143 56.16375732 79.50843143 Z M88.16375732 84.50843143 C90.21292988 88.9066831 90.21292988 88.9066831 94.16375732 91.50843143 C97.30124229 90.83650028 100.20645864 89.74063922 103.16375732 88.50843143 C99.88262712 86.3210113 97.83291376 85.96400337 93.97625732 85.38343143 C92.34623779 85.13206425 92.34623779 85.13206425 90.68328857 84.87561893 C89.43612061 84.69386112 89.43612061 84.69386112 88.16375732 84.50843143 Z " fill="#000000" transform="translate(18.83624267578125,1.4915685653686523)"/>
<path d="M0 0 C40.92 0 81.84 0 124 0 C124 4.29 124 8.58 124 13 C83.08 13 42.16 13 0 13 C0 8.71 0 4.42 0 0 Z M4 4 C4 5.65 4 7.3 4 9 C42.28 9 80.56 9 120 9 C120 7.35 120 5.7 120 4 C81.72 4 43.44 4 4 4 Z " fill="#000000" transform="translate(2,113)"/>
<path d="M0 0 C5.80098644 0.54726287 9.46724307 4.17145408 13.3125 8.3125 C14.22 7.52875 15.1275 6.745 16.0625 5.9375 C21.10447131 1.79839332 24.67852612 0.74103409 31.3125 1.3125 C35.68293622 2.0532519 38.30701213 2.92382059 41.1875 6.25 C45.13797032 11.94332488 44.81048642 17.5896833 44.3125 24.3125 C42.7679049 28.71459604 41.15592851 30.78917574 37.3125 33.3125 C31.34650231 35.51754923 26.28035421 35.71601001 20.36328125 33.3828125 C17.23062883 31.74786628 14.87290803 29.74160506 12.3125 27.3125 C12.085625 27.89 11.85875 28.4675 11.625 29.0625 C9.88400366 32.04706515 8.24463167 33.46398221 5.3125 35.3125 C2.57250222 35.98457493 0.15912483 36.17016876 -2.6875 36.3125 C-3.6875 35.3125 -3.6875 35.3125 -3.9375 32.5625 C-3.66184074 28.97892963 -2.73556115 27.21391996 -0.6875 24.3125 C-1.80125 24.02375 -2.915 23.735 -4.0625 23.4375 C-7.6875 22.3125 -7.6875 22.3125 -9.6875 20.3125 C-9.8125 17.6875 -9.8125 17.6875 -9.6875 15.3125 C-4.0625 12.3125 -4.0625 12.3125 -0.6875 12.3125 C-1.1825 11.61125 -1.6775 10.91 -2.1875 10.1875 C-3.88998776 6.92439846 -4.01737945 4.9411739 -3.6875 1.3125 C-2.6875 0.3125 -2.6875 0.3125 0 0 Z M1.3125 5.3125 C2.83456009 7.94151288 4.15615964 10.15615964 6.3125 12.3125 C7.3025 11.9825 8.2925 11.6525 9.3125 11.3125 C8.3604279 10.30653703 7.40062654 9.30788437 6.4375 8.3125 C5.63699219 7.4771875 5.63699219 7.4771875 4.8203125 6.625 C3.39425012 5.09364478 3.39425012 5.09364478 1.3125 5.3125 Z M28.3125 6.3125 C27.9825 10.6025 27.6525 14.8925 27.3125 19.3125 C26.3225 19.3125 25.3325 19.3125 24.3125 19.3125 C23.9825 15.3525 23.6525 11.3925 23.3125 7.3125 C19.05072797 9.44338601 18.14870817 10.0892212 16.3125 14.3125 C15.71535541 18.29884363 15.92748376 21.40061944 17.5 25.125 C19.63646891 27.70349697 21.22950925 28.98120854 24.3125 30.3125 C28.81624507 30.7146201 32.32806308 30.52607607 36.3125 28.3125 C39.62277254 25.35689952 40.0357015 21.87734474 40.37890625 17.6328125 C40.270244 13.83602577 39.25072082 11.58742484 37.3125 8.3125 C34.12338186 5.86750942 32.61119347 6.3125 28.3125 6.3125 Z M-3.6875 17.3125 C-3.3575 17.9725 -3.0275 18.6325 -2.6875 19.3125 C-0.89616022 19.36641993 0.89563899 19.40525571 2.6875 19.4375 C3.68523438 19.46070313 4.68296875 19.48390625 5.7109375 19.5078125 C8.47512173 19.58466848 8.47512173 19.58466848 10.3125 17.3125 C3.28467958 16.2734283 3.28467958 16.2734283 -3.6875 17.3125 Z M5.8046875 24.625 C5.27101563 25.181875 4.73734375 25.73875 4.1875 26.3125 C3.64867187 26.869375 3.10984375 27.42625 2.5546875 28 C2.14476562 28.433125 1.73484375 28.86625 1.3125 29.3125 C1.6425 29.9725 1.9725 30.6325 2.3125 31.3125 C3.4850131 30.36132866 4.65037015 29.40132991 5.8125 28.4375 C6.4621875 27.90382813 7.111875 27.37015625 7.78125 26.8203125 C8.53921875 26.07394531 8.53921875 26.07394531 9.3125 25.3125 C9.3125 24.6525 9.3125 23.9925 9.3125 23.3125 C7.23074988 23.09364478 7.23074988 23.09364478 5.8046875 24.625 Z " fill="#000000" transform="translate(11.6875,71.6875)"/>
<path d="M0 0 C1.65 0 3.3 0 5 0 C5 1.65 5 3.3 5 5 C3.35 4.67 1.7 4.34 0 4 C0 2.68 0 1.36 0 0 Z " fill="#000000" transform="translate(15,9)"/>
</svg>
