<?xml version="1.0" encoding="UTF-8"?>
<svg version="1.1" xmlns="http://www.w3.org/2000/svg" width="128" height="128">
<path d="M0 0 C1.32 0 2.64 0 4 0 C4.33 0.66 4.66 1.32 5 2 C5.33 1.34 5.66 0.68 6 0 C7.32 0 8.64 0 10 0 C10.33 0.66 10.66 1.32 11 2 C11.33 1.34 11.66 0.68 12 0 C13.32 0 14.64 0 16 0 C16.33 0.66 16.66 1.32 17 2 C17.33 1.34 17.66 0.68 18 0 C19.32 0 20.64 0 22 0 C22.33 8.58 22.66 17.16 23 26 C24.4540625 23.525 24.4540625 23.525 25.9375 21 C32.36113976 10.99196925 41.33010502 3.83543945 52.89501953 0.44433594 C64.98097844 -2.10686393 78.04499452 -0.66205811 88.6328125 5.54296875 C99.16707201 12.41382159 107.34062357 22.44102176 110 35 C111.29652954 49.00744253 110.16327659 61.29614771 101.625 72.9375 C94.37523187 81.44472256 84.43691127 89.12651905 72.91625977 90.19287109 C58.37140473 90.71956945 46.47150158 89.643255 34.921875 79.80078125 C27.45147004 72.80107254 20.37273095 63.12152686 19.88647461 52.52636719 C19.89171143 51.62563477 19.89694824 50.72490234 19.90234375 49.796875 C19.90556641 48.8171875 19.90878906 47.8375 19.91210938 46.828125 C19.92048828 45.81234375 19.92886719 44.7965625 19.9375 43.75 C19.94201172 42.71875 19.94652344 41.6875 19.95117188 40.625 C19.96293912 38.08327427 19.97937989 35.54166681 20 33 C18.02 33.495 18.02 33.495 16 34 C16.00444122 34.67207489 16.00888245 35.34414978 16.01345825 36.03659058 C16.05759634 43.01151408 16.08782667 49.98639813 16.10986328 56.96142578 C16.11994064 59.56691091 16.1336027 62.17238469 16.15087891 64.77783203 C16.17505102 68.51597899 16.1864656 72.25397685 16.1953125 75.9921875 C16.20563507 77.16304901 16.21595764 78.33391052 16.22659302 79.54025269 C16.22674408 80.62122223 16.22689514 81.70219177 16.22705078 82.81591797 C16.231492 83.77078094 16.23593323 84.72564392 16.24050903 85.70944214 C16 88 16 88 14 90 C11.0625 90.4375 11.0625 90.4375 8 90 C3.73706031 85.37895591 4.59523161 79.38645733 4.62890625 73.49609375 C4.61153072 71.20637866 4.59394627 68.91666515 4.57617188 66.62695312 C4.56607952 63.02349011 4.5625082 59.42012699 4.56420898 55.81665039 C4.56064728 52.33449453 4.53334142 48.85311239 4.50390625 45.37109375 C4.51208878 44.29186142 4.5202713 43.21262909 4.52870178 42.10069275 C4.51866623 41.09607498 4.50863068 40.09145721 4.49829102 39.05639648 C4.49845718 38.17435043 4.49862335 37.29230438 4.49879456 36.38352966 C3.84516643 33.26011541 2.28153518 32.15272155 0 30 C-0.45410156 26.79199219 -0.45410156 26.79199219 -0.390625 23.046875 C-0.38496521 22.38665344 -0.37930542 21.72643188 -0.37347412 21.04620361 C-0.3511623 18.94671737 -0.30098314 16.8489663 -0.25 14.75 C-0.22992794 13.3229414 -0.21167839 11.89585592 -0.1953125 10.46875 C-0.15131693 6.97860707 -0.08232876 3.48947301 0 0 Z M36 16 C27.59807356 24.88665296 24.21898183 35.32284746 24.4128418 47.34716797 C25.00910281 59.37155309 30.21200206 67.94433523 39 76 C49.39498913 84.47729286 59.90664846 86.15377058 73 85 C84.52960755 82.50520717 93.07929176 75.32991267 100 66 C105.65791063 55.82554399 107.01481264 43.79002991 104.09375 32.49609375 C99.25906338 20.36288982 92.02229168 12.52602832 80.125 7.1875 C64.36675879 1.05819664 48.71218892 4.98843836 36 16 Z M4 22 C4.33 23.98 4.66 25.96 5 28 C8.46998729 30.31332486 9.92509248 30.33957563 14 30 C14.99 29.34 15.98 28.68 17 28 C17 26.02 17 24.04 17 22 C12.71 22 8.42 22 4 22 Z M10 34 C10 50.83 10 67.66 10 85 C10.33 85 10.66 85 11 85 C11 68.17 11 51.34 11 34 C10.67 34 10.34 34 10 34 Z " fill="#000000" transform="translate(0,19)"/>
<path d="M0 0 C7.76675969 5.2863574 13.38019908 11.09474305 15.95703125 20.33203125 C16.97849667 31.79382348 16.07180915 40.5604769 8.58203125 49.64453125 C3.05238769 55.57504449 -2.65763398 58.94121385 -10.8125 59.66796875 C-22.2900419 59.92562211 -29.79553736 58.0735478 -38.3203125 50.125 C-45.07902557 43.09042109 -46.45687681 35.78457741 -46.40649414 26.37695312 C-46.15072802 16.47368908 -42.06373178 10.07747024 -35.04296875 3.33203125 C-25.66852822 -3.93794304 -10.69212687 -5.78560593 0 0 Z M-34.04296875 9.33203125 C-40.80504733 17.63932275 -41.90220923 24.71511469 -41.04296875 35.33203125 C-40.13498992 38.37117283 -38.85921192 40.7464073 -37.04296875 43.33203125 C-36.46546875 44.21890625 -35.88796875 45.10578125 -35.29296875 46.01953125 C-29.56052607 51.91120845 -23.52377847 54.47674975 -15.35546875 54.64453125 C-9.20186628 54.60012381 -5.06825775 53.86199035 -0.04296875 50.33203125 C0.84390625 49.75453125 1.73078125 49.17703125 2.64453125 48.58203125 C8.47516895 42.90897835 11.1011935 36.85773084 11.33203125 28.76953125 C11.25949797 20.96011457 9.54861056 15.35016392 4.3125 9.4921875 C-7.22603777 -1.160774 -22.52546255 -0.910554 -34.04296875 9.33203125 Z " fill="#000000" transform="translate(80.04296875,35.66796875)"/>
<path d="M0 0 C7.71533203 -0.15527344 7.71533203 -0.15527344 10.27734375 1.2421875 C11.09912109 2.05042969 11.09912109 2.05042969 11.9375 2.875 C12.78634766 3.67550781 12.78634766 3.67550781 13.65234375 4.4921875 C15.93030798 7.04086632 16.12346899 8.76135734 16.11352539 12.08251953 C16.11344986 12.92324005 16.11337433 13.76396057 16.11329651 14.63015747 C16.10813522 15.53853363 16.10297394 16.44690979 16.09765625 17.3828125 C16.0962413 18.31221649 16.09482635 19.24162048 16.09336853 20.19918823 C16.08776053 23.17449124 16.07520668 26.14971964 16.0625 29.125 C16.05748603 31.13932183 16.05292295 33.15364484 16.04882812 35.16796875 C16.0377885 40.11200802 16.02051849 45.05599135 16 50 C14.35 50 12.7 50 11 50 C11.02356567 51.55110474 11.02356567 51.55110474 11.04760742 53.13354492 C11.10204054 56.98193527 11.13639849 60.83029179 11.16479492 64.67895508 C11.17985114 66.34242481 11.20030063 68.00585505 11.22631836 69.66918945 C11.26284207 72.06471522 11.27975782 74.45971467 11.29296875 76.85546875 C11.30845261 77.5952446 11.32393646 78.33502045 11.33988953 79.09721375 C11.34133127 83.5533192 10.88092993 86.52463917 8 90 C4.9375 90.4375 4.9375 90.4375 2 90 C-0.58303084 87.41696916 -0.23582174 85.68573289 -0.24884033 82.16656494 C-0.24164978 81.3508905 -0.23445923 80.53521606 -0.22705078 79.69482422 C-0.22734283 78.83621796 -0.22763489 77.97761169 -0.22793579 77.09298706 C-0.22653922 74.24678543 -0.21096273 71.40084356 -0.1953125 68.5546875 C-0.19158353 66.58456566 -0.18873601 64.61444198 -0.18673706 62.64431763 C-0.17909146 57.45256452 -0.15943504 52.26092286 -0.1373291 47.06921387 C-0.1168906 41.7740225 -0.10773962 36.47881317 -0.09765625 31.18359375 C-0.07619001 20.78901346 -0.04204292 10.39451599 0 0 Z M5 5 C5 18.53 5 32.06 5 46 C7.31 46 9.62 46 12 46 C12.07460234 41.57091622 12.12881371 37.1421731 12.16479492 32.71264648 C12.17980722 31.20834983 12.20022353 29.70409639 12.22631836 28.19995117 C12.26303816 26.02772304 12.27980161 23.85607749 12.29296875 21.68359375 C12.3086792 20.37962646 12.32438965 19.07565918 12.34057617 17.73217773 C11.94124169 13.35610154 11.11358557 10.83830478 9 7 C7.68 6.34 6.36 5.68 5 5 Z M5 50 C5 61.55 5 73.1 5 85 C5.33 85 5.66 85 6 85 C6 73.45 6 61.9 6 50 C5.67 50 5.34 50 5 50 Z " fill="#000000" transform="translate(112,19)"/>
</svg>
