<?xml version="1.0" encoding="UTF-8"?>
<svg version="1.1" xmlns="http://www.w3.org/2000/svg" width="128" height="128">
<path d="M0 0 C2.3269043 0.02563477 2.3269043 0.02563477 5 1 C6.52436619 3.22291442 7.63845475 5.17736411 8.76953125 7.58984375 C9.09539719 8.2495668 9.42126312 8.90928986 9.75700378 9.58900452 C10.79260833 11.6973013 11.80211814 13.81701964 12.8125 15.9375 C13.51080077 17.36209829 14.2106533 18.78593707 14.91210938 20.20898438 C15.57428561 21.56443626 16.23513895 22.92053538 16.89453125 24.27734375 C17.20695267 24.9200975 17.51937408 25.56285126 17.84126282 26.2250824 C20 30.76208352 20 30.76208352 20 33 C21.09054688 33.10957031 22.18109375 33.21914063 23.3046875 33.33203125 C31.59539151 34.19307809 39.83731625 35.20386845 48.0625 36.5625 C49.23111572 36.75259644 49.23111572 36.75259644 50.42333984 36.9465332 C55.87369298 37.87369298 55.87369298 37.87369298 57 39 C57.5 41.125 57.5 41.125 57 44 C53.91101578 47.95540662 49.90127879 51.09919189 46.125 54.375 C45.46886719 54.95636719 44.81273438 55.53773437 44.13671875 56.13671875 C42.60905774 57.46888384 41.04430078 58.7589808 39.45703125 60.01953125 C34.70831557 64.02770481 34.70831557 64.02770481 32.55078125 69.64453125 C32.77486262 72.85636422 33.3258888 75.85058101 34 79 C34.39924445 81.14855882 34.78182692 83.29972799 35.16381836 85.45141602 C35.42806126 86.933474 35.69833931 88.41446953 35.97485352 89.89428711 C36.91054948 95.00946385 37.28420238 99.78962312 37 105 C35.40771484 105.70117188 35.40771484 105.70117188 33 106 C30.69223228 105.02273292 28.64482658 104.00742098 26.4765625 102.78125 C25.19540346 102.08967522 23.91415051 101.39827438 22.6328125 100.70703125 C20.62671565 99.60578915 18.62370266 98.4992795 16.62304688 97.38818359 C14.68560339 96.31781765 12.73817649 95.26767204 10.7890625 94.21875 C10.19823883 93.88234497 9.60741516 93.54593994 8.99868774 93.19934082 C6.15755346 91.67862149 4.21343784 90.99301163 0.97265625 91.09912109 C-2.40671709 92.12325772 -5.25275112 93.50019249 -8.3515625 95.1953125 C-9.54418514 95.83479526 -10.73689608 96.47411337 -11.9296875 97.11328125 C-13.78600471 98.12129205 -15.64005099 99.13325364 -17.4921875 100.14892578 C-19.29411363 101.13304736 -21.10347222 102.10224952 -22.9140625 103.0703125 C-23.9860791 103.65570801 -25.0580957 104.24110352 -26.16259766 104.84423828 C-29 106 -29 106 -31.38037109 105.68310547 C-31.91484863 105.45768066 -32.44932617 105.23225586 -33 105 C-33.23720719 97.84672073 -32.34582568 91.32807101 -31 84.3125 C-30.28616217 80.54797011 -29.61088069 76.78261792 -29 73 C-28.8246875 71.91976562 -28.649375 70.83953125 -28.46875 69.7265625 C-29.32612172 65.32622823 -32.29495578 63.0336231 -35.5 60.0625 C-36.4576123 59.14162598 -36.4576123 59.14162598 -37.43457031 58.20214844 C-41.37374405 54.43884851 -45.38197734 50.74737563 -49.546875 47.234375 C-51 46 -51 46 -53 44 C-53.125 41.375 -53.125 41.375 -53 39 C-48.88649772 37.52543559 -44.96968283 36.56163803 -40.6484375 35.9296875 C-39.46765625 35.75566406 -38.286875 35.58164062 -37.0703125 35.40234375 C-35.85085937 35.22832031 -34.63140625 35.05429687 -33.375 34.875 C-32.1478125 34.69324219 -30.920625 34.51148438 -29.65625 34.32421875 C-20.55597979 33 -20.55597979 33 -16 33 C-15.59793335 31.70799683 -15.59793335 31.70799683 -15.18774414 30.38989258 C-14.00712418 27.02033283 -12.59701379 23.95109555 -10.99609375 20.76171875 C-10.42052734 19.61251953 -9.84496094 18.46332031 -9.25195312 17.27929688 C-8.95426025 16.69011475 -8.65656738 16.10093262 -8.34985352 15.49389648 C-7.43233664 13.6772769 -6.52138823 11.85747416 -5.61132812 10.03710938 C-1.14038584 1.14038584 -1.14038584 1.14038584 0 0 Z M1 12 C0.76853271 12.76143311 0.53706543 13.52286621 0.29858398 14.30737305 C-6.47952064 34.94356492 -6.47952064 34.94356492 -13.74389648 38.96551514 C-22.84788092 42.563975 -33.32622995 42.82998647 -43 43 C-39.88034402 46.79614924 -36.76512753 50.30491816 -33.09765625 53.578125 C-30.33667368 56.06073139 -27.65156962 58.57992913 -25.07421875 61.25390625 C-24.49760498 61.8476001 -23.92099121 62.44129395 -23.3269043 63.05297852 C-21.66596091 65.49014935 -21.46565998 67.26343225 -21.375 70.1875 C-21.88800939 72.13278414 -22.43598511 74.06888731 -23 76 C-23.59884799 79.55149132 -24.06929571 83.12003054 -24.5625 86.6875 C-24.8309846 88.46279555 -25.10284366 90.2375858 -25.37890625 92.01171875 C-25.4982251 92.77959717 -25.61754395 93.54747559 -25.74047852 94.33862305 C-25.82612061 94.88687744 -25.9117627 95.43513184 -26 96 C-19.48394751 94.15942673 -13.84780482 90.76497379 -7.98828125 87.45703125 C-7.17746094 87.01488281 -6.36664063 86.57273437 -5.53125 86.1171875 C-4.44166992 85.50786377 -4.44166992 85.50786377 -3.33007812 84.88623047 C0.67689522 83.36220351 3.79689828 83.51995092 7.76074219 85.1015625 C8.68016602 85.60429688 9.59958984 86.10703125 10.546875 86.625 C11.55621094 87.16640625 12.56554687 87.7078125 13.60546875 88.265625 C15.16201172 89.12414062 15.16201172 89.12414062 16.75 90 C18.82629832 91.12836775 20.90433665 92.25354158 22.984375 93.375 C23.89928711 93.87773438 24.81419922 94.38046875 25.75683594 94.8984375 C27.88269539 96.14693114 27.88269539 96.14693114 30 96 C29.81824219 94.85785034 29.81824219 94.85785034 29.6328125 93.69262695 C29.08457564 90.23319967 28.54222904 86.77287382 28 83.3125 C27.80921875 82.11431641 27.6184375 80.91613281 27.421875 79.68164062 C27.24140625 78.52470703 27.0609375 77.36777344 26.875 76.17578125 C26.70742187 75.11270752 26.53984375 74.04963379 26.3671875 72.9543457 C26.24601562 71.97941162 26.12484375 71.00447754 26 70 C25.83081055 68.72757446 25.83081055 68.72757446 25.65820312 67.42944336 C26.16471274 63.8292454 28.00483276 62.44626178 30.59375 59.953125 C31.05986694 59.49645447 31.52598389 59.03978394 32.00622559 58.5692749 C33.49278192 57.11724191 34.99546326 55.68337297 36.5 54.25 C38.00090042 52.79898569 39.49830453 51.34448786 40.99377441 49.88787842 C42.34722402 48.57297013 43.70955445 47.26722165 45.07226562 45.96191406 C47.11681102 44.33953502 47.11681102 44.33953502 47 43 C46.12899658 42.98469238 45.25799316 42.96938477 44.3605957 42.95361328 C20.00773736 42.07263133 20.00773736 42.07263133 13.25585938 35.21142578 C8.52004456 28.06687756 5.48480899 20.17400968 3 12 C2.34 12 1.68 12 1 12 Z " fill="#000000" transform="translate(62,11)"/>
</svg>
