<?xml version="1.0" encoding="UTF-8"?>
<svg version="1.1" xmlns="http://www.w3.org/2000/svg" width="1148" height="334">
<path d="M0 0 C3.65145979 3.01157375 6.77551155 6.54018397 10 10 C10.72703125 10.73605469 11.4540625 11.47210938 12.203125 12.23046875 C15.00707226 15.17689301 16.79005934 17.12524726 17.75 21.125 C16.03821358 27.68684795 11.34348009 30.43767994 6 34 C5.195625 34.969375 4.39125 35.93875 3.5625 36.9375 C1.08197851 39.90202569 -1.1556222 41.59697301 -4.30859375 43.71484375 C-6.97410351 45.74013869 -8.86969975 48.43271509 -11 51 C-12.4540625 51.9590625 -12.4540625 51.9590625 -13.9375 52.9375 C-16.60954059 54.73703754 -18.0201698 56.06527409 -20 58.5 C-22.64161279 61.74856298 -25.4975898 63.68989966 -29 66 C-29.804375 66.969375 -30.60875 67.93875 -31.4375 68.9375 C-33.91802149 71.90202569 -36.1556222 73.59697301 -39.30859375 75.71484375 C-41.97410351 77.74013869 -43.86969975 80.43271509 -46 83 C-48 84.33333333 -50 85.66666667 -52 87 C-52.804375 87.969375 -53.60875 88.93875 -54.4375 89.9375 C-56.52591253 92.43340766 -57.89907744 93.75294403 -60.5 95.5 C-63.07267488 97.22990207 -64.44248643 98.53098371 -66.5 101 C-68.94849991 103.9381999 -71.18575303 105.61721208 -74.30859375 107.71484375 C-76.97410351 109.74013869 -78.86969975 112.43271509 -81 115 C-83 116.33333333 -85 117.66666667 -87 119 C-87.804375 119.969375 -88.60875 120.93875 -89.4375 121.9375 C-91.91802149 124.90202569 -94.1556222 126.59697301 -97.30859375 128.71484375 C-99.97410351 130.74013869 -101.86969975 133.43271509 -104 136 C-104.969375 136.639375 -105.93875 137.27875 -106.9375 137.9375 C-109.60954059 139.73703754 -111.0201698 141.06527409 -113 143.5 C-115.64161279 146.74856298 -118.4975898 148.68989966 -122 151 C-122.90900032 151.99067861 -123.78414653 153.01336172 -124.625 154.0625 C-126.64932607 156.56627172 -128.2876007 158.31644181 -131 160 C-131.66 160 -132.32 160 -133 160 C-133 160.66 -133 161.32 -133 162 C-134.98 162.33 -136.96 162.66 -139 163 C-139.70194375 165.05762909 -140.38601697 167.12136031 -141.0625 169.1875 C-141.44535156 170.33605469 -141.82820312 171.48460937 -142.22265625 172.66796875 C-143.01175983 176.05040771 -143.19504898 177.76894164 -142 181 C-140.41550534 182.85488649 -140.41550534 182.85488649 -138.4375 184.3125 C-137.79683594 184.82425781 -137.15617188 185.33601562 -136.49609375 185.86328125 C-136.00238281 186.23839844 -135.50867188 186.61351562 -135 187 C-136.55964162 191.13016208 -139.5560612 193.46876923 -142.875 196.1875 C-143.44710205 196.66292236 -144.0192041 197.13834473 -144.60864258 197.62817383 C-160.83169938 211 -160.83169938 211 -164 211 C-164.20625 211.56203125 -164.4125 212.1240625 -164.625 212.703125 C-166.49341944 215.82423474 -169.10385945 217.65303031 -172 219.75 C-172.5465625 220.16121094 -173.093125 220.57242188 -173.65625 220.99609375 C-177.72799003 224 -177.72799003 224 -180 224 C-180.33 224.99 -180.66 225.98 -181 227 C-181.9590625 227.2165625 -181.9590625 227.2165625 -182.9375 227.4375 C-183.618125 227.623125 -184.29875 227.80875 -185 228 C-185.268125 228.5775 -185.53625 229.155 -185.8125 229.75 C-187.62108586 233.17679425 -190.67766062 235.08808772 -194 237 C-194.66 237 -195.32 237 -196 237 C-196.33 237.99 -196.66 238.98 -197 240 C-198.33333333 240.33333333 -199.66666667 240.66666667 -201 241 C-201.33 241.99 -201.66 242.98 -202 244 C-203.77734375 245.60546875 -203.77734375 245.60546875 -205.9375 247.1875 C-206.64777344 247.71730469 -207.35804688 248.24710938 -208.08984375 248.79296875 C-210 250 -210 250 -212 250 C-212.33 250.99 -212.66 251.98 -213 253 C-214.33333333 253.33333333 -215.66666667 253.66666667 -217 254 C-217.33 254.99 -217.66 255.98 -218 257 C-218.639375 257.144375 -219.27875 257.28875 -219.9375 257.4375 C-220.618125 257.623125 -221.29875 257.80875 -222 258 C-222.33 258.66 -222.66 259.32 -223 260 C-223.33 260.66 -223.66 261.32 -224 262 C-225.32594105 262.36162029 -226.65938457 262.69728039 -228 263 C-228.33 263.99 -228.66 264.98 -229 266 C-230.33333333 266.33333333 -231.66666667 266.66666667 -233 267 C-233.33 267.99 -233.66 268.98 -234 270 C-234.639375 270.144375 -235.27875 270.28875 -235.9375 270.4375 C-236.618125 270.623125 -237.29875 270.80875 -238 271 C-238.33 271.66 -238.66 272.32 -239 273 C-239.33 273.66 -239.66 274.32 -240 275 C-241.32594105 275.36162029 -242.65938457 275.69728039 -244 276 C-244.33 276.99 -244.66 277.98 -245 279 C-246.33333333 279.33333333 -247.66666667 279.66666667 -249 280 C-249.33 280.99 -249.66 281.98 -250 283 C-250.639375 283.144375 -251.27875 283.28875 -251.9375 283.4375 C-252.618125 283.623125 -253.29875 283.80875 -254 284 C-254.33 284.66 -254.66 285.32 -255 286 C-255.33 286.66 -255.66 287.32 -256 288 C-257.32594105 288.36162029 -258.65938457 288.69728039 -260 289 C-260.33 289.99 -260.66 290.98 -261 292 C-262.33333333 292.33333333 -263.66666667 292.66666667 -265 293 C-265.33 293.99 -265.66 294.98 -266 296 C-268.0625 296.6875 -268.0625 296.6875 -270 297 C-270 297.66 -270 298.32 -270 299 C-275.34224902 303.47885524 -281.73373883 306.41458477 -287.9609375 309.43359375 C-291.8854115 311.45636248 -295.50332787 313.84615994 -299.19140625 316.265625 C-303.11316243 318.6874049 -307.20923549 320.6677601 -311.37109375 322.640625 C-313.82326757 323.90861384 -315.83477224 325.30133806 -318 327 C-321.90946282 329.61505455 -325.14311926 331.58871282 -330 331 C-329.35184419 326.54585627 -327.67113289 322.75394452 -325.76171875 318.72265625 C-325.43967972 318.03368759 -325.11764069 317.34471893 -324.7858429 316.63487244 C-324.10511269 315.18215937 -323.42163928 313.73072897 -322.7355957 312.28051758 C-321.69418527 310.0766476 -320.6638909 307.86783182 -319.63476562 305.65820312 C-318.96941207 304.24187629 -318.3034171 302.82585056 -317.63671875 301.41015625 C-317.33239426 300.7568483 -317.02806976 300.10354034 -316.71452332 299.43043518 C-314.77117087 295.34395133 -312.705013 291.61608003 -310 288 C-309.34 288 -308.68 288 -308 288 C-307.67 286.68 -307.34 285.36 -307 284 C-306.34 284 -305.68 284 -305 284 C-304.75894531 283.25621094 -304.51789063 282.51242187 -304.26953125 281.74609375 C-302.82563883 278.62284337 -301.3300014 277.23423644 -298.6875 275.0625 C-295.96948987 272.75696744 -293.49623673 270.56887584 -291.3125 267.75 C-288.81006051 264.77412602 -286.21958195 263.14638797 -283 261 C-281.7625 259.515 -281.7625 259.515 -280.5 258 C-277.90335742 254.8840289 -275.35164656 253.23443104 -272 251 C-271.175 250.01 -270.35 249.02 -269.5 248 C-266.90335742 244.8840289 -264.35164656 243.23443104 -261 241 C-260.195625 240.030625 -259.39125 239.06125 -258.5625 238.0625 C-256.06972035 235.08332432 -253.79129811 233.34876626 -250.62109375 231.21484375 C-248.78391755 229.94365336 -248.78391755 229.94365336 -247 227.5 C-245.20277118 225.25346397 -243.89479767 224.1324122 -241.5625 222.5625 C-238.03834093 220.17806897 -235.71820807 217.27578921 -233 214 C-231 212.66666667 -229 211.33333333 -227 210 C-226.175 209.01 -225.35 208.02 -224.5 207 C-221.90335742 203.8840289 -219.35164656 202.23443104 -216 200 C-215.175 199.01 -214.35 198.02 -213.5 197 C-210.90335742 193.8840289 -208.35164656 192.23443104 -205 190 C-204.175 189.01 -203.35 188.02 -202.5 187 C-199.90335742 183.8840289 -197.35164656 182.23443104 -194 180 C-193.175 179.01 -192.35 178.02 -191.5 177 C-188.90335742 173.8840289 -186.35164656 172.23443104 -183 170 C-182.175 169.01 -181.35 168.02 -180.5 167 C-177.90335742 163.8840289 -175.35164656 162.23443104 -172 160 C-171.195625 159.030625 -170.39125 158.06125 -169.5625 157.0625 C-167.4676882 154.55894444 -166.04831286 153.20396487 -163.4375 151.4375 C-160.30708734 149.28917758 -158.02953698 147.27848281 -156 144 C-155.938125 142.906875 -155.87625 141.81375 -155.8125 140.6875 C-154.55177921 134.96576717 -150.41167324 132.57353152 -146 129 C-145.195625 128.195625 -144.39125 127.39125 -143.5625 126.5625 C-141.1122718 124.1122718 -138.58295333 121.80906137 -136 119.5 C-133.43965753 117.21075261 -130.92888462 114.92888462 -128.5 112.5 C-125.23740307 109.23740307 -121.78688589 106.20344586 -118.34765625 103.12890625 C-116.67076346 101.60826304 -115.03817567 100.03817567 -113.4375 98.4375 C-110.45086101 95.45086101 -107.28830518 92.69510654 -104.12109375 89.90234375 C-102.55922205 88.50154906 -101.04602098 87.04602098 -99.5625 85.5625 C-97.1122718 83.1122718 -94.58295333 80.80906137 -92 78.5 C-89.43965753 76.21075261 -86.92888462 73.92888462 -84.5 71.5 C-81.23611273 68.23611273 -77.78407341 65.20105387 -74.34375 62.125 C-72.68991272 60.62552086 -71.07854608 59.07854608 -69.5 57.5 C-66.23611273 54.23611273 -62.78407341 51.20105387 -59.34375 48.125 C-57.68991272 46.62552086 -56.07854608 45.07854608 -54.5 43.5 C-51.23611273 40.23611273 -47.78407341 37.20105387 -44.34375 34.125 C-42.68991272 32.62552086 -41.07854608 31.07854608 -39.5 29.5 C-36.23740307 26.23740307 -32.78688589 23.20344586 -29.34765625 20.12890625 C-27.67076346 18.60826304 -26.03817567 17.03817567 -24.4375 15.4375 C-21.46038573 12.46038573 -18.31032196 9.71206032 -15.1484375 6.93359375 C-13.40039107 5.36035196 -11.7490522 3.76037275 -10.125 2.0625 C-6.75892703 -1.20457082 -4.32684803 -1.40138212 0 0 Z " fill="#BEBDB7" transform="translate(701,3)"/>
<path d="M0 0 C3.65145979 3.01157375 6.77551155 6.54018397 10 10 C10.72703125 10.73605469 11.4540625 11.47210938 12.203125 12.23046875 C15.00707226 15.17689301 16.79005934 17.12524726 17.75 21.125 C16.03821358 27.68684795 11.34348009 30.43767994 6 34 C5.195625 34.969375 4.39125 35.93875 3.5625 36.9375 C1.08197851 39.90202569 -1.1556222 41.59697301 -4.30859375 43.71484375 C-6.97410351 45.74013869 -8.86969975 48.43271509 -11 51 C-11.969375 51.639375 -12.93875 52.27875 -13.9375 52.9375 C-16.60954059 54.73703754 -18.0201698 56.06527409 -20 58.5 C-22.64161279 61.74856298 -25.4975898 63.68989966 -29 66 C-29.804375 66.969375 -30.60875 67.93875 -31.4375 68.9375 C-33.91802149 71.90202569 -36.1556222 73.59697301 -39.30859375 75.71484375 C-41.97410351 77.74013869 -43.86969975 80.43271509 -46 83 C-48 84.33333333 -50 85.66666667 -52 87 C-52.804375 87.969375 -53.60875 88.93875 -54.4375 89.9375 C-56.52591253 92.43340766 -57.89907744 93.75294403 -60.5 95.5 C-63.07267488 97.22990207 -64.44248643 98.53098371 -66.5 101 C-68.94849991 103.9381999 -71.18575303 105.61721208 -74.30859375 107.71484375 C-76.97410351 109.74013869 -78.86969975 112.43271509 -81 115 C-83 116.33333333 -85 117.66666667 -87 119 C-87.804375 119.969375 -88.60875 120.93875 -89.4375 121.9375 C-91.91802149 124.90202569 -94.1556222 126.59697301 -97.30859375 128.71484375 C-99.97410351 130.74013869 -101.86969975 133.43271509 -104 136 C-104.969375 136.639375 -105.93875 137.27875 -106.9375 137.9375 C-109.60954059 139.73703754 -111.0201698 141.06527409 -113 143.5 C-115.64161279 146.74856298 -118.4975898 148.68989966 -122 151 C-122.804375 151.99 -123.60875 152.98 -124.4375 154 C-127.98816658 158.15687795 -131.3743359 160.62391018 -136.9453125 161.421875 C-140 161 -140 161 -142.30859375 158.8046875 C-143.01113281 157.83789062 -143.71367188 156.87109375 -144.4375 155.875 C-147.12365051 152.30866775 -149.51907626 149.38426764 -153.125 146.75 C-156 144 -156 144 -156.5 140.625 C-154.29141234 135.28757982 -150.4118985 132.57371399 -146 129 C-144.7934375 127.7934375 -144.7934375 127.7934375 -143.5625 126.5625 C-141.1122718 124.1122718 -138.58295333 121.80906137 -136 119.5 C-133.43965753 117.21075261 -130.92888462 114.92888462 -128.5 112.5 C-125.23740307 109.23740307 -121.78688589 106.20344586 -118.34765625 103.12890625 C-116.67076346 101.60826304 -115.03817567 100.03817567 -113.4375 98.4375 C-110.45086101 95.45086101 -107.28830518 92.69510654 -104.12109375 89.90234375 C-102.55922205 88.50154906 -101.04602098 87.04602098 -99.5625 85.5625 C-97.1122718 83.1122718 -94.58295333 80.80906137 -92 78.5 C-89.43965753 76.21075261 -86.92888462 73.92888462 -84.5 71.5 C-81.23611273 68.23611273 -77.78407341 65.20105387 -74.34375 62.125 C-72.68991272 60.62552086 -71.07854608 59.07854608 -69.5 57.5 C-66.23611273 54.23611273 -62.78407341 51.20105387 -59.34375 48.125 C-57.68991272 46.62552086 -56.07854608 45.07854608 -54.5 43.5 C-51.23611273 40.23611273 -47.78407341 37.20105387 -44.34375 34.125 C-42.68991272 32.62552086 -41.07854608 31.07854608 -39.5 29.5 C-36.23740307 26.23740307 -32.78688589 23.20344586 -29.34765625 20.12890625 C-27.67076346 18.60826304 -26.03817567 17.03817567 -24.4375 15.4375 C-21.46038573 12.46038573 -18.31032196 9.71206032 -15.1484375 6.93359375 C-13.40039107 5.36035196 -11.7490522 3.76037275 -10.125 2.0625 C-6.75892703 -1.20457082 -4.32684803 -1.40138212 0 0 Z " fill="#6E544A" transform="translate(701,3)"/>
<path d="M0 0 C2.375 1.375 2.375 1.375 4 4 C4.2024971 11.35476485 1.92261903 18.33584568 -0.3125 25.25 C-0.94880179 27.27576386 -1.5842211 29.30180512 -2.21875 31.328125 C-2.67894531 32.78508789 -2.67894531 32.78508789 -3.1484375 34.27148438 C-5.19159927 40.81803711 -7.00927845 47.43156775 -8.84375 54.0390625 C-10.15010572 58.60537806 -11.59729388 63.12792769 -13.02099609 67.65869141 C-17.63641303 82.36272585 -21.94729749 97.12965913 -26 112 C-26.28391602 113.03995117 -26.56783203 114.07990234 -26.86035156 115.15136719 C-27.57426729 117.76738819 -28.28747807 120.38359909 -29 123 C-25.52015976 122.69471967 -22.04128417 122.37957083 -18.5625 122.0625 C-17.56927734 121.97548828 -16.57605469 121.88847656 -15.55273438 121.79882812 C-14.60849609 121.71181641 -13.66425781 121.62480469 -12.69140625 121.53515625 C-11.81685791 121.456604 -10.94230957 121.37805176 -10.04125977 121.29711914 C-8.00985544 121.20914952 -8.00985544 121.20914952 -7 120 C-4.55530711 119.6971463 -2.12916208 119.45218852 0.32421875 119.24609375 C1.06323929 119.18092056 1.80225983 119.11574738 2.56367493 119.04859924 C4.1330018 118.91118665 5.70252434 118.77599372 7.2722168 118.64282227 C9.66049591 118.43979561 12.04802294 118.22928097 14.43554688 118.01757812 C15.96089849 117.88496718 17.48628807 117.75279207 19.01171875 117.62109375 C19.72132248 117.55860947 20.43092621 117.49612518 21.16203308 117.43174744 C25.12030696 117.09946004 29.02825144 116.93834736 33 117 C33.16798096 116.43619629 33.33596191 115.87239258 33.5090332 115.29150391 C41.36112808 89.01971408 49.51634994 62.83766591 59.18408203 37.16992188 C59.98199051 35.04789597 60.77154664 32.92295026 61.55859375 30.796875 C62.7757274 27.51433806 64.00779664 24.23783662 65.25292969 20.96582031 C65.76938007 19.60684694 66.28286266 18.24674335 66.79394531 16.88574219 C67.5817316 14.79482211 68.38282248 12.70946923 69.1875 10.625 C69.88939453 8.78808594 69.88939453 8.78808594 70.60546875 6.9140625 C72 4 72 4 75 2 C77.1875 2.375 77.1875 2.375 79 3 C80.50911633 8.59803198 79.28701148 12.17858335 77.32421875 17.3984375 C77.03899857 18.19222809 76.75377838 18.98601868 76.45991516 19.80386353 C75.54879399 22.33252171 74.61908427 24.85381721 73.6875 27.375 C72.77014812 29.89017167 71.85681935 32.40672768 70.94721985 34.92471313 C70.38152445 36.48716081 69.81085686 38.0478208 69.23429871 39.60629272 C67.49941857 44.3547803 66.15019176 49.07596964 65 54 C64.34 54 63.68 54 63 54 C62.96986816 54.66427002 62.93973633 55.32854004 62.90869141 56.01293945 C62.43664428 63.23855089 60.82224687 69.4005523 58.375 76.1875 C57.64469996 78.29297815 56.9182452 80.39979335 56.1953125 82.5078125 C55.82825195 83.57805664 55.46119141 84.64830078 55.08300781 85.75097656 C53.33900785 90.98297644 51.78176763 96.26508432 50.25 101.5625 C49.9600415 102.561604 49.67008301 103.56070801 49.37133789 104.59008789 C48.12650079 108.92235147 46.91623968 113.25742856 45.81640625 117.62890625 C45.64270508 118.31460693 45.46900391 119.00030762 45.29003906 119.70678711 C44.85352899 121.46019184 44.43555762 123.21818505 44.01953125 124.9765625 C43 128 43 128 41.0546875 130.78515625 C38.38090063 134.96866688 37.44894477 139.01754489 36.3125 143.8125 C35.80562038 145.8508175 35.29635239 147.88854202 34.78515625 149.92578125 C34.3677417 151.59954834 34.3677417 151.59954834 33.94189453 153.30712891 C32.32260331 159.65585856 30.58729097 165.97283653 28.85531616 172.29159546 C28.25934292 174.46591378 27.66523516 176.64073436 27.0715332 178.81567383 C26.05219729 182.54504395 25.03193606 186.2740902 24 190 C23.65678711 191.26263672 23.31357422 192.52527344 22.95996094 193.82617188 C21.62114594 198.25256937 21.62114594 198.25256937 19 200 C16.5 200.875 16.5 200.875 14 201 C11.64217067 199.48425257 11.09742905 198.33652218 10.3203125 195.65234375 C9.95656787 192.64036079 10.35926464 191.40738171 11.625 188.6875 C17.29418586 175.44658794 20.76592846 161.17776878 24.87768555 147.38378906 C25.2519165 146.13049805 25.62614746 144.87720703 26.01171875 143.5859375 C26.34647217 142.4623584 26.68122559 141.3387793 27.02612305 140.18115234 C27.96856602 137.10267856 28.97665698 134.05235455 30 131 C22.26304175 131.89297886 14.52634599 132.78819562 6.78997517 133.68624783 C3.19743003 134.10320631 -0.39520006 134.51940166 -3.98803711 134.93383789 C-7.45713435 135.33402936 -10.92599151 135.73624513 -14.39469337 136.13984871 C-16.35815654 136.36777809 -18.321861 136.59362583 -20.28556824 136.81944275 C-21.4864357 136.95951248 -22.68730316 137.09958221 -23.92456055 137.24389648 C-24.97935104 137.36603012 -26.03414154 137.48816376 -27.12089539 137.61399841 C-28.54605217 137.8050692 -28.54605217 137.8050692 -30 138 C-30.91760605 138.11871964 -31.8352121 138.23743927 -32.78062439 138.35975647 C-33.51301834 138.57103683 -34.24541229 138.7823172 -35 139 C-36.26957929 141.40230834 -37.11137701 143.44393324 -37.9296875 146 C-38.17741913 146.71478516 -38.42515076 147.42957031 -38.6803894 148.16601562 C-39.20399572 149.67826697 -39.71949065 151.19334779 -40.22741699 152.7109375 C-41.44854567 156.32898222 -42.76497136 159.91168904 -44.0703125 163.5 C-44.58014638 164.91510564 -45.08925987 166.33047103 -45.59765625 167.74609375 C-45.84918457 168.44589355 -46.10071289 169.14569336 -46.35986328 169.86669922 C-46.87491438 171.30272873 -47.3885604 172.73926287 -47.90087891 174.17626953 C-55.80891113 196.33570197 -55.80891113 196.33570197 -61 200 C-64.125 200.4375 -64.125 200.4375 -67 200 C-69.53331105 196.20003342 -69.36777544 194.53135664 -69 190 C-68.17329017 186.80299813 -67.06254057 183.7277248 -65.9375 180.625 C-63.13883276 172.61310107 -60.7091946 164.56837247 -58.5 156.375 C-56.18145074 147.81501067 -53.47947775 139.5527418 -50.28222656 131.28369141 C-48.38773617 126.3076565 -47.14105286 121.53516536 -46.3984375 116.24609375 C-45.79927598 112.86846752 -44.50134432 110.07093156 -43 107 C-42.34 107 -41.68 107 -41 107 C-41.061875 105.7625 -41.12375 104.525 -41.1875 103.25 C-41.3262391 100.47521803 -41.29690548 99.38266019 -39.56640625 97.15234375 C-37.46386631 94.26331754 -37.27510201 91.84193567 -36.75 88.3125 C-32.30040162 62.02747549 -23.25077303 34.57336241 -12.5625 10.125 C-12.25707275 9.41867432 -11.95164551 8.71234863 -11.63696289 7.98461914 C-9.13683243 2.56478974 -6.34892689 -1.11106221 0 0 Z " fill="#4E4E4E" transform="translate(827,53)"/>
<path d="M0 0 C2.375 1.375 2.375 1.375 4 4 C4.2024971 11.35476485 1.92261903 18.33584568 -0.3125 25.25 C-0.94880179 27.27576386 -1.5842211 29.30180512 -2.21875 31.328125 C-2.67894531 32.78508789 -2.67894531 32.78508789 -3.1484375 34.27148438 C-5.19159927 40.81803711 -7.00927845 47.43156775 -8.84375 54.0390625 C-10.15010572 58.60537806 -11.59729388 63.12792769 -13.02099609 67.65869141 C-17.63641303 82.36272585 -21.94729749 97.12965913 -26 112 C-26.28391602 113.03995117 -26.56783203 114.07990234 -26.86035156 115.15136719 C-27.57426729 117.76738819 -28.28747807 120.38359909 -29 123 C-25.52015976 122.69471967 -22.04128417 122.37957083 -18.5625 122.0625 C-17.56927734 121.97548828 -16.57605469 121.88847656 -15.55273438 121.79882812 C-14.60849609 121.71181641 -13.66425781 121.62480469 -12.69140625 121.53515625 C-11.81685791 121.456604 -10.94230957 121.37805176 -10.04125977 121.29711914 C-8.00985544 121.20914952 -8.00985544 121.20914952 -7 120 C-4.55530711 119.6971463 -2.12916208 119.45218852 0.32421875 119.24609375 C1.06323929 119.18092056 1.80225983 119.11574738 2.56367493 119.04859924 C4.1330018 118.91118665 5.70252434 118.77599372 7.2722168 118.64282227 C9.66049591 118.43979561 12.04802294 118.22928097 14.43554688 118.01757812 C15.96089849 117.88496718 17.48628807 117.75279207 19.01171875 117.62109375 C19.72132248 117.55860947 20.43092621 117.49612518 21.16203308 117.43174744 C25.12030696 117.09946004 29.02825144 116.93834736 33 117 C33.16798096 116.43619629 33.33596191 115.87239258 33.5090332 115.29150391 C41.36112808 89.01971408 49.51634994 62.83766591 59.18408203 37.16992188 C59.98199051 35.04789597 60.77154664 32.92295026 61.55859375 30.796875 C62.7757274 27.51433806 64.00779664 24.23783662 65.25292969 20.96582031 C65.76938007 19.60684694 66.28286266 18.24674335 66.79394531 16.88574219 C67.5817316 14.79482211 68.38282248 12.70946923 69.1875 10.625 C69.88939453 8.78808594 69.88939453 8.78808594 70.60546875 6.9140625 C72 4 72 4 75 2 C77.1875 2.375 77.1875 2.375 79 3 C80.50911633 8.59803198 79.28701148 12.17858335 77.32421875 17.3984375 C77.03899857 18.19222809 76.75377838 18.98601868 76.45991516 19.80386353 C75.54879399 22.33252171 74.61908427 24.85381721 73.6875 27.375 C72.77014812 29.89017167 71.85681935 32.40672768 70.94721985 34.92471313 C70.38152445 36.48716081 69.81085686 38.0478208 69.23429871 39.60629272 C67.49941857 44.3547803 66.15019176 49.07596964 65 54 C64.34 54 63.68 54 63 54 C62.96986816 54.66427002 62.93973633 55.32854004 62.90869141 56.01293945 C62.43664428 63.23855089 60.82224687 69.4005523 58.375 76.1875 C57.64469996 78.29297815 56.9182452 80.39979335 56.1953125 82.5078125 C55.82825195 83.57805664 55.46119141 84.64830078 55.08300781 85.75097656 C53.33900785 90.98297644 51.78176763 96.26508432 50.25 101.5625 C49.9600415 102.561604 49.67008301 103.56070801 49.37133789 104.59008789 C48.12650079 108.92235147 46.91623968 113.25742856 45.81640625 117.62890625 C45.64270508 118.31460693 45.46900391 119.00030762 45.29003906 119.70678711 C44.85352899 121.46019184 44.43555762 123.21818505 44.01953125 124.9765625 C43 128 43 128 41.0546875 130.78515625 C38.38090063 134.96866688 37.44894477 139.01754489 36.3125 143.8125 C35.80562038 145.8508175 35.29635239 147.88854202 34.78515625 149.92578125 C34.3677417 151.59954834 34.3677417 151.59954834 33.94189453 153.30712891 C32.32260331 159.65585856 30.58729097 165.97283653 28.85531616 172.29159546 C28.25934292 174.46591378 27.66523516 176.64073436 27.0715332 178.81567383 C26.05219729 182.54504395 25.03193606 186.2740902 24 190 C23.65678711 191.26263672 23.31357422 192.52527344 22.95996094 193.82617188 C21.62114594 198.25256937 21.62114594 198.25256937 19 200 C16.5 200.875 16.5 200.875 14 201 C11.64217067 199.48425257 11.09742905 198.33652218 10.3203125 195.65234375 C9.95656787 192.64036079 10.35926464 191.40738171 11.625 188.6875 C17.29418586 175.44658794 20.76592846 161.17776878 24.87768555 147.38378906 C25.2519165 146.13049805 25.62614746 144.87720703 26.01171875 143.5859375 C26.34647217 142.4623584 26.68122559 141.3387793 27.02612305 140.18115234 C27.96856602 137.10267856 28.97665698 134.05235455 30 131 C22.26304175 131.89297886 14.52634599 132.78819562 6.78997517 133.68624783 C3.19743003 134.10320631 -0.39520006 134.51940166 -3.98803711 134.93383789 C-7.45713435 135.33402936 -10.92599151 135.73624513 -14.39469337 136.13984871 C-16.35815654 136.36777809 -18.321861 136.59362583 -20.28556824 136.81944275 C-21.4864357 136.95951248 -22.68730316 137.09958221 -23.92456055 137.24389648 C-24.97935104 137.36603012 -26.03414154 137.48816376 -27.12089539 137.61399841 C-28.54605217 137.8050692 -28.54605217 137.8050692 -30 138 C-30.91760605 138.11871964 -31.8352121 138.23743927 -32.78062439 138.35975647 C-33.51301834 138.57103683 -34.24541229 138.7823172 -35 139 C-36.26957929 141.40230834 -37.11137701 143.44393324 -37.9296875 146 C-38.17741913 146.71478516 -38.42515076 147.42957031 -38.6803894 148.16601562 C-39.20399572 149.67826697 -39.71949065 151.19334779 -40.22741699 152.7109375 C-41.44854567 156.32898222 -42.76497136 159.91168904 -44.0703125 163.5 C-44.58014638 164.91510564 -45.08925987 166.33047103 -45.59765625 167.74609375 C-45.84918457 168.44589355 -46.10071289 169.14569336 -46.35986328 169.86669922 C-46.87491438 171.30272873 -47.3885604 172.73926287 -47.90087891 174.17626953 C-55.80891113 196.33570197 -55.80891113 196.33570197 -61 200 C-64.125 200.4375 -64.125 200.4375 -67 200 C-69.53331105 196.20003342 -69.36777544 194.53135664 -69 190 C-68.17329017 186.80299813 -67.06254057 183.7277248 -65.9375 180.625 C-63.13883276 172.61310107 -60.7091946 164.56837247 -58.5 156.375 C-56.18145074 147.81501067 -53.47947775 139.5527418 -50.28222656 131.28369141 C-48.38773617 126.3076565 -47.14105286 121.53516536 -46.3984375 116.24609375 C-45.79927598 112.86846752 -44.50134432 110.07093156 -43 107 C-42.34 107 -41.68 107 -41 107 C-41.061875 105.7625 -41.12375 104.525 -41.1875 103.25 C-41.3262391 100.47521803 -41.29690548 99.38266019 -39.56640625 97.15234375 C-37.46386631 94.26331754 -37.27510201 91.84193567 -36.75 88.3125 C-32.30040162 62.02747549 -23.25077303 34.57336241 -12.5625 10.125 C-12.25707275 9.41867432 -11.95164551 8.71234863 -11.63696289 7.98461914 C-9.13683243 2.56478974 -6.34892689 -1.11106221 0 0 Z " fill="#4C4C4C" transform="translate(179,53)"/>
<path d="M0 0 C8.51633435 8.05107143 11.43547495 20.38822983 11.83203125 31.84375 C12.03634692 42.24245492 11.25492335 52.27680728 9.64453125 62.5546875 C9.52674316 63.34423828 9.40895508 64.13378906 9.28759766 64.94726562 C8.91748858 67.42240033 8.53398614 69.89502786 8.14453125 72.3671875 C8.0261792 73.13877197 7.90782715 73.91035645 7.78588867 74.70532227 C7.19857592 78.26304393 6.67293506 80.51208179 4.64453125 83.5546875 C4.21777015 85.46049732 3.85277512 87.38032147 3.51953125 89.3046875 C1.30314614 100.06683611 -2.56542226 110.26245117 -6.35546875 120.5546875 C-6.75217773 121.63492188 -7.14888672 122.71515625 -7.55761719 123.828125 C-13.75167244 140.58213285 -20.32361489 157.10333213 -29.35546875 172.5546875 C-30.01546875 172.5546875 -30.67546875 172.5546875 -31.35546875 172.5546875 C-31.35546875 173.5446875 -31.35546875 174.5346875 -31.35546875 175.5546875 C-32.01546875 175.5546875 -32.67546875 175.5546875 -33.35546875 175.5546875 C-33.68546875 176.8746875 -34.01546875 178.1946875 -34.35546875 179.5546875 C-35.01546875 179.5546875 -35.67546875 179.5546875 -36.35546875 179.5546875 C-36.68546875 180.8746875 -37.01546875 182.1946875 -37.35546875 183.5546875 C-38.01546875 183.5546875 -38.67546875 183.5546875 -39.35546875 183.5546875 C-39.35546875 184.2146875 -39.35546875 184.8746875 -39.35546875 185.5546875 C-40.01546875 185.5546875 -40.67546875 185.5546875 -41.35546875 185.5546875 C-41.62359375 186.1940625 -41.89171875 186.8334375 -42.16796875 187.4921875 C-43.35546875 189.5546875 -43.35546875 189.5546875 -46.35546875 190.5546875 C-46.68546875 191.5446875 -47.01546875 192.5346875 -47.35546875 193.5546875 C-55.18698697 197.87502689 -63.6096604 198.93678735 -72.24609375 196.859375 C-79.27578225 194.5737659 -84.85358275 191.68945707 -88.75 185.25 C-94.69351529 173.14749455 -96.76250251 160.32702954 -97.9609375 147.0625 C-97.96580639 143.73646826 -97.96580639 143.73646826 -99.35546875 142.5546875 C-99.45603017 140.34825155 -99.48511869 138.13840899 -99.48046875 135.9296875 C-99.48433594 134.11597656 -99.48433594 134.11597656 -99.48828125 132.265625 C-99.35767259 128.61626534 -98.90918798 125.1617728 -98.35546875 121.5546875 C-98.20474519 120.19351732 -98.06182974 118.83146518 -97.92578125 117.46875 C-96.54812286 104.0164123 -96.54812286 104.0164123 -94.06640625 97.56640625 C-93.28696799 95.36085294 -92.87889309 93.23378296 -92.48046875 90.9296875 C-90.21954911 78.9579327 -85.34255902 67.60451497 -80.35546875 56.5546875 C-79.94941406 55.64203125 -79.94941406 55.64203125 -79.53515625 54.7109375 C-69.13328572 31.37963911 -69.13328572 31.37963911 -62.35546875 23.5546875 C-61.69546875 23.5546875 -61.03546875 23.5546875 -60.35546875 23.5546875 C-60.35546875 22.8946875 -60.35546875 22.2346875 -60.35546875 21.5546875 C-59.69546875 21.5546875 -59.03546875 21.5546875 -58.35546875 21.5546875 C-58.35546875 20.5646875 -58.35546875 19.5746875 -58.35546875 18.5546875 C-57.69546875 18.5546875 -57.03546875 18.5546875 -56.35546875 18.5546875 C-55.86046875 17.0696875 -55.86046875 17.0696875 -55.35546875 15.5546875 C-53.73833996 13.78595288 -52.10996319 12.17999114 -50.35546875 10.5546875 C-49.67871094 9.90757813 -49.00195312 9.26046875 -48.3046875 8.59375 C-43.6018482 4.22392695 -39.24041272 1.07357906 -33.35546875 -1.4453125 C-32.61167969 -1.80496094 -31.86789062 -2.16460937 -31.1015625 -2.53515625 C-20.40439612 -7.62128781 -9.37304081 -7.97949299 0 0 Z M-28.35546875 10.5546875 C-29.90234375 11.39 -29.90234375 11.39 -31.48046875 12.2421875 C-32.09921875 12.6753125 -32.71796875 13.1084375 -33.35546875 13.5546875 C-33.35546875 14.2146875 -33.35546875 14.8746875 -33.35546875 15.5546875 C-34.40734375 15.833125 -34.40734375 15.833125 -35.48046875 16.1171875 C-39.48186799 18.11788712 -41.62983372 21.07950284 -44.35546875 24.5546875 C-45.03609375 25.3796875 -45.71671875 26.2046875 -46.41796875 27.0546875 C-53.24997335 35.04504954 -53.24997335 35.04504954 -56.35546875 44.5546875 C-57.01546875 44.5546875 -57.67546875 44.5546875 -58.35546875 44.5546875 C-59.7740009 47.5329693 -61.18993997 50.51247722 -62.60546875 53.4921875 C-63.00121094 54.32298828 -63.39695312 55.15378906 -63.8046875 56.00976562 C-64.99673129 58.52087426 -66.17926887 61.03612032 -67.35546875 63.5546875 C-67.73131104 64.35825684 -68.10715332 65.16182617 -68.49438477 65.98974609 C-70.35822252 70.06334989 -71.86988823 73.89936528 -72.79296875 78.3046875 C-73.82189855 82.73527048 -75.16351954 86.83239036 -76.85546875 91.0546875 C-83.38976604 107.59646713 -84.609597 124.9556659 -85.35546875 142.5546875 C-85.40960938 143.47121094 -85.46375 144.38773438 -85.51953125 145.33203125 C-85.7407509 151.69712405 -84.92903155 157.94269266 -84.10546875 164.2421875 C-83.9962207 165.13389648 -83.88697266 166.02560547 -83.77441406 166.94433594 C-82.7645091 174.06138275 -80.96663397 179.73829692 -76.01953125 185.07421875 C-72.5805062 186.98534851 -70.59843596 186.75347052 -66.73046875 186.2421875 C-60.59027308 185.47641939 -60.59027308 185.47641939 -57.35546875 186.5546875 C-53.42181082 185.3254194 -52.30508618 183.03009248 -50.35546875 179.5546875 C-49.35546875 178.5546875 -48.35546875 177.5546875 -47.35546875 176.5546875 C-47.35546875 175.8946875 -47.35546875 175.2346875 -47.35546875 174.5546875 C-46.69546875 174.5546875 -46.03546875 174.5546875 -45.35546875 174.5546875 C-45.35546875 173.5646875 -45.35546875 172.5746875 -45.35546875 171.5546875 C-44.69546875 171.5546875 -44.03546875 171.5546875 -43.35546875 171.5546875 C-19.20653749 128.12858724 7.49594683 62.79562995 -4.40625 12.1640625 C-5.4056285 9.41679979 -6.28357747 7.62176043 -8.35546875 5.5546875 C-15.79883928 3.57434121 -22.08971359 6.85068356 -28.35546875 10.5546875 Z " fill="#4D4D4D" transform="translate(353.35546875,55.4453125)"/>
<path d="M0 0 C8.51633435 8.05107143 11.43547495 20.38822983 11.83203125 31.84375 C12.03634692 42.24245492 11.25492335 52.27680728 9.64453125 62.5546875 C9.52674316 63.34423828 9.40895508 64.13378906 9.28759766 64.94726562 C8.91748858 67.42240033 8.53398614 69.89502786 8.14453125 72.3671875 C8.0261792 73.13877197 7.90782715 73.91035645 7.78588867 74.70532227 C7.19857592 78.26304393 6.67293506 80.51208179 4.64453125 83.5546875 C4.21777015 85.46049732 3.85277512 87.38032147 3.51953125 89.3046875 C1.30314614 100.06683611 -2.56542226 110.26245117 -6.35546875 120.5546875 C-6.75217773 121.63492188 -7.14888672 122.71515625 -7.55761719 123.828125 C-13.75167244 140.58213285 -20.32361489 157.10333213 -29.35546875 172.5546875 C-30.01546875 172.5546875 -30.67546875 172.5546875 -31.35546875 172.5546875 C-31.35546875 173.5446875 -31.35546875 174.5346875 -31.35546875 175.5546875 C-32.01546875 175.5546875 -32.67546875 175.5546875 -33.35546875 175.5546875 C-33.68546875 176.8746875 -34.01546875 178.1946875 -34.35546875 179.5546875 C-35.01546875 179.5546875 -35.67546875 179.5546875 -36.35546875 179.5546875 C-36.68546875 180.8746875 -37.01546875 182.1946875 -37.35546875 183.5546875 C-38.01546875 183.5546875 -38.67546875 183.5546875 -39.35546875 183.5546875 C-39.35546875 184.2146875 -39.35546875 184.8746875 -39.35546875 185.5546875 C-40.01546875 185.5546875 -40.67546875 185.5546875 -41.35546875 185.5546875 C-41.62359375 186.1940625 -41.89171875 186.8334375 -42.16796875 187.4921875 C-43.35546875 189.5546875 -43.35546875 189.5546875 -46.35546875 190.5546875 C-46.68546875 191.5446875 -47.01546875 192.5346875 -47.35546875 193.5546875 C-55.18698697 197.87502689 -63.6096604 198.93678735 -72.24609375 196.859375 C-79.27578225 194.5737659 -84.85358275 191.68945707 -88.75 185.25 C-94.69351529 173.14749455 -96.76250251 160.32702954 -97.9609375 147.0625 C-97.96580639 143.73646826 -97.96580639 143.73646826 -99.35546875 142.5546875 C-99.45603017 140.34825155 -99.48511869 138.13840899 -99.48046875 135.9296875 C-99.48433594 134.11597656 -99.48433594 134.11597656 -99.48828125 132.265625 C-99.35767259 128.61626534 -98.90918798 125.1617728 -98.35546875 121.5546875 C-98.20474519 120.19351732 -98.06182974 118.83146518 -97.92578125 117.46875 C-96.54812286 104.0164123 -96.54812286 104.0164123 -94.06640625 97.56640625 C-93.28696799 95.36085294 -92.87889309 93.23378296 -92.48046875 90.9296875 C-90.21954911 78.9579327 -85.34255902 67.60451497 -80.35546875 56.5546875 C-79.94941406 55.64203125 -79.94941406 55.64203125 -79.53515625 54.7109375 C-69.13328572 31.37963911 -69.13328572 31.37963911 -62.35546875 23.5546875 C-61.69546875 23.5546875 -61.03546875 23.5546875 -60.35546875 23.5546875 C-60.35546875 22.8946875 -60.35546875 22.2346875 -60.35546875 21.5546875 C-59.69546875 21.5546875 -59.03546875 21.5546875 -58.35546875 21.5546875 C-58.35546875 20.5646875 -58.35546875 19.5746875 -58.35546875 18.5546875 C-57.69546875 18.5546875 -57.03546875 18.5546875 -56.35546875 18.5546875 C-55.86046875 17.0696875 -55.86046875 17.0696875 -55.35546875 15.5546875 C-53.73833996 13.78595288 -52.10996319 12.17999114 -50.35546875 10.5546875 C-49.67871094 9.90757813 -49.00195312 9.26046875 -48.3046875 8.59375 C-43.6018482 4.22392695 -39.24041272 1.07357906 -33.35546875 -1.4453125 C-32.61167969 -1.80496094 -31.86789062 -2.16460937 -31.1015625 -2.53515625 C-20.40439612 -7.62128781 -9.37304081 -7.97949299 0 0 Z M-28.35546875 10.5546875 C-29.90234375 11.39 -29.90234375 11.39 -31.48046875 12.2421875 C-32.09921875 12.6753125 -32.71796875 13.1084375 -33.35546875 13.5546875 C-33.35546875 14.2146875 -33.35546875 14.8746875 -33.35546875 15.5546875 C-34.40734375 15.833125 -34.40734375 15.833125 -35.48046875 16.1171875 C-39.48186799 18.11788712 -41.62983372 21.07950284 -44.35546875 24.5546875 C-45.03609375 25.3796875 -45.71671875 26.2046875 -46.41796875 27.0546875 C-53.24997335 35.04504954 -53.24997335 35.04504954 -56.35546875 44.5546875 C-57.01546875 44.5546875 -57.67546875 44.5546875 -58.35546875 44.5546875 C-59.7740009 47.5329693 -61.18993997 50.51247722 -62.60546875 53.4921875 C-63.00121094 54.32298828 -63.39695312 55.15378906 -63.8046875 56.00976562 C-64.99673129 58.52087426 -66.17926887 61.03612032 -67.35546875 63.5546875 C-67.73131104 64.35825684 -68.10715332 65.16182617 -68.49438477 65.98974609 C-70.35822252 70.06334989 -71.86988823 73.89936528 -72.79296875 78.3046875 C-73.82189855 82.73527048 -75.16351954 86.83239036 -76.85546875 91.0546875 C-83.38976604 107.59646713 -84.609597 124.9556659 -85.35546875 142.5546875 C-85.40960937 143.47121094 -85.46375 144.38773438 -85.51953125 145.33203125 C-85.7407509 151.69712405 -84.92903155 157.94269266 -84.10546875 164.2421875 C-83.9962207 165.13389648 -83.88697266 166.02560547 -83.77441406 166.94433594 C-82.7645091 174.06138275 -80.96663397 179.73829692 -76.01953125 185.07421875 C-72.5805062 186.98534851 -70.59843596 186.75347052 -66.73046875 186.2421875 C-60.59027308 185.47641939 -60.59027308 185.47641939 -57.35546875 186.5546875 C-53.42181082 185.3254194 -52.30508618 183.03009248 -50.35546875 179.5546875 C-49.35546875 178.5546875 -48.35546875 177.5546875 -47.35546875 176.5546875 C-47.35546875 175.8946875 -47.35546875 175.2346875 -47.35546875 174.5546875 C-46.69546875 174.5546875 -46.03546875 174.5546875 -45.35546875 174.5546875 C-45.35546875 173.5646875 -45.35546875 172.5746875 -45.35546875 171.5546875 C-44.69546875 171.5546875 -44.03546875 171.5546875 -43.35546875 171.5546875 C-19.20653749 128.12858724 7.49594683 62.79562995 -4.40625 12.1640625 C-5.4056285 9.41679979 -6.28357747 7.62176043 -8.35546875 5.5546875 C-15.79883928 3.57434121 -22.08971359 6.85068356 -28.35546875 10.5546875 Z " fill="#4D4D4D" transform="translate(1002.35546875,55.4453125)"/>
<path d="M0 0 C2.51376634 0.41531792 4.32267807 0.61256192 6.82910156 0.08935547 C21.87076427 -2.80988606 43.12856766 -2.74077532 56.6015625 5.3984375 C62.83505323 10.08702851 67.31095029 14.69239462 68.5625 22.5625 C69.90531926 37.58289254 65.2777502 48.87576071 56.84375 60.91796875 C54.55719135 63.56865403 52.63950665 64.95429102 49.5625 66.5625 C45.62512682 69.00264418 45.62512682 69.00264418 42.16796875 72.0390625 C34.11469174 79.6808582 16.48360146 83.5711746 5.5625 84.5625 C4.9025 83.9025 4.2425 83.2425 3.5625 82.5625 C1.19536728 82.62343684 1.19536728 82.62343684 -1.5625 83.0625 C-6.86604798 83.63911836 -11.62634344 83.33346489 -16.8671875 82.59375 C-17.59929443 82.49610352 -18.33140137 82.39845703 -19.08569336 82.29785156 C-20.87046663 82.05891049 -22.65411355 81.8115808 -24.4375 81.5625 C-31.79476105 103.90374118 -38.07749141 126.50147847 -44.17016602 149.21704102 C-47.06828143 160.00311377 -49.9895334 170.74865283 -53.44384766 181.37158203 C-54.69232929 185.38083386 -55.66835372 189.42336317 -56.56640625 193.5234375 C-57.4375 195.5625 -57.4375 195.5625 -59.35546875 196.84375 C-61.8153681 197.69294602 -63.85298856 197.70608397 -66.4375 197.5625 C-69.48537247 191.64604168 -67.78135672 186.69018254 -66.04296875 180.6015625 C-64.35850332 174.47614134 -63.12388696 168.30059919 -61.9375 162.0625 C-57.71022727 139.83522727 -57.71022727 139.83522727 -55.4375 137.5625 C-55.3402905 136.08603433 -55.27392603 134.60753946 -55.21875 133.12890625 C-54.50983533 124.5679308 -51.58731634 116.61786253 -48.9375 108.5 C-48.41956853 106.88118038 -47.90263375 105.26204152 -47.38671875 103.64257812 C-43.66312382 92.01374763 -43.66312382 92.01374763 -42.4375 89.5625 C-41.7775 89.5625 -41.1175 89.5625 -40.4375 89.5625 C-40.54952759 87.92220825 -40.54952759 87.92220825 -40.66381836 86.2487793 C-40.65201948 80.62009898 -38.75229057 75.80725201 -36.81640625 70.58203125 C-36.4382225 69.53335373 -36.06003876 68.48467621 -35.6703949 67.40422058 C-34.86678681 65.18403346 -34.05700028 62.96607419 -33.24145508 60.75024414 C-32.02226115 57.43552318 -30.8229333 54.11417261 -29.62695312 50.79101562 C-25.87312092 40.43071727 -21.96790874 30.1522801 -17.65234375 20.01171875 C-17.30200577 19.18509232 -16.95166779 18.35846588 -16.5907135 17.50679016 C-14.83735963 13.46614875 -12.96361713 9.50143448 -10.92407227 5.59692383 C-10.54444839 4.87007889 -10.16482452 4.14323395 -9.7736969 3.3943634 C-7.10328803 -0.26664216 -4.27301744 -0.71834089 0 0 Z M-0.4375 6.5625 C-1.40458793 8.50027359 -1.40458793 8.50027359 -1.859375 10.83203125 C-2.07609863 11.71068848 -2.29282227 12.5893457 -2.51611328 13.49462891 C-2.84844971 14.9204126 -2.84844971 14.9204126 -3.1875 16.375 C-5.19411419 24.35809182 -7.55136475 32.02520502 -10.5625 39.6875 C-10.90659912 40.5635791 -11.25069824 41.4396582 -11.60522461 42.34228516 C-12.2602183 44.00570581 -12.9160162 45.6688101 -13.57275391 47.33154297 C-16.64286466 55.25211668 -19.05759419 63.41312555 -21.4375 71.5625 C-7.25915461 76.28861513 13.00289176 68.83629403 25.75 62.6875 C27.69787799 61.66537132 29.63615984 60.62466256 31.5625 59.5625 C32.366875 59.12292969 33.17125 58.68335938 34 58.23046875 C43.63130493 52.42827637 50.47096386 43.3460725 53.5625 32.5625 C54.92710343 26.58423736 55.84071411 20.44105534 53.0625 14.75 C49.24202535 8.9180387 42.02435802 7.06257418 35.5625 5.5625 C28.80000369 4.50681619 22.14974397 4.37915891 15.3125 4.375 C13.69988281 4.35663086 13.69988281 4.35663086 12.0546875 4.33789062 C10.50394531 4.33499023 10.50394531 4.33499023 8.921875 4.33203125 C7.98827148 4.32792236 7.05466797 4.32381348 6.09277344 4.31958008 C3.36196087 4.58175284 1.79513667 4.96820349 -0.4375 6.5625 Z " fill="#4D4D4D" transform="translate(431.4375,53.4375)"/>
<path d="M0 0 C2.51376634 0.41531792 4.32267807 0.61256192 6.82910156 0.08935547 C21.87076427 -2.80988606 43.12856766 -2.74077532 56.6015625 5.3984375 C61.63981556 9.18801689 66.90106712 13.46358324 67.95654297 20.00439453 C68.13852839 22.91152146 68.16843496 25.77500957 68.125 28.6875 C68.11331787 29.7185083 68.10163574 30.7495166 68.08959961 31.81176758 C67.86288168 39.63199189 66.81131467 45.86168247 62.5625 52.5625 C61.58023437 54.13064453 61.58023437 54.13064453 60.578125 55.73046875 C56.37916711 61.84278157 52.35410229 66.00201693 45.7265625 69.37890625 C43.54219232 70.44190427 43.54219232 70.44190427 42.05859375 72.06640625 C34.36353417 79.76146583 16.2392402 83.59335565 5.5625 84.5625 C4.9025 83.9025 4.2425 83.2425 3.5625 82.5625 C1.19536728 82.62343684 1.19536728 82.62343684 -1.5625 83.0625 C-6.86604798 83.63911836 -11.62634344 83.33346489 -16.8671875 82.59375 C-17.59929443 82.49610352 -18.33140137 82.39845703 -19.08569336 82.29785156 C-20.87046663 82.05891049 -22.65411355 81.8115808 -24.4375 81.5625 C-31.79476105 103.90374118 -38.07749141 126.50147847 -44.17016602 149.21704102 C-47.06828143 160.00311377 -49.9895334 170.74865283 -53.44384766 181.37158203 C-54.69232929 185.38083386 -55.66835372 189.42336317 -56.56640625 193.5234375 C-57.4375 195.5625 -57.4375 195.5625 -59.35546875 196.84375 C-61.8153681 197.69294602 -63.85298856 197.70608397 -66.4375 197.5625 C-69.48537247 191.64604168 -67.78135672 186.69018254 -66.04296875 180.6015625 C-64.35850332 174.47614134 -63.12388696 168.30059919 -61.9375 162.0625 C-57.71022727 139.83522727 -57.71022727 139.83522727 -55.4375 137.5625 C-55.3402905 136.08603433 -55.27392603 134.60753946 -55.21875 133.12890625 C-54.50983533 124.5679308 -51.58731634 116.61786253 -48.9375 108.5 C-48.41956853 106.88118038 -47.90263375 105.26204152 -47.38671875 103.64257812 C-43.66312382 92.01374763 -43.66312382 92.01374763 -42.4375 89.5625 C-41.7775 89.5625 -41.1175 89.5625 -40.4375 89.5625 C-40.54952759 87.92220825 -40.54952759 87.92220825 -40.66381836 86.2487793 C-40.65201948 80.62009898 -38.75229057 75.80725201 -36.81640625 70.58203125 C-36.4382225 69.53335373 -36.06003876 68.48467621 -35.6703949 67.40422058 C-34.86678681 65.18403346 -34.05700028 62.96607419 -33.24145508 60.75024414 C-32.02226115 57.43552318 -30.8229333 54.11417261 -29.62695312 50.79101562 C-25.87312092 40.43071727 -21.96790874 30.1522801 -17.65234375 20.01171875 C-17.30200577 19.18509232 -16.95166779 18.35846588 -16.5907135 17.50679016 C-14.83735963 13.46614875 -12.96361713 9.50143448 -10.92407227 5.59692383 C-10.54444839 4.87007889 -10.16482452 4.14323395 -9.7736969 3.3943634 C-7.10328803 -0.26664216 -4.27301744 -0.71834089 0 0 Z M-0.4375 6.5625 C-1.40458793 8.50027359 -1.40458793 8.50027359 -1.859375 10.83203125 C-2.07609863 11.71068848 -2.29282227 12.5893457 -2.51611328 13.49462891 C-2.84844971 14.9204126 -2.84844971 14.9204126 -3.1875 16.375 C-5.19411419 24.35809182 -7.55136475 32.02520502 -10.5625 39.6875 C-10.90659912 40.5635791 -11.25069824 41.4396582 -11.60522461 42.34228516 C-12.2602183 44.00570581 -12.9160162 45.6688101 -13.57275391 47.33154297 C-16.64286466 55.25211668 -19.05759419 63.41312555 -21.4375 71.5625 C-7.25915461 76.28861513 13.00289176 68.83629403 25.75 62.6875 C27.69787799 61.66537132 29.63615984 60.62466256 31.5625 59.5625 C32.366875 59.12292969 33.17125 58.68335938 34 58.23046875 C43.63130493 52.42827637 50.47096386 43.3460725 53.5625 32.5625 C54.92710343 26.58423736 55.84071411 20.44105534 53.0625 14.75 C49.24202535 8.9180387 42.02435802 7.06257418 35.5625 5.5625 C28.80000369 4.50681619 22.14974397 4.37915891 15.3125 4.375 C13.69988281 4.35663086 13.69988281 4.35663086 12.0546875 4.33789062 C10.50394531 4.33499023 10.50394531 4.33499023 8.921875 4.33203125 C7.98827148 4.32792236 7.05466797 4.32381348 6.09277344 4.31958008 C3.36196087 4.58175284 1.79513667 4.96820349 -0.4375 6.5625 Z " fill="#4D4D4D" transform="translate(1080.4375,53.4375)"/>
<path d="M0 0 C9.17703763 7.51134245 11.15310914 14.31859415 12.5703125 25.79296875 C12.91299977 28.87263789 12.91299977 28.87263789 13.6171875 31.30078125 C14 33 14 33 13 35 C10.69 35 8.38 35 6 35 C4.69347926 30.80046905 3.76220322 26.72021581 3.0625 22.375 C2.10990872 16.70177738 2.10990872 16.70177738 -1 12 C-7.57409559 8.33800379 -14.40548646 6.01404561 -22 7 C-25.92426435 8.28268835 -29.68524544 9.68524544 -32.63671875 12.63671875 C-33.08660156 13.08660156 -33.53648437 13.53648438 -34 14 C-34.66 14 -35.32 14 -36 14 C-36.23847656 14.5775 -36.47695313 15.155 -36.72265625 15.75 C-38.26073155 18.45927026 -40.05715661 19.99879176 -42.4375 22 C-44.8018346 23.99429871 -46.821352 25.75787941 -48.66015625 28.25 C-49.10230469 28.8275 -49.54445313 29.405 -50 30 C-50.66 30 -51.32 30 -52 30 C-52.66 31.65 -53.32 33.3 -54 35 C-54.66 35 -55.32 35 -56 35 C-56.33 36.32 -56.66 37.64 -57 39 C-57.66 39 -58.32 39 -59 39 C-59.33 40.32 -59.66 41.64 -60 43 C-60.66 43 -61.32 43 -62 43 C-62 43.99 -62 44.98 -62 46 C-62.66 46 -63.32 46 -64 46 C-64 46.99 -64 47.98 -64 49 C-64.66 49 -65.32 49 -66 49 C-66.66 50.98 -67.32 52.96 -68 55 C-68.66 55 -69.32 55 -70 55 C-70.14115234 55.80824219 -70.14115234 55.80824219 -70.28515625 56.6328125 C-71.21385121 59.70816302 -72.79097537 62.11201902 -74.4375 64.875 C-78.73233859 72.53504121 -81.54452599 80.6980074 -84.3125 89 C-84.73265381 90.24507324 -85.15280762 91.49014648 -85.58569336 92.77294922 C-88.41319472 101.44577134 -90.40701696 110.03306773 -92 119 C-92.21285645 120.19681396 -92.42571289 121.39362793 -92.64501953 122.62670898 C-95.47954108 139.27282587 -96.36139852 159.52421221 -86.52734375 174.046875 C-82.39560574 179.33042745 -77.49783024 181.72122701 -71 183 C-62.73165844 183.4815174 -55.48980184 180.10937075 -48 177 C-47.01 176.67 -46.02 176.34 -45 176 C-45 175.34 -45 174.68 -45 174 C-44.0409375 173.566875 -44.0409375 173.566875 -43.0625 173.125 C-40.84793921 172.17176549 -40.84793921 172.17176549 -40 170 C-39.34 170 -38.68 170 -38 170 C-37.34 168.35 -36.68 166.7 -36 165 C-35.34 165 -34.68 165 -34 165 C-33.67 163.68 -33.34 162.36 -33 161 C-32.34 161 -31.68 161 -31 161 C-30.67 159.68 -30.34 158.36 -30 157 C-27.625 156.375 -27.625 156.375 -25 156 C-23 158 -23 158 -22.8125 161 C-23.81313453 166.90497906 -28.96524368 170.93052116 -33 175 C-33.845625 175.9075 -34.69125 176.815 -35.5625 177.75 C-41.85254431 183.55619475 -47.89838226 187.21274619 -56 190 C-57.17175781 190.45052734 -57.17175781 190.45052734 -58.3671875 190.91015625 C-66.73173372 193.85831598 -76.49785657 194.79414469 -84.875 191.4375 C-92.66609784 187.31024557 -97.77370222 181.61629635 -102 174 C-102.72703125 172.94619141 -102.72703125 172.94619141 -103.46875 171.87109375 C-115.67243289 148.98918834 -109.97131295 118.8590848 -103.1015625 95.34716797 C-102.75867188 94.22197754 -102.41578125 93.09678711 -102.0625 91.9375 C-101.73894531 90.87418457 -101.41539062 89.81086914 -101.08203125 88.71533203 C-99.26252527 83.05374422 -97.08586113 78.0380782 -94.07299805 72.91430664 C-92.77373778 70.59633173 -92.01432666 68.32435537 -91.375 65.75 C-90.43337236 62.00794731 -89.05769675 59.26641372 -87 56 C-86.31365656 54.81950279 -85.63302918 53.63567051 -84.95703125 52.44921875 C-84.60576172 51.83369141 -84.25449219 51.21816406 -83.89257812 50.58398438 C-83.53615234 49.95814453 -83.17972656 49.33230469 -82.8125 48.6875 C-82.44447266 48.04232422 -82.07644531 47.39714844 -81.69726562 46.73242188 C-80.79768217 45.1552301 -79.89877196 43.57765435 -79 42 C-78.34 42 -77.68 42 -77 42 C-76.67 40.68 -76.34 39.36 -76 38 C-75.34 38 -74.68 38 -74 38 C-73.67 36.68 -73.34 35.36 -73 34 C-72.34 34 -71.68 34 -71 34 C-70.67 32.68 -70.34 31.36 -70 30 C-69.34 30 -68.68 30 -68 30 C-67.34 28.35 -66.68 26.7 -66 25 C-65.34 25 -64.68 25 -64 25 C-64 24.34 -64 23.68 -64 23 C-63.34 23 -62.68 23 -62 23 C-61.7525 22.443125 -61.505 21.88625 -61.25 21.3125 C-58.0982088 15.48168627 -53.26423713 10.95387507 -48 7 C-47.34 7 -46.68 7 -46 7 C-46 6.34 -46 5.68 -46 5 C-44.71086513 4.32845067 -43.41859796 3.66291141 -42.125 3 C-41.40570312 2.62875 -40.68640625 2.2575 -39.9453125 1.875 C-38 1 -38 1 -36 1 C-35.67 0.01 -35.34 -0.98 -35 -2 C-25.36267146 -8.4248857 -8.94427926 -6.5192458 0 0 Z " fill="#4C4C4C" transform="translate(764,58)"/>
<path d="M0 0 C9.17703763 7.51134245 11.15310914 14.31859415 12.5703125 25.79296875 C12.91299977 28.87263789 12.91299977 28.87263789 13.6171875 31.30078125 C14 33 14 33 13 35 C10.69 35 8.38 35 6 35 C4.69347926 30.80046905 3.76220322 26.72021581 3.0625 22.375 C2.10990872 16.70177738 2.10990872 16.70177738 -1 12 C-7.57409559 8.33800379 -14.40548646 6.01404561 -22 7 C-25.92426435 8.28268835 -29.68524544 9.68524544 -32.63671875 12.63671875 C-33.08660156 13.08660156 -33.53648438 13.53648438 -34 14 C-34.66 14 -35.32 14 -36 14 C-36.23847656 14.5775 -36.47695312 15.155 -36.72265625 15.75 C-38.26073155 18.45927026 -40.05715661 19.99879176 -42.4375 22 C-44.8018346 23.99429871 -46.821352 25.75787941 -48.66015625 28.25 C-49.10230469 28.8275 -49.54445312 29.405 -50 30 C-50.66 30 -51.32 30 -52 30 C-52.66 31.65 -53.32 33.3 -54 35 C-54.66 35 -55.32 35 -56 35 C-56.33 36.32 -56.66 37.64 -57 39 C-57.66 39 -58.32 39 -59 39 C-59.33 40.32 -59.66 41.64 -60 43 C-60.66 43 -61.32 43 -62 43 C-62 43.99 -62 44.98 -62 46 C-62.66 46 -63.32 46 -64 46 C-64 46.99 -64 47.98 -64 49 C-64.66 49 -65.32 49 -66 49 C-66.66 50.98 -67.32 52.96 -68 55 C-68.66 55 -69.32 55 -70 55 C-70.14115234 55.80824219 -70.14115234 55.80824219 -70.28515625 56.6328125 C-71.21385121 59.70816302 -72.79097537 62.11201902 -74.4375 64.875 C-78.73233859 72.53504121 -81.54452599 80.6980074 -84.3125 89 C-84.73265381 90.24507324 -85.15280762 91.49014648 -85.58569336 92.77294922 C-88.41319472 101.44577134 -90.40701696 110.03306773 -92 119 C-92.21285645 120.19681396 -92.42571289 121.39362793 -92.64501953 122.62670898 C-95.47954108 139.27282587 -96.36139852 159.52421221 -86.52734375 174.046875 C-82.39560574 179.33042745 -77.49783024 181.72122701 -71 183 C-62.73165844 183.4815174 -55.48980184 180.10937075 -48 177 C-47.01 176.67 -46.02 176.34 -45 176 C-45 175.34 -45 174.68 -45 174 C-44.0409375 173.566875 -44.0409375 173.566875 -43.0625 173.125 C-40.84793921 172.17176549 -40.84793921 172.17176549 -40 170 C-39.34 170 -38.68 170 -38 170 C-37.34 168.35 -36.68 166.7 -36 165 C-35.34 165 -34.68 165 -34 165 C-33.67 163.68 -33.34 162.36 -33 161 C-32.34 161 -31.68 161 -31 161 C-30.67 159.68 -30.34 158.36 -30 157 C-27.625 156.375 -27.625 156.375 -25 156 C-23 158 -23 158 -22.8125 161 C-23.81313453 166.90497906 -28.96524368 170.93052116 -33 175 C-33.845625 175.9075 -34.69125 176.815 -35.5625 177.75 C-41.85254431 183.55619475 -47.89838226 187.21274619 -56 190 C-57.17175781 190.45052734 -57.17175781 190.45052734 -58.3671875 190.91015625 C-66.73173372 193.85831598 -76.49785657 194.79414469 -84.875 191.4375 C-92.66609784 187.31024557 -97.77370222 181.61629635 -102 174 C-102.72703125 172.94619141 -102.72703125 172.94619141 -103.46875 171.87109375 C-115.67243289 148.98918834 -109.97131295 118.8590848 -103.1015625 95.34716797 C-102.75867188 94.22197754 -102.41578125 93.09678711 -102.0625 91.9375 C-101.73894531 90.87418457 -101.41539063 89.81086914 -101.08203125 88.71533203 C-99.26252527 83.05374422 -97.08586113 78.0380782 -94.07299805 72.91430664 C-92.77373778 70.59633173 -92.01432666 68.32435537 -91.375 65.75 C-90.43337236 62.00794731 -89.05769675 59.26641372 -87 56 C-86.31365656 54.81950279 -85.63302918 53.63567051 -84.95703125 52.44921875 C-84.60576172 51.83369141 -84.25449219 51.21816406 -83.89257812 50.58398438 C-83.53615234 49.95814453 -83.17972656 49.33230469 -82.8125 48.6875 C-82.44447266 48.04232422 -82.07644531 47.39714844 -81.69726562 46.73242188 C-80.79768217 45.1552301 -79.89877196 43.57765435 -79 42 C-78.34 42 -77.68 42 -77 42 C-76.67 40.68 -76.34 39.36 -76 38 C-75.34 38 -74.68 38 -74 38 C-73.67 36.68 -73.34 35.36 -73 34 C-72.34 34 -71.68 34 -71 34 C-70.67 32.68 -70.34 31.36 -70 30 C-69.34 30 -68.68 30 -68 30 C-67.34 28.35 -66.68 26.7 -66 25 C-65.34 25 -64.68 25 -64 25 C-64 24.34 -64 23.68 -64 23 C-63.34 23 -62.68 23 -62 23 C-61.7525 22.443125 -61.505 21.88625 -61.25 21.3125 C-58.0982088 15.48168627 -53.26423713 10.95387507 -48 7 C-47.34 7 -46.68 7 -46 7 C-46 6.34 -46 5.68 -46 5 C-44.71086513 4.32845067 -43.41859796 3.66291141 -42.125 3 C-41.40570313 2.62875 -40.68640625 2.2575 -39.9453125 1.875 C-38 1 -38 1 -36 1 C-35.67 0.01 -35.34 -0.98 -35 -2 C-25.36267146 -8.4248857 -8.94427926 -6.5192458 0 0 Z " fill="#4C4C4C" transform="translate(115,58)"/>
<path d="M0 0 C1.65 1.32 3.3 2.64 5 4 C3.44035838 8.13016208 0.4439388 10.46876923 -2.875 13.1875 C-3.44710205 13.66292236 -4.0192041 14.13834473 -4.60864258 14.62817383 C-20.83169938 28 -20.83169938 28 -24 28 C-24.20625 28.56203125 -24.4125 29.1240625 -24.625 29.703125 C-26.49341944 32.82423474 -29.10385945 34.65303031 -32 36.75 C-32.5465625 37.16121094 -33.093125 37.57242188 -33.65625 37.99609375 C-37.72799003 41 -37.72799003 41 -40 41 C-40.33 41.99 -40.66 42.98 -41 44 C-41.639375 44.144375 -42.27875 44.28875 -42.9375 44.4375 C-43.618125 44.623125 -44.29875 44.80875 -45 45 C-45.268125 45.5775 -45.53625 46.155 -45.8125 46.75 C-47.62108586 50.17679425 -50.67766062 52.08808772 -54 54 C-54.66 54 -55.32 54 -56 54 C-56.33 54.99 -56.66 55.98 -57 57 C-58.33333333 57.33333333 -59.66666667 57.66666667 -61 58 C-61.33 58.99 -61.66 59.98 -62 61 C-63.77734375 62.60546875 -63.77734375 62.60546875 -65.9375 64.1875 C-67.00291016 64.98220703 -67.00291016 64.98220703 -68.08984375 65.79296875 C-70 67 -70 67 -72 67 C-72.495 68.485 -72.495 68.485 -73 70 C-74.33333333 70.33333333 -75.66666667 70.66666667 -77 71 C-77.495 72.485 -77.495 72.485 -78 74 C-78.9590625 74.2165625 -78.9590625 74.2165625 -79.9375 74.4375 C-80.618125 74.623125 -81.29875 74.80875 -82 75 C-82.33 75.66 -82.66 76.32 -83 77 C-83.33 77.66 -83.66 78.32 -84 79 C-85.32594105 79.36162029 -86.65938457 79.69728039 -88 80 C-88.495 81.485 -88.495 81.485 -89 83 C-90.33333333 83.33333333 -91.66666667 83.66666667 -93 84 C-93.495 85.485 -93.495 85.485 -94 87 C-94.9590625 87.2165625 -94.9590625 87.2165625 -95.9375 87.4375 C-96.618125 87.623125 -97.29875 87.80875 -98 88 C-98.33 88.66 -98.66 89.32 -99 90 C-99.33 90.66 -99.66 91.32 -100 92 C-101.32594105 92.36162029 -102.65938457 92.69728039 -104 93 C-104.495 94.485 -104.495 94.485 -105 96 C-106.33333333 96.33333333 -107.66666667 96.66666667 -109 97 C-109.495 98.485 -109.495 98.485 -110 100 C-110.9590625 100.2165625 -110.9590625 100.2165625 -111.9375 100.4375 C-112.618125 100.623125 -113.29875 100.80875 -114 101 C-114.33 101.66 -114.66 102.32 -115 103 C-115.33 103.66 -115.66 104.32 -116 105 C-117.32594105 105.36162029 -118.65938457 105.69728039 -120 106 C-120.495 107.485 -120.495 107.485 -121 109 C-122.33333333 109.33333333 -123.66666667 109.66666667 -125 110 C-125.495 111.485 -125.495 111.485 -126 113 C-128.0625 113.6875 -128.0625 113.6875 -130 114 C-130 114.66 -130 115.32 -130 116 C-135.34224902 120.47885524 -141.73373883 123.41458477 -147.9609375 126.43359375 C-151.8854115 128.45636248 -155.50332787 130.84615994 -159.19140625 133.265625 C-163.11316243 135.6874049 -167.20923549 137.6677601 -171.37109375 139.640625 C-173.82326757 140.90861384 -175.83477224 142.30133806 -178 144 C-181.90946282 146.61505455 -185.14311926 148.58871282 -190 148 C-189.39254603 143.14036821 -187.27241033 139.2594482 -185 135 C-184.34 135.66 -183.68 136.32 -183 137 C-180.0371669 136.60495559 -177.61673759 135.40182371 -175 134 C-175 133.34 -175 132.68 -175 132 C-172.58205093 130.64594852 -170.53395689 129.8903428 -167.8125 129.25 C-162.91203313 127.9326702 -159.10071544 124.88054022 -155 122 C-152.65008742 120.53783217 -150.37665778 119.17725072 -147.875 118 C-145.95254617 117.10887624 -145.95254617 117.10887624 -144.6875 115.5625 C-141.46231715 112.57621959 -137.11321615 111.37107205 -133 110 C-133 109.34 -133 108.68 -133 108 C-131.00669158 106.65668346 -129.00615134 105.32405988 -127 104 C-126.01 102.515 -126.01 102.515 -125 101 C-124.34 101 -123.68 101 -123 101 C-123 100.34 -123 99.68 -123 99 C-121.34467377 97.98133771 -119.67739862 96.98189187 -118 96 C-117.67 95.34 -117.34 94.68 -117 94 C-116.34 94 -115.68 94 -115 94 C-115 93.34 -115 92.68 -115 92 C-114.278125 91.773125 -113.55625 91.54625 -112.8125 91.3125 C-109.47560763 89.75528356 -107.55051994 87.61945291 -105 85 C-104.34 85 -103.68 85 -103 85 C-103 84.34 -103 83.68 -103 83 C-102.360625 82.896875 -101.72125 82.79375 -101.0625 82.6875 C-100.381875 82.460625 -99.70125 82.23375 -99 82 C-98.505 80.515 -98.505 80.515 -98 79 C-96.43331413 77.06029368 -95.55983071 76.11562966 -93.08984375 75.60546875 C-90.56875149 74.87505884 -89.61865636 73.86830272 -87.875 71.9375 C-86.3671875 70.27734375 -86.3671875 70.27734375 -85 69 C-84.34 69 -83.68 69 -83 69 C-83 68.34 -83 67.68 -83 67 C-81.00715862 65.6559907 -79.00580329 64.32458708 -77 63 C-76.154375 62.154375 -75.30875 61.30875 -74.4375 60.4375 C-71.05544389 57.05544389 -67.27602959 55.05882906 -63 53 C-63 52.34 -63 51.68 -63 51 C-62.4225 50.773125 -61.845 50.54625 -61.25 50.3125 C-58.44661024 48.67718931 -56.99557846 46.52773272 -55 44 C-54.34 44 -53.68 44 -53 44 C-53 43.34 -53 42.68 -53 42 C-51.68 42 -50.36 42 -49 42 C-49 41.34 -49 40.68 -49 40 C-48.34 40 -47.68 40 -47 40 C-47 39.34 -47 38.68 -47 38 C-46.34 38 -45.68 38 -45 38 C-45 37.34 -45 36.68 -45 36 C-44.34 36 -43.68 36 -43 36 C-43 35.34 -43 34.68 -43 34 C-40.36107824 32.21694476 -38.02821137 31.00940379 -35 30 C-35 29.34 -35 28.68 -35 28 C-34.34 28 -33.68 28 -33 28 C-33 27.34 -33 26.68 -33 26 C-32.195625 25.71125 -31.39125 25.4225 -30.5625 25.125 C-27.8673532 24.26737432 -27.8673532 24.26737432 -27 22 C-26.34 22 -25.68 22 -25 22 C-24.79375 21.38125 -24.5875 20.7625 -24.375 20.125 C-22.45224112 17.15346355 -20.33405473 16.86975341 -17 16 C-17 15.34 -17 14.68 -17 14 C-16.34 14 -15.68 14 -15 14 C-15 13.34 -15 12.68 -15 12 C-14.34 12 -13.68 12 -13 12 C-13 11.34 -13 10.68 -13 10 C-12.01 9.67 -11.02 9.34 -10 9 C-9.67 8.34 -9.34 7.68 -9 7 C-8.01 6.67 -7.02 6.34 -6 6 C-4.64172029 4.35360035 -3.30745749 2.68704193 -2 1 C-1.34 0.67 -0.68 0.34 0 0 Z " fill="#D5D4D0" transform="translate(561,186)"/>
<path d="M0 0 C0.61875 0.495 1.2375 0.99 1.875 1.5 C3.83880904 3.19222773 3.83880904 3.19222773 6 3 C5.31751752 8.86266912 3.92481653 14.38109144 2.34765625 20.0625 C2.08746201 21.01261963 1.82726776 21.96273926 1.55918884 22.94165039 C0.73093844 25.96220974 -0.10322844 28.98109881 -0.9375 32 C-1.4945227 34.02854096 -2.05116709 36.05718584 -2.60742188 38.0859375 C-5.13904021 47.30714226 -5.13904021 47.30714226 -6.36740112 51.72167969 C-6.77357621 53.1845292 -7.17527513 54.64863313 -7.57131958 56.11425781 C-9.22831955 62.15221303 -9.22831955 62.15221303 -12 64 C-14.5 64.875 -14.5 64.875 -17 65 C-19.35782933 63.48425257 -19.90257095 62.33652218 -20.6796875 59.65234375 C-21.04343213 56.64036079 -20.64073536 55.40738171 -19.375 52.6875 C-16.35464227 45.63317296 -14.21024517 38.33710254 -12 31 C-11.63616211 29.79279297 -11.27232422 28.58558594 -10.89746094 27.34179688 C-8.25408336 18.56445273 -5.62381275 9.78321104 -3 1 C-2.34 1.33 -1.68 1.66 -1 2 C-0.67 1.34 -0.34 0.68 0 0 Z " fill="#585858" transform="translate(210,189)"/>
<path d="M0 0 C1.67542976 0.28604898 3.34385343 0.61781233 5 1 C6.25889538 4.46196229 6.05731765 5.86191656 4.625 9.3125 C2.12724455 13.3211355 -1.32253334 16.13294611 -4.90625 19.15234375 C-7.14078855 20.99607149 -7.14078855 20.99607149 -9 23.6875 C-11.56408772 26.65222643 -14.42511328 28.09866741 -17.87890625 29.88671875 C-20.19989169 31.05780848 -20.19989169 31.05780848 -23 33 C-23.99 33 -24.98 33 -26 33 C-26 32.34 -26 31.68 -26 31 C-26.99 31 -27.98 31 -29 31 C-29 30.01 -29 29.02 -29 28 C-29.99 28.33 -30.98 28.66 -32 29 C-34.6875 28.5625 -34.6875 28.5625 -37 28 C-37 27.67 -37 27.34 -37 27 C-36.29875 26.82984375 -35.5975 26.6596875 -34.875 26.484375 C-28.76407379 24.92343189 -23.56962619 22.93671199 -18 20 C-17.34 20 -16.68 20 -16 20 C-16 19.34 -16 18.68 -16 18 C-15.0409375 17.566875 -15.0409375 17.566875 -14.0625 17.125 C-11.84793921 16.17176549 -11.84793921 16.17176549 -11 14 C-10.34 14 -9.68 14 -9 14 C-8.34 12.35 -7.68 10.7 -7 9 C-6.34 9 -5.68 9 -5 9 C-4.67 7.68 -4.34 6.36 -4 5 C-3.34 5 -2.68 5 -2 5 C-1.855625 4.360625 -1.71125 3.72125 -1.5625 3.0625 C-1 1 -1 1 0 0 Z " fill="#606060" transform="translate(735,214)"/>
<path d="M0 0 C1.67542976 0.28604898 3.34385343 0.61781233 5 1 C6.25889538 4.46196229 6.05731765 5.86191656 4.625 9.3125 C2.12724455 13.3211355 -1.32253334 16.13294611 -4.90625 19.15234375 C-7.14078855 20.99607149 -7.14078855 20.99607149 -9 23.6875 C-11.56408772 26.65222643 -14.42511328 28.09866741 -17.87890625 29.88671875 C-20.19989169 31.05780848 -20.19989169 31.05780848 -23 33 C-23.99 32.67 -24.98 32.34 -26 32 C-25.34 31.67 -24.68 31.34 -24 31 C-24.99 30.34 -25.98 29.68 -27 29 C-27.6875 26.875 -27.6875 26.875 -28 25 C-26.37750059 24.16180842 -24.75191503 23.3295884 -23.125 22.5 C-22.22007813 22.0359375 -21.31515625 21.571875 -20.3828125 21.09375 C-18 20 -18 20 -16 20 C-16 19.34 -16 18.68 -16 18 C-15.360625 17.71125 -14.72125 17.4225 -14.0625 17.125 C-11.84793921 16.17176549 -11.84793921 16.17176549 -11 14 C-10.34 14 -9.68 14 -9 14 C-8.34 12.35 -7.68 10.7 -7 9 C-6.34 9 -5.68 9 -5 9 C-4.67 7.68 -4.34 6.36 -4 5 C-3.34 5 -2.68 5 -2 5 C-1.855625 4.360625 -1.71125 3.72125 -1.5625 3.0625 C-1 1 -1 1 0 0 Z " fill="#5C5C5C" transform="translate(86,214)"/>
<path d="M0 0 C0.8971875 0.309375 0.8971875 0.309375 1.8125 0.625 C3.04613796 5.64647485 2.45524579 8.72054877 0.72265625 13.5546875 C0.49928085 14.18988312 0.27590546 14.82507874 0.04576111 15.47952271 C-0.66498625 17.49119227 -1.39458701 19.49539806 -2.125 21.5 C-2.61259322 22.86934185 -3.0989347 24.23913011 -3.58398438 25.609375 C-4.77071839 28.95320374 -5.97444855 32.29061491 -7.1875 35.625 C-10.1875 35.625 -10.1875 35.625 -13.1875 33.625 C-14.1775 33.625 -15.1675 33.625 -16.1875 33.625 C-16.6825 36.1 -16.6825 36.1 -17.1875 38.625 C-18.29615426 35.29903723 -18.14833431 34.81660992 -16.96484375 31.703125 C-16.67641602 30.93154053 -16.38798828 30.15995605 -16.09082031 29.36499023 C-15.61273926 28.13244507 -15.61273926 28.13244507 -15.125 26.875 C-14.80499023 26.03332275 -14.48498047 25.19164551 -14.15527344 24.32446289 C-13.49525731 22.59559275 -12.83067711 20.86845833 -12.16162109 19.14306641 C-11.25610735 16.80234742 -10.36991162 14.45526222 -9.48828125 12.10546875 C-8.97252225 10.75736503 -8.45566005 9.40968267 -7.9375 8.0625 C-7.47859375 6.86496094 -7.0196875 5.66742188 -6.546875 4.43359375 C-4.99498407 1.2272444 -3.79793805 -0.65107509 0 0 Z " fill="#626262" transform="translate(256.1875,55.375)"/>
<path d="M0 0 C0.8971875 0.309375 0.8971875 0.309375 1.8125 0.625 C3.41640705 6.36240466 1.93980322 10.16856062 -0.125 15.5 C-0.41568359 16.28375 -0.70636719 17.0675 -1.00585938 17.875 C-1.72051996 19.79638255 -2.45231125 21.71137826 -3.1875 23.625 C-3.8475 23.625 -4.5075 23.625 -5.1875 23.625 C-5.1875 24.285 -5.1875 24.945 -5.1875 25.625 C-6.0846875 25.0990625 -6.0846875 25.0990625 -7 24.5625 C-9.29563214 23.29195302 -9.29563214 23.29195302 -12.1875 24.625 C-12.8475 25.285 -13.5075 25.945 -14.1875 26.625 C-13.23457971 21.26378243 -11.32037412 16.47877535 -9.3125 11.4375 C-8.96058594 10.52291016 -8.60867188 9.60832031 -8.24609375 8.66601562 C-7.72595703 7.35600586 -7.72595703 7.35600586 -7.1953125 6.01953125 C-6.88223145 5.22393799 -6.56915039 4.42834473 -6.24658203 3.60864258 C-4.72974288 0.76762872 -3.2868029 -0.56345193 0 0 Z " fill="#595959" transform="translate(904.1875,55.375)"/>
<path d="M0 0 C2 2 2 2 2.125 4.625 C2.08375 5.40875 2.0425 6.1925 2 7 C3.32 6.01 4.64 5.02 6 4 C4.14274764 9.57175708 -1.41198339 12.11437535 -6.25 14.8125 C-9 16 -9 16 -12 16 C-12 15.34 -12 14.68 -12 14 C-12.99 14 -13.98 14 -15 14 C-15 13.01 -15 12.02 -15 11 C-15.99 11.33 -16.98 11.66 -18 12 C-20.6875 11.5625 -20.6875 11.5625 -23 11 C-23 10.67 -23 10.34 -23 10 C-21.948125 9.74476563 -21.948125 9.74476563 -20.875 9.484375 C-14.76407379 7.92343189 -9.56962619 5.93671199 -4 3 C-3.34 3 -2.68 3 -2 3 C-2 2.34 -2 1.68 -2 1 C-1.34 0.67 -0.68 0.34 0 0 Z " fill="#636363" transform="translate(721,231)"/>
<path d="M0 0 C1.67542976 0.28604898 3.34385343 0.61781233 5 1 C6.31795116 4.62436568 6.04181364 5.90633744 4.4375 9.5 C2.17228564 13.13229109 -0.59352859 15.44514644 -4 18 C-4.33 17.01 -4.66 16.02 -5 15 C-5.66 15 -6.32 15 -7 15 C-7 14.34 -7 13.68 -7 13 C-7.66 12.67 -8.32 12.34 -9 12 C-8.34 11.01 -7.68 10.02 -7 9 C-6.34 9 -5.68 9 -5 9 C-4.67 7.68 -4.34 6.36 -4 5 C-3.34 5 -2.68 5 -2 5 C-1.855625 4.360625 -1.71125 3.72125 -1.5625 3.0625 C-1 1 -1 1 0 0 Z " fill="#606060" transform="translate(86,214)"/>
<path d="M0 0 C1.19882813 0.00322266 2.39765625 0.00644531 3.6328125 0.00976562 C5.4890625 0.02233398 5.4890625 0.02233398 7.3828125 0.03515625 C8.64351562 0.03966797 9.90421875 0.04417969 11.203125 0.04882812 C14.30473636 0.06057665 17.40624975 0.07700458 20.5078125 0.09765625 C18.75996158 2.30427223 17.86368361 3.03751001 15.04345703 3.51416016 C13.60655518 3.54388916 13.60655518 3.54388916 12.140625 3.57421875 C11.09003906 3.60515625 10.03945312 3.63609375 8.95703125 3.66796875 C7.86003906 3.68601563 6.76304688 3.7040625 5.6328125 3.72265625 C3.46866521 3.77387867 1.30459398 3.82844786 -0.859375 3.88671875 C-1.81956543 3.90428223 -2.77975586 3.9218457 -3.76904297 3.93994141 C-6.45733616 4.09563778 -8.89583007 4.37902673 -11.4921875 5.09765625 C-11.8221875 5.75765625 -12.1521875 6.41765625 -12.4921875 7.09765625 C-14.4721875 6.43765625 -16.4521875 5.77765625 -18.4921875 5.09765625 C-18.1621875 3.77765625 -17.8321875 2.45765625 -17.4921875 1.09765625 C-16.8321875 1.09765625 -16.1721875 1.09765625 -15.4921875 1.09765625 C-15.4921875 1.75765625 -15.4921875 2.41765625 -15.4921875 3.09765625 C-14.5021875 2.43765625 -13.5121875 1.77765625 -12.4921875 1.09765625 C-8.29558821 0.16397368 -4.28928568 -0.02042517 0 0 Z " fill="#353535" transform="translate(1091.4921875,53.90234375)"/>
<path d="M0 0 C9.24 0 18.48 0 28 0 C29 4 29 4 28 6 C17.11 5.67 6.22 5.34 -5 5 C-5 4.67 -5 4.34 -5 4 C-4.28344238 3.97494385 -3.56688477 3.9498877 -2.82861328 3.92407227 C0.40611514 3.80830249 3.64053841 3.68549031 6.875 3.5625 C8.00292969 3.52318359 9.13085938 3.48386719 10.29296875 3.44335938 C11.36933594 3.40146484 12.44570312 3.35957031 13.5546875 3.31640625 C15.04718018 3.26141968 15.04718018 3.26141968 16.56982422 3.20532227 C19.00779501 3.15040468 19.00779501 3.15040468 21 2 C14.07 1.67 7.14 1.34 0 1 C0 0.67 0 0.34 0 0 Z " fill="#A0A0A0" transform="translate(1090,53)"/>
<path d="M0 0 C8.58 0 17.16 0 26 0 C25.34 1.32 24.68 2.64 24 4 C16.08 3.67 8.16 3.34 0 3 C0 2.01 0 1.02 0 0 Z " fill="#353535" transform="translate(444,54)"/>
<path d="M0 0 C5.23880078 0.55145271 9.97350697 1.42922093 15 3 C15 3.99 15 4.98 15 6 C14.236875 5.773125 13.47375 5.54625 12.6875 5.3125 C11.800625 5.209375 10.91375 5.10625 10 5 C9.5565625 5.5053125 9.113125 6.010625 8.65625 6.53125 C7 8 7 8 4.51953125 7.85546875 C3.62621094 7.63503906 2.73289062 7.41460937 1.8125 7.1875 C0.91144531 6.97480469 0.01039062 6.76210938 -0.91796875 6.54296875 C-1.60503906 6.36378906 -2.29210938 6.18460938 -3 6 C-2.34 5.67 -1.68 5.34 -1 5 C-0.34444881 2.47266765 -0.34444881 2.47266765 0 0 Z " fill="#676767" transform="translate(1119,54)"/>
<path d="M0 0 C1.30388672 0.00902344 2.60777344 0.01804688 3.95117188 0.02734375 C7.15513832 0.05081603 10.35872264 0.08365273 13.5625 0.125 C13.5625 0.455 13.5625 0.785 13.5625 1.125 C5.3125 1.125 -2.9375 1.125 -11.4375 1.125 C-11.4375 2.115 -11.4375 3.105 -11.4375 4.125 C-6.4875 4.125 -1.5375 4.125 3.5625 4.125 C3.5625 4.455 3.5625 4.785 3.5625 5.125 C-0.22915074 5.1539337 -4.02077327 5.17177601 -7.8125 5.1875 C-8.89273437 5.19587891 -9.97296875 5.20425781 -11.0859375 5.21289062 C-12.6328125 5.21772461 -12.6328125 5.21772461 -14.2109375 5.22265625 C-15.16403809 5.22789307 -16.11713867 5.23312988 -17.09912109 5.23852539 C-19.4375 5.125 -19.4375 5.125 -21.4375 4.125 C-21.4375 3.465 -21.4375 2.805 -21.4375 2.125 C-14.43305999 -0.5503801 -7.40824658 -0.0972309 0 0 Z " fill="#B4B4B4" transform="translate(455.4375,52.875)"/>
<path d="M0 0 C1.40783184 2.62795276 2.50772334 5.04634002 3 8 C2.67 8.66 2.34 9.32 2 10 C-0.31 10 -2.62 10 -5 10 C-5.33 7.69 -5.66 5.38 -6 3 C-5.01 3.495 -5.01 3.495 -4 4 C-2.68 2.68 -1.36 1.36 0 0 Z " fill="#7C7C7C" transform="translate(126,83)"/>
<path d="M0 0 C0.33 1.65 0.66 3.3 1 5 C-3.455 8.465 -3.455 8.465 -8 12 C-8.97608217 9.07175348 -9.08226668 7.04386724 -9 4 C-7 3 -7 3 -6 3 C-5.360625 2.505 -4.72125 2.01 -4.0625 1.5 C-2 0 -2 0 0 0 Z " fill="#2E2E2E" transform="translate(731,227)"/>
<path d="M0 0 C0.99 0 1.98 0 3 0 C2.566875 0.928125 2.566875 0.928125 2.125 1.875 C1.14264887 4.60375314 0.57741569 7.03647318 0.0625 9.875 C-0.7627431 14.28509911 -2.06771037 17.95975805 -4 22 C-4.99528744 19.01413769 -5.23314275 17.10857 -5 14 C-4.34 13.01 -3.68 12.02 -3 11 C-2.34 11 -1.68 11 -1 11 C-1.01160156 10.28972656 -1.02320313 9.57945312 -1.03515625 8.84765625 C-1.04869141 7.46900391 -1.04869141 7.46900391 -1.0625 6.0625 C-1.07410156 5.14597656 -1.08570313 4.22945312 -1.09765625 3.28515625 C-1 1 -1 1 0 0 Z " fill="#9A9A9A" transform="translate(930,125)"/>
<path d="M0 0 C1.40783184 2.62795276 2.50772334 5.04634002 3 8 C2.67 8.66 2.34 9.32 2 10 C-0.31 10 -2.62 10 -5 10 C-5.33 7.69 -5.66 5.38 -6 3 C-5.01 4.485 -5.01 4.485 -4 6 C-2.68 5.67 -1.36 5.34 0 5 C0 3.35 0 1.7 0 0 Z " fill="#939393" transform="translate(775,83)"/>
<path d="M0 0 C2.625 -0.1875 2.625 -0.1875 5 0 C5 0.66 5 1.32 5 2 C4.01 2 3.02 2 2 2 C2 2.66 2 3.32 2 4 C2.99 4.33 3.98 4.66 5 5 C5 5.66 5 6.32 5 7 C-0.28 6.34 -5.56 5.68 -11 5 C-11 4.67 -11 4.34 -11 4 C-10.37351562 3.96261719 -9.74703125 3.92523438 -9.1015625 3.88671875 C-8.28429687 3.82097656 -7.46703125 3.75523438 -6.625 3.6875 C-5.81289063 3.62949219 -5.00078125 3.57148437 -4.1640625 3.51171875 C-1.62078662 3.17009472 -1.62078662 3.17009472 0 0 Z " fill="#878787" transform="translate(470,54)"/>
<path d="M0 0 C-1.32 0.99 -2.64 1.98 -4 3 C-3.67 4.32 -3.34 5.64 -3 7 C-4.65 6.67 -6.3 6.34 -8 6 C-7.67 5.01 -7.34 4.02 -7 3 C-8.32 2.67 -9.64 2.34 -11 2 C-8.74490247 -2.51019507 -4.15738698 -0.70597137 0 0 Z " fill="#606060" transform="translate(482,56)"/>
<path d="M0 0 C0.66 0 1.32 0 2 0 C2 0.66 2 1.32 2 2 C2.99 1.34 3.98 0.68 5 0 C7.625 0.25 7.625 0.25 10 1 C10.33 1.66 10.66 2.32 11 3 C10.195625 3.12375 9.39125 3.2475 8.5625 3.375 C7.2940625 3.684375 7.2940625 3.684375 6 4 C5.67 4.66 5.34 5.32 5 6 C3.02 5.34 1.04 4.68 -1 4 C-0.67 2.68 -0.34 1.36 0 0 Z " fill="#343434" transform="translate(1074,55)"/>
<path d="M0 0 C0 0.66 0 1.32 0 2 C0.66 2 1.32 2 2 2 C2.33 3.32 2.66 4.64 3 6 C1.02 6.99 -0.96 7.98 -3 9 C-3 7.68 -3 6.36 -3 5 C-3.66 4.34 -4.32 3.68 -5 3 C-2.25 0 -2.25 0 0 0 Z " fill="#434343" transform="translate(79,227)"/>
<path d="M0 0 C0.99 0.33 1.98 0.66 3 1 C0.96940865 6.75334215 -1.08029436 9.39221586 -6 13 C-5.25160674 7.76124715 -2.89140827 4.3371124 0 0 Z " fill="#848484" transform="translate(679,111)"/>
<path d="M0 0 C3 3.625 3 3.625 3 7 C2.01 7.66 1.02 8.32 0 9 C-0.72965366 11.56282742 -0.72965366 11.56282742 -1 14 C-1.66 14 -2.32 14 -3 14 C-3.33 14.99 -3.66 15.98 -4 17 C-3.35729017 11.0870696 -1.80996216 5.65755469 0 0 Z " fill="#8A8A8A" transform="translate(124,197)"/>
<path d="M0 0 C0.66 0.33 1.32 0.66 2 1 C1.09522263 2.46573934 0.17565859 3.92235756 -0.75 5.375 C-1.26046875 6.18710938 -1.7709375 6.99921875 -2.296875 7.8359375 C-4.0673335 10.08555679 -5.36907419 10.95906848 -8 12 C-7.67 11.01 -7.34 10.02 -7 9 C-6.34 9 -5.68 9 -5 9 C-4.67 7.68 -4.34 6.36 -4 5 C-3.34 5 -2.68 5 -2 5 C-1.34 3.35 -0.68 1.7 0 0 Z " fill="#919191" transform="translate(49,83)"/>
<path d="M0 0 C0.66 0 1.32 0 2 0 C2.33 1.32 2.66 2.64 3 4 C2.34 4 1.68 4 1 4 C1.33 4.99 1.66 5.98 2 7 C1.01 7.33 0.02 7.66 -1 8 C-1.66 8.66 -2.32 9.32 -3 10 C-2.39009109 6.44219804 -1.4216319 3.3171411 0 0 Z " fill="#838383" transform="translate(893,72)"/>
<path d="M0 0 C0 0.33 0 0.66 0 1 C-0.92232422 1.05607422 -0.92232422 1.05607422 -1.86328125 1.11328125 C-3.07564453 1.21189453 -3.07564453 1.21189453 -4.3125 1.3125 C-5.11300781 1.37050781 -5.91351562 1.42851562 -6.73828125 1.48828125 C-9.36272334 2.08206694 -10.30820672 2.95780294 -12 5 C-12.33 4.01 -12.66 3.02 -13 2 C-15.01508358 1.26676204 -15.01508358 1.26676204 -17 1 C-11.29309366 0.00749455 -5.78591511 -0.10477512 0 0 Z " fill="#A6A6A6" transform="translate(818,175)"/>
<path d="M0 0 C0.125 5.75 0.125 5.75 -1 8 C-1.99 7.67 -2.98 7.34 -4 7 C-3.625 4.0625 -3.625 4.0625 -3 1 C-1 0 -1 0 0 0 Z " fill="#6D6D6D" transform="translate(360,130)"/>
<path d="M0 0 C0 0.99 0 1.98 0 3 C-2.5 5.1875 -2.5 5.1875 -5 7 C-5.99 6.01 -6.98 5.02 -8 4 C-5.62596029 1.62596029 -4.22523111 1.57888764 -1 1 C-0.67 0.67 -0.34 0.34 0 0 Z " fill="#A8958F" transform="translate(612,122)"/>
<path d="M0 0 C0.33 1.65 0.66 3.3 1 5 C0.01 5.495 0.01 5.495 -1 6 C-3.625 5.0625 -3.625 5.0625 -6 4 C-2.25 0 -2.25 0 0 0 Z " fill="#444444" transform="translate(731,227)"/>
<path d="M0 0 C0 3 0 3 -2.375 5.6875 C-5 8 -5 8 -7 8 C-5.50902342 4.2047869 -3.24299151 2.38957269 0 0 Z " fill="#DDDEDA" transform="translate(537,155)"/>
<path d="M0 0 C-2.33214148 1.20628008 -4.49642139 2.1654738 -7 3 C-7 2.34 -7 1.68 -7 1 C-9.475 2.485 -9.475 2.485 -12 4 C-11.1875 2.0625 -11.1875 2.0625 -10 0 C-6.30581799 -1.231394 -3.7943739 -0.64432764 0 0 Z " fill="#9F9F9F" transform="translate(1083,54)"/>
<path d="M0 0 C3 4 3 4 3 7 C0.5 8.6875 0.5 8.6875 -2 10 C-1.34 6.7 -0.68 3.4 0 0 Z " fill="#858585" transform="translate(772,197)"/>
<path d="M0 0 C0.33 1.32 0.66 2.64 1 4 C-2.465 5.485 -2.465 5.485 -6 7 C-4.60667426 3.63279613 -3.0210714 2.0140476 0 0 Z " fill="#DCDCDA" transform="translate(514,176)"/>
<path d="M0 0 C1.13643966 3.40931897 0.86747764 4.00335456 -0.4375 7.1875 C-0.72496094 7.90292969 -1.01242187 8.61835938 -1.30859375 9.35546875 C-1.53675781 9.89816406 -1.76492188 10.44085938 -2 11 C-3.5625 9.1875 -3.5625 9.1875 -5 7 C-4.67 6.01 -4.34 5.02 -4 4 C-3.01 4 -2.02 4 -1 4 C-0.67 2.68 -0.34 1.36 0 0 Z " fill="#939393" transform="translate(277,142)"/>
<path d="M0 0 C0.33 0 0.66 0 1 0 C1.33 3.3 1.66 6.6 2 10 C1.01 10 0.02 10 -1 10 C-2.27351308 7.45297384 -1.80191925 6.5717055 -1.0625 3.875 C-0.86785156 3.15054688 -0.67320312 2.42609375 -0.47265625 1.6796875 C-0.31667969 1.12539062 -0.16070312 0.57109375 0 0 Z " fill="#737373" transform="translate(270,225)"/>
<path d="M0 0 C0.66 0.33 1.32 0.66 2 1 C1.625 2.9375 1.625 2.9375 1 5 C0.01 5.495 0.01 5.495 -1 6 C-3.125 5.0625 -3.125 5.0625 -5 4 C-3.35 2.68 -1.7 1.36 0 0 Z " fill="#7B7B7B" transform="translate(468,108)"/>
<path d="M0 0 C0.66 0 1.32 0 2 0 C1.67 1.65 1.34 3.3 1 5 C0.34 5 -0.32 5 -1 5 C-1.66 6.98 -2.32 8.96 -3 11 C-4 8 -4 8 -3.22265625 5.95703125 C-2.83980469 5.24933594 -2.45695312 4.54164063 -2.0625 3.8125 C-1.68222656 3.09707031 -1.30195313 2.38164062 -0.91015625 1.64453125 C-0.60980469 1.10183594 -0.30945313 0.55914062 0 0 Z " fill="#E0E0DC" transform="translate(381,310)"/>
<path d="M0 0 C1.40907283 2.81814566 0.50872691 4.17277204 -0.4375 7.125 C-0.72496094 8.03507812 -1.01242187 8.94515625 -1.30859375 9.8828125 C-1.53675781 10.58148438 -1.76492188 11.28015625 -2 12 C-2.66 11.01 -3.32 10.02 -4 9 C-3.67 8.01 -3.34 7.02 -3 6 C-2.34 6 -1.68 6 -1 6 C-1.020625 5.195625 -1.04125 4.39125 -1.0625 3.5625 C-1 1 -1 1 0 0 Z " fill="#A5A5A5" transform="translate(416,103)"/>
<path d="M0 0 C1.32 0.33 2.64 0.66 4 1 C4 1.99 4 2.98 4 4 C3.195625 4.12375 2.39125 4.2475 1.5625 4.375 C0.2940625 4.684375 0.2940625 4.684375 -1 5 C-1.33 5.66 -1.66 6.32 -2 7 C-1.125 2.25 -1.125 2.25 0 0 Z " fill="#E5E5E3" transform="translate(373,327)"/>
<path d="M0 0 C0.33 0 0.66 0 1 0 C0.67 2.31 0.34 4.62 0 7 C0.66 7.33 1.32 7.66 2 8 C1.34 8 0.68 8 0 8 C-0.33 9.32 -0.66 10.64 -1 12 C-2.36884358 7.48281619 -1.47075246 4.41225737 0 0 Z " fill="#A1A1A1" transform="translate(1014,235)"/>
<path d="M0 0 C0 0.33 0 0.66 0 1 C-0.61488281 1.04898438 -1.22976563 1.09796875 -1.86328125 1.1484375 C-2.67152344 1.22320312 -3.47976563 1.29796875 -4.3125 1.375 C-5.51326172 1.47941406 -5.51326172 1.47941406 -6.73828125 1.5859375 C-9.27224441 1.89564426 -9.27224441 1.89564426 -12 4 C-11.1875 2.0625 -11.1875 2.0625 -10 0 C-6.30581799 -1.231394 -3.7943739 -0.64432764 0 0 Z " fill="#B7B7B7" transform="translate(434,54)"/>
<path d="M0 0 C0.66 0.66 1.32 1.32 2 2 C1.625 4.125 1.625 4.125 1 6 C-0.32 5.67 -1.64 5.34 -3 5 C-2.625 3.0625 -2.625 3.0625 -2 1 C-1.34 0.67 -0.68 0.34 0 0 Z " fill="#595959" transform="translate(721,231)"/>
<path d="M0 0 C0.625 1.875 0.625 1.875 1 4 C0.34 4.66 -0.32 5.32 -1 6 C-3.125 5.625 -3.125 5.625 -5 5 C-3.35 3.35 -1.7 1.7 0 0 Z " fill="#614C43" transform="translate(625,68)"/>
<path d="M0 0 C1.32 0.33 2.64 0.66 4 1 C4.33 2.98 4.66 4.96 5 7 C4.34 7 3.68 7 3 7 C3 6.01 3 5.02 3 4 C2.34 4 1.68 4 1 4 C0.67 2.68 0.34 1.36 0 0 Z " fill="#868686" transform="translate(902,55)"/>
<path d="M0 0 C0 0.99 0 1.98 0 3 C-1.98 3 -3.96 3 -6 3 C-6.33 2.34 -6.66 1.68 -7 1 C-4.53721199 -0.231394 -2.7204945 -0.07159196 0 0 Z " fill="#797979" transform="translate(1090,54)"/>
<path d="M0 0 C1.32 0.33 2.64 0.66 4 1 C2.95125002 3.62187494 2.35068687 4.79371361 -0.125 6.25 C-0.74375 6.4975 -1.3625 6.745 -2 7 C-1.34 6.01 -0.68 5.02 0 4 C0 2.68 0 1.36 0 0 Z " fill="#E4E4E2" transform="translate(562,189)"/>
</svg>
