<?xml version="1.0" encoding="UTF-8"?>
<svg version="1.1" xmlns="http://www.w3.org/2000/svg" width="512" height="512">
<path d="M0 0 C1.13211914 -0.04350586 1.13211914 -0.04350586 2.28710938 -0.08789062 C5.84482578 -0.1286398 7.99333643 -0.00237652 10.93359375 2.08203125 C12.51260583 4.42389073 12.98106046 5.52463072 12.9375 8.3125 C12.95296875 9.3025 12.95296875 9.3025 12.96875 10.3125 C12.15273959 13.38453921 11.01408439 14.43681028 8.4375 16.3125 C5.49447822 17.11046658 2.52615218 17.41679391 -0.5 17.75 C-20.78216826 20.48395998 -36.64425498 30.56469071 -50.5625 45.3125 C-49.52351563 45.78558594 -48.48453125 46.25867187 -47.4140625 46.74609375 C-31.76112453 54.08111799 -19.87533137 63.89222444 -13.5625 80.421875 C-8.20986021 95.8943494 -9.40557586 111.86299138 -16.375 126.625 C-18.13038558 130.1505223 -20.1024097 133.03632722 -22.67456055 135.99291992 C-23.48560493 136.92837898 -23.48560493 136.92837898 -24.31303406 137.88273621 C-24.9315197 138.59046928 -24.9315197 138.59046928 -25.5625 139.3125 C-24.59720871 139.31614563 -23.63191742 139.31979126 -22.63737488 139.32354736 C-13.50187793 139.36062762 -4.36671401 139.41854143 4.76852894 139.49640274 C9.46410755 139.53576661 14.15950173 139.56800915 18.85522461 139.58349609 C23.39421848 139.59873617 27.93270495 139.63331055 32.47147179 139.68080902 C34.19559993 139.69554747 35.91980054 139.70353665 37.64399147 139.70438385 C52.43672945 139.71895106 64.15446715 141.83414856 75.4375 152.3125 C82.04024566 160.45628146 84.3851449 168.51927254 85.20709229 178.83113098 C85.26582103 179.54458968 85.32454977 180.25804839 85.38505816 180.99312705 C85.57852024 183.3631962 85.76240879 185.73390606 85.94628906 188.10473633 C86.08405231 189.81676312 86.22240991 191.52874218 86.36131287 193.24067688 C86.73746012 197.89751499 87.10527134 202.5549786 87.47163486 207.21259522 C87.86299458 212.16935783 88.26210939 217.12549631 88.66033936 222.08171082 C89.4199762 231.55043956 90.17273577 241.01970205 90.92302585 250.4891755 C91.75318087 260.96279781 92.59058856 271.43583529 93.42884541 281.90881181 C94.49264059 295.20035297 95.55491734 308.49201196 96.61047363 321.78421021 C96.68992863 322.78469946 96.76938363 323.78518871 96.85124636 324.81599581 C97.01093285 326.82684158 97.17061815 328.83768744 97.33030224 330.84853339 C97.40886109 331.83776054 97.48741995 332.82698768 97.56835938 333.84619141 C97.6464877 334.83002627 97.72461603 335.81386113 97.80511189 336.82750916 C98.87191167 350.25635599 99.94984873 363.68425697 101.03879976 377.11132538 C101.46633568 382.38587689 101.89235422 387.66055126 102.31851554 392.93521398 C102.71315272 397.81659277 103.11054326 402.69773716 103.51005077 407.57871962 C103.75207604 410.54364581 103.99148214 413.50877922 104.23016262 416.47397637 C104.39139906 418.46682455 104.55589968 420.45940781 104.72052765 422.45197868 C105.19921964 428.42755521 105.56162859 434.31764274 105.4375 440.3125 C106.38592773 440.29155273 107.33435547 440.27060547 108.31152344 440.24902344 C111.83766425 440.1807644 115.36310099 440.13066071 118.88964844 440.09277344 C120.41450085 440.07268401 121.93927648 440.04540684 123.46386719 440.01074219 C125.65839598 439.96210204 127.85190469 439.93950604 130.046875 439.921875 C131.36655273 439.90092773 132.68623047 439.87998047 134.04589844 439.85839844 C137.4375 440.3125 137.4375 440.3125 139.85058594 442.19018555 C143.04037509 446.45616049 142.55131718 450.64469367 141.9375 455.75 C139.8970958 468.87476218 133.34485353 480.085959 122.6875 488 C114.83646742 493.2775068 106.72239377 496.43140205 97.25449085 496.44672108 C95.97715417 496.45117892 94.69981748 496.45563676 93.38377362 496.46022969 C91.96327197 496.4601404 90.54277031 496.45995055 89.12226868 496.45967102 C87.61555279 496.4629705 86.10883779 496.46669624 84.60212392 496.4708125 C80.45555948 496.48083096 76.30900952 496.48454904 72.1624347 496.48720181 C67.69261887 496.49110527 63.2228145 496.50068353 58.75300598 496.50941467 C47.95587388 496.52917708 37.15874085 496.53924466 26.36159518 496.54814246 C21.27767058 496.55252541 16.19374701 496.55789218 11.10982323 496.56313133 C-5.78882856 496.58014279 -22.68747969 496.59463743 -39.58613873 496.60188007 C-43.97140695 496.60378998 -48.35667516 496.60571031 -52.74194336 496.60766602 C-54.37685667 496.60839163 -54.37685667 496.60839163 -56.04479853 496.6091319 C-73.70504684 496.61743397 -91.36522746 496.64277425 -109.0254462 496.67524669 C-127.1544066 496.70830946 -145.28333258 496.7263281 -163.4123233 496.72952431 C-173.59208583 496.73169005 -183.77174961 496.74044811 -193.95148277 496.76598549 C-202.62008273 496.78768171 -211.28855995 496.79574818 -219.95718398 496.78601871 C-224.37957962 496.78147099 -228.80172197 496.78338762 -233.22408295 496.80278015 C-237.27511469 496.82039087 -241.32570798 496.81943126 -245.37674425 496.80388286 C-246.83976835 496.80150361 -248.30282264 496.80584687 -249.76580056 496.81771151 C-260.49369686 496.89930288 -268.96334397 495.6067789 -277.01425171 488.10096741 C-283.70116743 480.37654046 -284.9680895 470.52618794 -286.4609375 460.78515625 C-286.70880043 459.25001682 -286.95813745 457.71511478 -287.20883179 456.18043518 C-287.87537511 452.07432402 -288.52179232 447.9652908 -289.16368103 443.85526276 C-289.82952552 439.61001692 -290.51176022 435.36740859 -291.19238281 431.12451172 C-292.30399279 424.17932368 -293.41168973 417.23352136 -294.515625 410.28710938 C-294.65312794 409.42270422 -294.79063087 408.55829906 -294.93230057 407.66769981 C-295.63901653 403.22062849 -296.34121507 398.77290567 -297.03613281 394.32397461 C-297.7266754 389.90532107 -298.4286931 385.48862208 -299.13825607 381.0729847 C-299.40155496 379.42122394 -299.66074056 377.76880125 -299.91542435 376.11569023 C-301.25811469 367.41229091 -302.8237325 359.36216179 -306.5625 351.3125 C-315.0846238 329.2603171 -316.23191153 306.57053275 -307.0300293 284.56640625 C-298.24990248 264.77063197 -283.22626656 251.75582573 -263.5625 243.3125 C-258.4813549 241.53864755 -253.69045495 240.32074932 -248.3125 240.125 C-243.54576671 239.09220779 -242.3296532 237.26188019 -239.37890625 233.55859375 C-227.81604264 219.26042907 -210.04452623 212.41421062 -192.1875 210.4375 C-170.03329846 209.3799555 -150.91024221 216.54469409 -134.453125 231.390625 C-132.5625 233.3125 -132.5625 233.3125 -130.4375 236.625 C-126.70836043 240.11093482 -123.44639152 240.38662798 -118.49682617 241.20703125 C-103.51396484 243.73719539 -91.23168709 251.82384061 -80.5625 262.3125 C-79.62083984 263.23482422 -79.62083984 263.23482422 -78.66015625 264.17578125 C-63.46144706 280.27055946 -58.99343743 301.40008378 -59.28125 322.8671875 C-59.66116206 333.72887334 -62.921328 343.70814488 -67.4140625 353.56640625 C-70.20377004 360.23703347 -71.29170746 367.09812186 -72.41015625 374.20141602 C-72.58279999 375.27544678 -72.75544373 376.34947754 -72.93331909 377.45605469 C-73.30619987 379.77905941 -73.67714385 382.10237567 -74.0463562 384.42596626 C-74.63103695 388.10438668 -75.22116379 391.78189657 -75.81274414 395.45921326 C-77.28049878 404.58954659 -78.73974085 413.72123702 -80.19763184 422.85314941 C-81.43093038 430.57737849 -82.66834516 438.30092929 -83.91134644 446.02360344 C-84.49249322 449.64463276 -85.06772641 453.26657057 -85.64282227 456.88856506 C-85.99985606 459.11008553 -86.35718093 461.33155924 -86.71484375 463.55297852 C-86.8728244 464.55834152 -87.03080505 465.56370453 -87.193573 466.59953308 C-87.34488678 467.53163605 -87.49620056 468.46373901 -87.65209961 469.42408752 C-87.84454506 470.62998205 -87.84454506 470.62998205 -88.0408783 471.86023808 C-88.6590538 474.76642131 -89.58166708 477.51022127 -90.5625 480.3125 C-66.61414759 480.22854463 -42.66586221 480.13339077 -18.7176075 480.02497292 C-7.59755956 479.97489051 3.52248117 479.92844709 14.64257812 479.890625 C24.3369313 479.85764291 34.0312278 479.81777739 43.72551835 479.76970994 C48.85666087 479.74450676 53.98776608 479.72270729 59.1189537 479.70915604 C63.95342095 479.69627952 68.78775987 479.67416522 73.62215614 479.64511681 C75.39175462 479.63608461 77.16137373 479.63036104 78.93099403 479.62828636 C97.91600239 479.9527054 97.91600239 479.9527054 114.34765625 471.58984375 C117.55408765 468.16556563 119.66277596 464.9552193 121.54003906 460.65698242 C121.89648499 459.84412277 122.25293091 459.03126312 122.62017822 458.19377136 C122.88989441 457.57295181 123.1596106 456.95213226 123.4375 456.3125 C122.42590191 456.31618717 121.41430382 456.31987434 120.37205124 456.32367325 C95.77737508 456.41240299 71.18271964 456.47817043 46.58791733 456.51974869 C34.69413318 456.54038916 22.80045465 456.5685382 10.90673828 456.61425781 C0.54227354 456.65408003 -9.82211473 456.679922 -20.18665385 456.68885398 C-25.6765265 456.69407653 -31.16618033 456.70638237 -36.65598297 456.73542023 C-41.82039868 456.76251635 -46.98450487 456.77095673 -52.14898491 456.76493073 C-54.04691435 456.76603356 -55.94485385 456.77402187 -57.84272194 456.7893219 C-60.42973131 456.8091592 -63.01556477 456.80446243 -65.6026001 456.79351807 C-66.35746555 456.80516943 -67.11233099 456.8168208 -67.89007115 456.82882524 C-71.38244669 456.78875864 -73.22530514 456.57317448 -76.02679062 454.40743637 C-77.69147376 452.13656058 -78.10595504 451.09362224 -78.0625 448.3125 C-78.0728125 447.6525 -78.083125 446.9925 -78.09375 446.3125 C-77.30779209 443.35359961 -75.94065662 442.21509311 -73.5625 440.3125 C-70.54029465 439.82030869 -70.54029465 439.82030869 -66.93133545 439.83148193 C-66.26638227 439.82806423 -65.60142909 439.82464653 -64.91632581 439.82112527 C-62.68954599 439.81453973 -60.46397331 439.83653139 -58.23730469 439.85839844 C-56.64067615 439.85952678 -55.04404554 439.85889331 -53.44741821 439.85662842 C-49.11290099 439.85547982 -44.77882571 439.87901256 -40.44441128 439.90692425 C-35.91472547 439.93191366 -31.38502975 439.93427796 -26.85528564 439.93902588 C-18.27757377 439.9514629 -9.70006558 439.98429432 -1.12244344 440.02442384 C8.64285193 440.06911896 18.40815698 440.0911229 28.17352915 440.11120558 C48.26163316 440.15302633 68.34955375 440.2233925 88.4375 440.3125 C88.35961085 439.50157961 88.28172171 438.69065922 88.20147228 437.85516548 C86.29445223 417.93325967 84.54615845 398.00483933 82.95703125 378.0546875 C82.7931933 376.00863218 82.62906576 373.96260023 82.46490496 371.91657078 C81.95425461 365.55195511 81.44571384 359.18717361 80.9387207 352.82226562 C80.41829119 346.28906315 79.89447455 339.75613828 79.36904603 333.2233361 C78.91288831 327.55059662 78.45858645 321.87771069 78.00581855 316.20469964 C77.73747087 312.84247894 77.46848329 309.48031292 77.19776344 306.11828232 C76.8988304 302.39918374 76.60294137 298.67985521 76.30786133 294.96044922 C76.21906708 293.863452 76.13027283 292.76645477 76.03878784 291.63621521 C75.66195027 286.84926773 75.32241747 282.11910829 75.4375 277.3125 C68.39182551 279.41016141 63.47789981 280.98254029 59.4375 287.3125 C58.45551795 290.25844616 58.29479507 292.72856911 58.19873047 295.80859375 C57.83826245 306.21680932 55.81424577 313.75897071 48.4609375 321.515625 C41.33486888 327.84379405 34.40250708 329.08095948 24.99609375 328.73046875 C17.07215619 327.79977575 10.80863391 324.18586981 5.4375 318.3125 C2.04194687 313.55459729 0.48765004 308.99782983 0.04296875 303.23046875 C-0.06047852 302.07901367 -0.06047852 302.07901367 -0.16601562 300.90429688 C-0.30424278 299.31403868 -0.43202205 297.72283432 -0.54882812 296.13085938 C-1.14911962 289.77201936 -2.72111825 284.74797007 -7.75 280.4375 C-13.16095141 278.27311944 -18.26921921 277.59679586 -23.875 279.4375 C-28.32627276 281.38437874 -30.5371175 284.2051088 -32.64810181 288.5436554 C-33.7568806 291.90109442 -33.81422228 294.70269032 -33.81787109 298.23901367 C-33.82149155 298.91618439 -33.825112 299.5933551 -33.82884216 300.29104614 C-33.83571212 301.7554865 -33.83824612 303.21995234 -33.83689499 304.68440819 C-33.83592491 307.0106706 -33.84893046 309.33647698 -33.86587524 311.66267395 C-33.91198775 318.27451006 -33.93672473 324.88629952 -33.94335938 331.49829102 C-33.94840428 335.55023877 -33.97280632 339.60171149 -34.00868607 343.6534977 C-34.01841806 345.18867438 -34.02085244 346.72391697 -34.01551437 348.25911522 C-33.98274873 358.14993499 -34.42290131 366.81459548 -40.5625 374.96875 C-41.2225 375.5771875 -41.8825 376.185625 -42.5625 376.8125 C-43.2225 377.4415625 -43.8825 378.070625 -44.5625 378.71875 C-47.49996721 381.05954418 -49.77811601 382.19567685 -53.5 382.75 C-56.5625 382.3125 -56.5625 382.3125 -59.4375 380.25 C-61.5625 377.3125 -61.5625 377.3125 -62.1875 373.8125 C-61.40644784 369.43860793 -59.92103125 368.1242936 -56.5625 365.3125 C-53.53017175 362.49676662 -52.62375218 360.62200057 -52.42446899 356.36155701 C-52.41797333 355.15483841 -52.41147766 353.94811981 -52.40478516 352.70483398 C-52.39970444 352.03770889 -52.39462372 351.3705838 -52.38938904 350.6832428 C-52.37869393 349.23459113 -52.37007038 347.78592303 -52.36326981 346.33724785 C-52.35144866 344.0364367 -52.33198393 341.73581056 -52.31015015 339.43507385 C-52.24866932 332.89322169 -52.19467353 326.35138593 -52.16113281 319.80932617 C-52.14005336 315.8051079 -52.10463855 311.80122343 -52.06037521 307.79719734 C-52.04631169 306.27877831 -52.03751482 304.76030018 -52.03432083 303.24181938 C-52.00483856 290.558517 -51.03536384 280.4851329 -42.25 270.75 C-33.84438908 263.12630637 -25.65734234 259.87462741 -14.0625 260.25 C-4.91080217 261.27051307 3.8147825 265.35029097 9.9765625 272.30859375 C15.75834493 280.23922045 17.12807201 288.07830223 17.63012695 297.67480469 C17.96100918 302.75423768 18.6058608 305.61848111 22.4375 309.3125 C25.91013273 311.04881636 29.64943013 310.91440402 33.4375 310.3125 C36.19319447 308.13090855 37.87338747 306.44072506 39.4375 303.3125 C39.59460629 301.14792451 39.71352557 298.98051142 39.8125 296.8125 C40.5770487 285.64095999 43.14032418 276.09332985 51.62890625 268.30078125 C58.32524642 263.17372786 65.94109015 260.3125 74.4375 260.3125 C74.1075 259.6525 73.7775 258.9925 73.4375 258.3125 C73.16010833 255.67550512 72.93443731 253.05331391 72.74487305 250.40966797 C72.6828772 249.59317276 72.62088135 248.77667755 72.55700684 247.93544006 C72.42224732 246.15838677 72.28920576 244.38120258 72.15765953 242.60390854 C71.94787749 239.7866753 71.73086739 236.97009158 71.51142883 234.15359497 C70.88753684 226.14395545 70.26750335 218.13410466 69.67504883 210.12207031 C69.31226832 205.22322509 68.9330918 200.32588189 68.5433445 195.42911148 C68.39816991 193.56616339 68.25905175 191.70273265 68.12622643 189.83886337 C67.93905618 187.22168309 67.73098116 184.60691403 67.51831055 181.99169922 C67.44405602 180.8473365 67.44405602 180.8473365 67.36830139 179.67985535 C66.82411291 173.42725946 64.84520214 168.03562164 60.6484375 163.2890625 C60.04257812 162.84304687 59.43671875 162.39703125 58.8125 161.9375 C58.22210938 161.47601563 57.63171875 161.01453125 57.0234375 160.5390625 C50.15560775 157.28151183 42.39483728 157.01801663 34.91223145 157.05853271 C33.55630095 157.05385274 33.55630095 157.05385274 32.17297792 157.04907823 C29.17319307 157.04116253 26.17361414 157.04739661 23.17382812 157.05371094 C21.01126488 157.05099822 18.84870255 157.04743571 16.68614197 157.04309082 C10.83292041 157.033998 4.97976961 157.03749827 -0.87345314 157.04384899 C-7.00934663 157.04892507 -13.1452342 157.04421307 -19.28112793 157.04107666 C-29.58375126 157.03744171 -39.88634588 157.04222378 -50.18896484 157.05175781 C-62.08710579 157.06264144 -73.98517818 157.05911553 -85.88331747 157.048105 C-96.11289604 157.03901873 -106.34245401 157.03775341 -116.57203531 157.04298234 C-122.67555267 157.04609466 -128.77903784 157.04653165 -134.8825531 157.03990936 C-140.62161392 157.03411706 -146.36058665 157.03816731 -152.09963799 157.04969788 C-154.20144441 157.05233438 -156.3032583 157.05159669 -158.40506172 157.04717255 C-161.28255052 157.0416757 -164.15976023 157.04860117 -167.03723145 157.05853271 C-168.27315639 157.05184055 -168.27315639 157.05184055 -169.53404951 157.04501319 C-177.05030029 157.09504161 -185.16794483 157.67604838 -191.5 162.0625 C-192.21027344 162.53171875 -192.92054688 163.0009375 -193.65234375 163.484375 C-198.1686119 167.80669299 -199.03063428 172.86169294 -199.6875 178.875 C-199.80750366 179.91901978 -199.80750366 179.91901978 -199.92993164 180.98413086 C-200.42561702 185.4422489 -200.73566504 189.89685484 -201 194.375 C-201.35892484 199.36281765 -201.97880249 203.00633748 -204.5625 207.3125 C-207.2160249 209.58694992 -208.58556903 209.31128584 -212.125 209.125 C-215.5625 208.3125 -215.5625 208.3125 -217.4375 207.1875 C-221.10302552 201.07829081 -219.33221668 192.65477539 -218.75 185.9375 C-218.66685547 184.85210937 -218.58371094 183.76671875 -218.49804688 182.6484375 C-217.40967719 169.49266968 -215.20652069 159.26436037 -205.1875 149.9375 C-197.03638592 143.15402251 -188.36245562 140.0268025 -177.69946289 139.99365234 C-176.57139221 139.97858391 -176.57139221 139.97858391 -175.42053223 139.96321106 C-172.95874733 139.93255952 -170.49707025 139.91539465 -168.03515625 139.8984375 C-166.31879256 139.8797113 -164.60243793 139.86013682 -162.88609314 139.8397522 C-158.38664105 139.78857829 -153.88715916 139.74887399 -149.38757324 139.71160889 C-144.78890704 139.67147648 -140.19036322 139.62042641 -135.59179688 139.5703125 C-126.58211741 139.47372792 -117.5723686 139.3892676 -108.5625 139.3125 C-109.10664551 138.58732178 -109.65079102 137.86214355 -110.21142578 137.11499023 C-110.9279834 136.14762939 -111.64454102 135.18026855 -112.3828125 134.18359375 C-113.09195801 133.23154053 -113.80110352 132.2794873 -114.53173828 131.29858398 C-123.21405696 118.53188047 -125.03783107 103.29360203 -122.5625 88.3125 C-118.79176734 72.4010227 -109.47590581 59.98752572 -95.875 51.125 C-89.32375109 47.33803386 -81.91354134 44.79891863 -74.3828125 43.95703125 C-70.90962611 43.16329752 -70.16979155 42.21046937 -68.1875 39.3125 C-67.59324219 38.49523438 -66.99898437 37.67796875 -66.38671875 36.8359375 C-65.48373047 35.58683594 -65.48373047 35.58683594 -64.5625 34.3125 C-49.35437699 14.88180559 -24.94329183 0.32115826 0 0 Z M-93.14453125 70.35546875 C-101.77985063 78.44660548 -106.41497036 88.48014708 -106.8125 100.3125 C-106.41451727 112.15833878 -101.76488478 122.12402098 -93.17578125 130.265625 C-82.57926677 138.56543604 -71.5959844 140.39660488 -58.5625 139.3125 C-48.17978859 137.24094941 -39.86413775 131.02546334 -33.84375 122.4296875 C-27.78206136 112.41311664 -25.64226364 101.87126778 -28.24609375 90.265625 C-32.1322904 78.84891452 -38.66025307 70.42232677 -49.1875 64.5625 C-64.31196623 57.47075483 -80.18581884 60.10220613 -93.14453125 70.35546875 Z M-221.5625 241.3125 C-220.65886719 241.61542969 -219.75523437 241.91835937 -218.82421875 242.23046875 C-217.64472656 242.64941406 -216.46523437 243.06835938 -215.25 243.5 C-214.07824219 243.90605469 -212.90648437 244.31210938 -211.69921875 244.73046875 C-208.17667947 246.50709192 -207.09300479 247.72277058 -205.5625 251.3125 C-205.6867258 254.41814495 -206.09400174 256.48573836 -207.625 259.1875 C-210.87979518 261.07738107 -213.96233234 260.84941668 -217.5625 260.3125 C-219.63569071 259.67986188 -221.69766967 259.00984561 -223.75 258.3125 C-237.58448178 253.8600231 -252.41944184 256.46562671 -265.3125 262.875 C-280.17398563 271.78293867 -289.52264052 284.83452193 -294.5625 301.3125 C-298.35779908 317.38321954 -296.28304008 331.19128482 -289.5625 346.3125 C-221.5825 346.3125 -153.6025 346.3125 -83.5625 346.3125 C-75.5048233 330.1971466 -74.02816361 313.98342116 -79.30859375 296.70703125 C-84.83991386 281.73283443 -94.59975938 270.10784173 -108.5625 262.3125 C-123.12248016 255.61552282 -137.44067968 254.2013945 -152.640625 259.41015625 C-157.09240546 260.7849708 -161.23294063 261.47727969 -165.5625 259.3125 C-167.14745415 256.14259169 -167.27390218 252.77186747 -166.5625 249.3125 C-164.19455226 245.92374087 -160.64096366 245.00461045 -156.875 243.625 C-155.69550781 243.18800781 -154.51601562 242.75101563 -153.30078125 242.30078125 C-152.39714844 241.97464844 -151.49351562 241.64851562 -150.5625 241.3125 C-159.23341954 231.68989417 -174.01217737 227.60507035 -186.5625 226.9375 C-199.03472973 227.57710152 -213.34638814 231.33579274 -221.5625 241.3125 Z M-284.5625 363.3125 C-279.14860266 398.65324947 -279.14860266 398.65324947 -273.62988281 433.9777832 C-273.15734401 436.96724452 -272.69294565 439.95782773 -272.234375 442.94946289 C-271.66340959 446.67293076 -271.07801549 450.39386415 -270.48237991 454.11346245 C-270.26278343 455.5004427 -270.04823614 456.88823348 -269.83918381 458.27684212 C-268.21373291 469.42856095 -268.21373291 469.42856095 -261.5625 478.125 C-257.21173993 480.70826379 -252.74362593 480.4351227 -247.8125 480.375 C-245.39583615 480.35384259 -242.97916966 480.33298294 -240.5625 480.3125 C-241.0858042 469.31150751 -242.36797552 458.5107375 -243.92114639 447.61269951 C-244.3298504 444.74159088 -244.73104063 441.86951635 -245.13034058 438.99708557 C-246.2651397 430.84286238 -247.41277447 422.69046604 -248.56591797 414.53881836 C-249.27487415 409.52348156 -249.97511516 404.50698873 -250.67013168 399.48970222 C-250.93544478 397.58786345 -251.20417791 395.68649843 -251.47644424 393.78564262 C-251.85588124 391.1360757 -252.22428254 388.48518494 -252.59033203 385.83374023 C-252.70456512 385.05601257 -252.81879822 384.27828491 -252.93649292 383.47698975 C-253.5150631 379.19140894 -253.64619055 375.51663456 -252.5625 371.3125 C-250.28090395 368.77739328 -248.95333243 368.36135405 -245.5625 367.9375 C-242.17505459 368.36093068 -241.03044405 369.01900664 -238.5625 371.3125 C-237.83998108 373.23814392 -237.83998108 373.23814392 -237.50024414 375.62475586 C-237.35257599 376.61031464 -237.20490784 377.59587341 -237.05276489 378.61129761 C-236.81008377 380.44339279 -236.81008377 380.44339279 -236.5625 382.3125 C-236.34310836 383.87408102 -236.12272488 385.43552288 -235.90158081 386.99685669 C-235.2392955 391.72639584 -234.60356003 396.45920617 -233.97405815 401.19320869 C-233.55193591 404.36645563 -233.12639823 407.5392283 -232.69996643 410.7118988 C-231.48934126 419.72404899 -230.28535369 428.73708381 -229.08227539 437.75024414 C-228.34377997 443.28109661 -227.60184292 448.81147891 -226.85786629 454.3415966 C-226.4379889 457.4711471 -226.02224552 460.60122993 -225.60655212 463.7313385 C-225.35047472 465.6367591 -225.09418465 467.54215114 -224.83764648 469.44750977 C-224.72282425 470.32070862 -224.60800201 471.19390747 -224.48970032 472.09356689 C-223.99091291 476.33280463 -223.99091291 476.33280463 -222.5625 480.3125 C-213.3225 480.3125 -204.0825 480.3125 -194.5625 480.3125 C-194.54791748 477.02627686 -194.53333496 473.74005371 -194.51831055 470.35424805 C-194.4680415 459.51354671 -194.40146025 448.67299018 -194.32678509 437.83243084 C-194.28199998 431.25784714 -194.24276182 424.68332658 -194.21606445 418.10864258 C-194.19011274 411.76728815 -194.14976814 405.42617565 -194.09931374 399.08497047 C-194.08258989 396.66202611 -194.07111012 394.23903985 -194.06488609 391.81604576 C-194.05530503 388.43008247 -194.02731732 385.04474593 -193.99487305 381.65893555 C-193.99702568 380.14626854 -193.99702568 380.14626854 -193.9992218 378.6030426 C-193.98041458 377.22114243 -193.98041458 377.22114243 -193.96122742 375.81132507 C-193.95661845 375.01028697 -193.95200949 374.20924887 -193.94726086 373.38393688 C-193.46316944 370.77773409 -192.64253261 369.91329589 -190.5625 368.3125 C-186.93954882 367.20986268 -185.24080486 367.01103117 -181.75 368.5625 C-179.5625 370.3125 -179.5625 370.3125 -178.5625 373.3125 C-178.46246389 374.78434649 -178.41638753 376.26020489 -178.40428162 377.73539734 C-178.3944928 378.63983582 -178.38470398 379.54427429 -178.37461853 380.47612 C-178.36886307 381.46586319 -178.3631076 382.45560638 -178.35717773 383.4753418 C-178.34727814 384.51941193 -178.33737854 385.56348206 -178.32717896 386.63919067 C-178.29554415 390.09667682 -178.2707986 393.55417671 -178.24609375 397.01171875 C-178.22552594 399.40640117 -178.20452952 401.80107995 -178.18312073 404.195755 C-178.12788222 410.50368297 -178.07848074 416.8116438 -178.03027344 423.11962891 C-177.98007144 429.55439179 -177.92437858 435.98910685 -177.86914062 442.42382812 C-177.76153726 455.05334612 -177.66060436 467.68290464 -177.5625 480.3125 C-168.3225 480.3125 -159.0825 480.3125 -149.5625 480.3125 C-149.28575439 478.28440186 -149.00900879 476.25630371 -148.72387695 474.16674805 C-147.78692947 467.30165308 -146.84875417 460.43672626 -145.91004658 453.57187176 C-145.34352734 449.42860548 -144.777364 445.28529137 -144.2121582 441.1418457 C-143.00576684 432.30000473 -141.79180362 423.45928269 -140.56640816 414.62005424 C-139.87942432 409.6508324 -139.21064176 404.67950168 -138.55399418 399.70618343 C-138.12097568 396.44181314 -137.67787738 393.1788594 -137.23277855 389.91611671 C-137.02453786 388.3721636 -136.82075083 386.82760261 -136.62163734 385.28244591 C-136.34680593 383.15375503 -136.05648022 381.02772266 -135.76245117 378.90161133 C-135.60250168 377.6972493 -135.44255219 376.49288727 -135.27775574 375.25202942 C-134.53728103 372.20885607 -134.09025095 371.09045815 -131.5625 369.3125 C-127.39457566 368.07755946 -125.453018 367.84868854 -121.5625 369.875 C-116.16595819 379.15030623 -121.84376851 397.57877082 -123.28515625 408.0078125 C-123.5532332 409.97355952 -123.82083847 411.93937092 -124.08799744 413.90524292 C-124.786253 419.03656442 -125.48931201 424.16721424 -126.19390869 429.29766846 C-127.32589407 437.54242619 -128.45273093 445.78788073 -129.57525444 454.03393173 C-129.96728226 456.90594244 -130.36277573 459.77746121 -130.75856018 462.6489563 C-130.9981091 464.40283416 -131.23753153 466.1567293 -131.47680664 467.91064453 C-131.58744446 468.70648453 -131.69808228 469.50232452 -131.81207275 470.32228088 C-132.27000256 473.7001185 -132.5625 476.89561466 -132.5625 480.3125 C-120.6516976 480.98548761 -120.6516976 480.98548761 -109.5625 477.3125 C-106.27973179 473.1332492 -104.92819164 469.73042531 -104.08618164 464.51391602 C-103.97658615 463.86057785 -103.86699066 463.20723969 -103.7540741 462.53410339 C-103.39633067 460.38022993 -103.05945552 458.22364533 -102.72265625 456.06640625 C-102.4725779 454.53478058 -102.22120334 453.00336606 -101.96861267 451.47215271 C-101.30493637 447.42711912 -100.65888923 443.37946116 -100.01654053 439.33099365 C-99.37894448 435.33158176 -98.72499499 431.33485533 -98.07226562 427.33789062 C-96.92371198 420.29123721 -95.79173941 413.242046 -94.66654396 406.19162941 C-93.81533602 400.86737083 -92.94655482 395.5461839 -92.06982422 390.22607422 C-91.719193 388.08906647 -91.36888673 385.95200574 -91.01870537 383.81492424 C-90.69234826 381.83057383 -90.36210424 379.84686391 -90.03175354 377.86317444 C-89.74037758 376.08033302 -89.74037758 376.08033302 -89.44311523 374.26147461 C-89.27222885 373.228004 -89.10134247 372.19453339 -88.92527771 371.12974548 C-88.45607014 367.95940883 -88.45607014 367.95940883 -88.5625 363.3125 C-153.2425 363.3125 -217.9225 363.3125 -284.5625 363.3125 Z " fill="#000000" transform="translate(341.5625,7.6875)"/>
</svg>
