<?xml version="1.0" encoding="UTF-8"?>
<svg version="1.1" xmlns="http://www.w3.org/2000/svg" width="209" height="215">
<path d="M0 0 C1.94921875 1.7421875 1.94921875 1.7421875 3.6875 3.875 C4.26886719 4.57367188 4.85023438 5.27234375 5.44921875 5.9921875 C9.01476031 10.60853098 9.01476031 10.60853098 8.91015625 13.3828125 C7.73337827 16.76668052 6.02149834 18.4054077 3.4375 20.875 C2.06658203 22.19371094 2.06658203 22.19371094 0.66796875 23.5390625 C-2.06071898 26.05600726 -4.84908381 28.4809252 -7.671875 30.890625 C-10.89746787 33.81314203 -13.93893291 36.90676194 -17 40 C-21.14507369 44.18845489 -25.30916372 48.22670728 -29.8125 52.03125 C-32.99820751 54.89838676 -35.98584758 57.95431879 -39 61 C-43.14508331 65.18844192 -47.30916359 69.22670717 -51.8125 73.03125 C-55.64682379 76.48214142 -59.21995866 80.20113967 -62.84741211 83.86694336 C-66.56697635 87.61065735 -70.35105713 91.20072972 -74.390625 94.6015625 C-75.96678137 95.97113527 -77.38388763 97.41644801 -78.8125 98.9375 C-81 101 -81 101 -84 101 C-85.01461206 104.32818605 -85.84567759 107.51444206 -86 111 C-83.83200792 114.17281852 -83.83200792 114.17281852 -81 116 C-82.57844032 120.30761454 -85.88522186 122.73103037 -89.3125 125.5625 C-89.93697021 126.0877124 -90.56144043 126.6129248 -91.20483398 127.15405273 C-92.50081627 128.24343626 -93.79909944 129.33008812 -95.09960938 130.4140625 C-97.400143 132.33393229 -99.68527662 134.27145632 -101.96948242 136.21069336 C-103.57274092 137.57119027 -105.17851921 138.9286514 -106.78515625 140.28515625 C-110.02546475 143.02104458 -113.26293641 145.76027372 -116.5 148.5 C-117.58332099 149.41668126 -118.66665432 150.33334793 -119.75 151.25 C-120.28625 151.70375 -120.8225 152.1575 -121.375 152.625 C-123 154 -124.625 155.375 -126.25 156.75 C-126.7860083 157.20358887 -127.3220166 157.65717773 -127.87426758 158.12451172 C-128.95986955 159.04301022 -130.0456449 159.96130386 -131.1315918 160.87939453 C-133.80665986 163.14140356 -136.47882216 165.40665372 -139.14453125 167.6796875 C-141.84661247 169.98307353 -144.56465966 172.26685239 -147.28564453 174.54785156 C-149.03841123 176.03253631 -150.7669566 177.54258687 -152.49609375 179.0546875 C-163.26596006 188.30554382 -175.1126826 195.41058857 -187.39135742 202.48876953 C-189.18309743 203.52675462 -190.95613909 204.5974901 -192.7121582 205.69482422 C-195 207 -195 207 -197 207 C-197.185625 208.2065625 -197.185625 208.2065625 -197.375 209.4375 C-197.58125 210.283125 -197.7875 211.12875 -198 212 C-198.66 212.33 -199.32 212.66 -200 213 C-200.59406689 205.71622338 -198.6342697 200.48529168 -195.6875 193.875 C-195.23745605 192.85889648 -194.78741211 191.84279297 -194.32373047 190.79589844 C-188.45918928 178.06204493 -180.37801439 168.75096719 -169.91796875 159.59375 C-167.08203567 157.0729206 -164.40992797 154.45473533 -161.75 151.75 C-158.97792329 148.9427781 -156.19363881 146.24177661 -153.1875 143.6875 C-149.42865137 140.477611 -145.97257321 137.01210165 -142.5 133.5 C-138.49087701 129.44534466 -134.44135492 125.56021844 -130.08984375 121.87109375 C-126.72503925 118.85849309 -123.59454812 115.61427958 -120.42163086 112.40209961 C-117.69675921 109.65658173 -114.94967675 107.00722524 -112 104.5 C-108.43802403 101.45436089 -105.08249035 98.22974288 -101.75 94.9375 C-101.24210937 94.4425 -100.73421875 93.9475 -100.2109375 93.4375 C-97.86902375 91.10178179 -95.96649638 88.94832493 -94.15625 86.15625 C-91.16943922 81.78425161 -87.51583927 78.26612105 -83.75 74.5625 C-82.66138672 73.47485352 -82.66138672 73.47485352 -81.55078125 72.36523438 C-78.25323359 69.09413763 -74.9347399 65.90526272 -71.390625 62.90234375 C-64.55629628 57.00786167 -58.34499262 50.40945553 -52 44 C-37.01959868 28.86740302 -37.01959868 28.86740302 -30.96777344 23.74511719 C-26.30419652 19.60923036 -22.00103073 15.06158865 -17.625 10.625 C-15.66173429 8.63514379 -13.69516169 6.64864065 -11.7265625 4.6640625 C-10.86627441 3.79217285 -10.00598633 2.9202832 -9.11962891 2.02197266 C-5.8149801 -1.13042327 -4.33504949 -1.33886086 0 0 Z M-94 93 C-94.7734375 93.78503906 -95.546875 94.57007812 -96.34375 95.37890625 C-105.79462648 104.92721444 -105.79462648 104.92721444 -110 108.5 C-113.52077694 111.4926604 -116.7554753 114.7153265 -120 118 C-123.22398087 121.26382615 -126.43517847 124.46830141 -129.9375 127.4375 C-133.65957668 130.6000996 -137.0686634 134.02970414 -140.5 137.5 C-144.50912858 141.55464806 -148.55864499 145.43978149 -152.91015625 149.12890625 C-156.27221399 152.13904766 -159.40156161 155.3794336 -162.56958008 158.59130859 C-165.37077685 161.41693312 -168.2073928 164.11805415 -171.25 166.6875 C-181.1508433 175.19154383 -188.5013111 185.72122559 -193 198 C-193 198.66 -193 199.32 -193 200 C-175.02052915 193.56116797 -159.9485531 179.99308415 -145.83740234 167.60351562 C-143.0419331 165.16388741 -140.21164084 162.76651704 -137.375 160.375 C-136.84656494 159.92914551 -136.31812988 159.48329102 -135.77368164 159.02392578 C-134.71360122 158.12994465 -133.6532995 157.23622586 -132.59277344 156.34277344 C-129.89185188 154.06578561 -127.19622756 151.78254206 -124.5 149.5 C-123.41669135 148.58330416 -122.33335804 147.66663747 -121.25 146.75 C-120.71375 146.29625 -120.1775 145.8425 -119.625 145.375 C-118 144 -116.375 142.625 -114.75 141.25 C-114.21310547 140.79568604 -113.67621094 140.34137207 -113.12304688 139.87329102 C-112.04629813 138.9622333 -110.96947593 138.05126238 -109.89257812 137.14038086 C-107.08287331 134.76362601 -104.27469205 132.38510268 -101.46875 130.00390625 C-100.88802734 129.51148438 -100.30730469 129.0190625 -99.70898438 128.51171875 C-98.60564178 127.57608423 -97.50274465 126.63992403 -96.40039062 125.703125 C-93.30792461 123.08185419 -90.1774981 120.51746633 -87 118 C-87.309375 117.4225 -87.61875 116.845 -87.9375 116.25 C-90.38808035 111.06053573 -89.65388014 108.54536284 -88 103 C-87.33256123 100.41344667 -87.33256123 100.41344667 -88 98 C-89.36744774 96.62324715 -89.36744774 96.62324715 -91.03125 95.3515625 C-92.50078125 94.18753906 -92.50078125 94.18753906 -94 93 Z " fill="#363636" transform="translate(200,1)"/>
</svg>
