<?xml version="1.0" encoding="UTF-8"?>
<svg version="1.1" xmlns="http://www.w3.org/2000/svg" width="512" height="512">
<path d="M0 0 C0.94641959 -0.00297112 1.89283919 -0.00594224 2.86793816 -0.0090034 C6.05309108 -0.01770531 9.23820648 -0.0191999 12.42337036 -0.02069092 C14.70138632 -0.02531799 16.9794015 -0.03034249 19.25741577 -0.03573608 C25.45572298 -0.04887164 31.65401936 -0.05530714 37.85233831 -0.05974674 C41.7220369 -0.06267522 45.59173251 -0.06677957 49.4614296 -0.07125092 C60.1741954 -0.08336048 70.88695731 -0.09374263 81.59972954 -0.09712601 C82.28535218 -0.09734557 82.97097481 -0.09756514 83.67737389 -0.09779136 C84.36464023 -0.09800964 85.05190657 -0.09822791 85.75999916 -0.09845281 C87.15267237 -0.09889627 88.54534559 -0.09934284 89.9380188 -0.09979248 C90.62883337 -0.10001391 91.31964794 -0.10023534 92.03139628 -0.10046348 C103.22788161 -0.10441245 114.4243019 -0.12186985 125.62076209 -0.145152 C137.11424274 -0.16885905 148.60768146 -0.18106949 160.10118783 -0.18249393 C166.55511545 -0.18354374 173.00895133 -0.1894892 179.46285629 -0.20731354 C185.53177708 -0.22374841 191.60053668 -0.22597202 197.66947174 -0.21717453 C199.89915777 -0.21640173 202.1288523 -0.22077866 204.35851669 -0.23063278 C207.39805918 -0.24328035 210.43702458 -0.23751455 213.4765625 -0.22705078 C214.36265194 -0.23510719 215.24874138 -0.24316359 216.16168201 -0.25146413 C222.11884538 -0.20337024 225.54253599 0.81771299 229.86526489 5.14044189 C230.97610492 8.33898678 230.99562233 11.38543047 231.00570679 14.75090027 C231.01141693 15.89349808 231.01712708 17.03609589 231.02301025 18.21331787 C231.02468704 20.08751404 231.02468704 20.08751404 231.02639771 21.99957275 C231.03136261 23.31861099 231.03632751 24.63764923 231.04144287 25.99665833 C231.05454368 29.61234385 231.06100693 33.22801084 231.06545353 36.84371638 C231.06838712 39.10315051 231.0724924 41.3625796 231.0769577 43.62201118 C231.09062458 50.69292169 231.10029602 57.76382064 231.10415959 64.83474344 C231.10864289 72.9945493 231.12620668 81.15418786 231.15516019 89.31394285 C231.17677298 95.62403168 231.1868636 101.93407341 231.18820071 108.24419886 C231.18924874 112.01200043 231.19515641 115.77964457 231.21302032 119.54740715 C231.22949486 123.09084876 231.23165971 126.63401444 231.22288132 130.1774807 C231.22174356 132.09568664 231.23546447 134.01388341 231.24963379 135.93203735 C231.24128006 137.6501638 231.24128006 137.6501638 231.23275757 139.40299988 C231.23422413 140.39610641 231.23569069 141.38921293 231.23720169 142.4124136 C230.79358539 145.66618634 229.79935645 147.5036197 227.86526489 150.14044189 C221.10199012 155.01995793 213.41638224 158.567954 205.97439575 162.29864502 C203.79933486 163.39216636 201.6321979 164.50043114 199.46487427 165.60919189 C198.06624712 166.31323424 196.66717338 167.01639023 195.26760864 167.71856689 C194.62887314 168.04770081 193.99013763 168.37683472 193.33204651 168.71594238 C189.17761126 170.772609 185.49301006 171.83817063 180.86526489 172.14044189 C175.54618614 170.23360234 175.54618614 170.23360234 173.71343899 167.29128456 C172.80728119 164.99340391 172.61253429 163.37453934 172.60697937 160.91445923 C172.60015137 160.07884964 172.59332336 159.24324005 172.58628845 158.38230896 C172.5888414 157.47410904 172.59139435 156.56590912 172.59402466 155.63018799 C172.58879791 154.66721298 172.58357117 153.70423798 172.57818604 152.71208191 C172.56794972 150.62282312 172.56216627 148.53353886 172.56030464 146.44425583 C172.55664644 143.14157898 172.5399366 139.83920385 172.51954651 136.53659058 C172.46406763 127.14743642 172.43337758 117.75823842 172.40896606 108.36895752 C172.39313367 102.62601626 172.362965 96.88329079 172.32420158 91.14046097 C172.31251784 88.94834297 172.30662094 86.75618646 172.30652046 84.56403732 C172.30632943 81.50642956 172.28813963 78.4494218 172.26589966 75.39190674 C172.27047684 74.47965836 172.27505402 73.56740997 172.2797699 72.6275177 C172.28327437 69.86463969 172.28327437 69.86463969 171.86526489 66.14044189 C168.6261226 63.9810137 167.61666756 63.86811212 163.86526489 63.89044189 C162.99901489 63.88528564 162.13276489 63.88012939 161.24026489 63.87481689 C158.59946989 63.98629638 158.59946989 63.98629638 155.86526489 66.14044189 C155.41714843 68.28959843 155.41714843 68.28959843 155.50018311 70.8203125 C155.49221458 72.30073532 155.49221458 72.30073532 155.48408508 73.81106567 C155.49802055 75.44122116 155.49802055 75.44122116 155.51223755 77.10430908 C155.50899727 78.81667252 155.50899727 78.81667252 155.50569153 80.56362915 C155.50259682 83.04962953 155.50623308 85.53564508 155.51570511 88.02162933 C155.52939025 91.95538477 155.52303673 95.88863267 155.51086426 99.8223877 C155.48072022 110.30369046 155.48217967 120.78494101 155.50111711 131.26626515 C155.51464545 138.80821366 155.50550308 146.34967592 155.47501755 153.89157867 C155.46957067 156.49907443 155.47365682 159.10660804 155.48741531 161.71407318 C155.50643842 165.36280249 155.49507674 169.01028901 155.4770813 172.65899658 C155.49708946 174.27700668 155.49708946 174.27700668 155.51750183 175.92770386 C155.42779553 184.10405131 155.42779553 184.10405131 152.60205078 187.65800476 C150.27995244 189.76429418 148.0893001 191.63737167 145.46487427 193.34088135 C144.62629883 193.89198074 143.78772339 194.44308014 142.92373657 195.01087952 C142.02787842 195.58601791 141.13202026 196.16115631 140.20901489 196.75372314 C139.27029541 197.3675737 138.33157593 197.98142426 137.3644104 198.61387634 C134.370459 200.56925081 131.36827138 202.5115093 128.36526489 204.45294189 C125.39980303 206.38165238 122.43612143 208.31306371 119.47317505 210.24563599 C117.5590311 211.49323034 115.64335744 212.73848108 113.72610474 213.98129272 C109.69430166 216.60152896 105.68457072 219.23332226 101.77151489 222.02862549 C101.17826416 222.45209763 100.58501343 222.87556976 99.9737854 223.31187439 C98.47573284 224.39357975 96.98919404 225.49118481 95.50393677 226.59039307 C92.53945302 228.33183527 90.27774984 228.86835105 86.86526489 229.14044189 C83.41106873 228.17648017 81.11394137 226.9512875 78.86526489 224.14044189 C77.76390082 220.83634966 77.73505346 218.38905283 77.72723389 214.90873718 C77.72178055 213.60330963 77.71632721 212.29788208 77.71070862 210.95289612 C77.70958886 209.50296026 77.70853834 208.05302434 77.70755005 206.60308838 C77.70288181 205.07881524 77.69773823 203.55454349 77.69215393 202.03027344 C77.68087428 198.74652169 77.67243963 195.46277902 77.6660347 192.17901421 C77.65536276 186.99042748 77.63512185 181.80190613 77.61291504 176.61335754 C77.5509579 161.85882548 77.49691748 147.10429772 77.46389771 132.34967041 C77.44558358 124.20195539 77.41669199 116.05435024 77.375893 107.90671593 C77.35477589 103.59297395 77.33935905 99.27937067 77.33708572 94.96557426 C77.33494669 90.91159073 77.31915443 86.85789641 77.292696 82.80400085 C77.28547404 81.31323908 77.28341597 79.82244237 77.28679848 78.33166695 C77.29066783 76.30281209 77.27454028 74.27394795 77.25726318 72.24516296 C77.25395304 71.10787971 77.25064289 69.97059645 77.24723244 68.79885006 C77.12118315 67.92157537 76.99513386 67.04430067 76.86526489 66.14044189 C73.6261226 63.9810137 72.61666756 63.86811212 68.86526489 63.89044189 C67.56588989 63.88270752 67.56588989 63.88270752 66.24026489 63.87481689 C63.59946989 63.98629638 63.59946989 63.98629638 60.86526489 66.14044189 C60.36640246 68.94942625 60.36640246 68.94942625 60.38870239 72.34210205 C60.37348541 72.99724667 60.35826843 73.65239128 60.34259033 74.32738876 C60.29429226 76.5697203 60.26749275 78.81182449 60.24026489 81.05450439 C60.20961261 82.6884496 60.17766819 84.32237098 60.14456177 85.95626831 C60.05379262 90.63874974 59.98252851 95.3213815 59.91348267 100.00422668 C59.8274862 105.597671 59.72380605 111.19080178 59.62307739 116.78399658 C59.3056375 134.67229105 59.02196666 152.56112457 58.74026489 170.45001221 C58.63801025 176.93128474 58.53265897 183.41250151 58.42556763 189.89369583 C58.38611113 192.31965865 58.34781592 194.74564069 58.31082153 197.1716423 C58.1283753 209.13370695 57.89448741 221.09328193 57.45901489 233.0491333 C57.43005127 234.01062979 57.40108765 234.97212627 57.37124634 235.96275902 C57.31704529 237.29372581 57.31704529 237.29372581 57.26174927 238.65158081 C57.23351074 239.42529337 57.20527222 240.19900593 57.17617798 240.99616432 C56.69147148 244.3390448 55.63476395 246.49840173 53.04182434 248.66184998 C52.30382095 249.14100357 51.56581757 249.62015717 50.80545044 250.11383057 C49.96664841 250.66508102 49.12784637 251.21633148 48.2636261 251.7842865 C46.89661308 252.66247795 46.89661308 252.66247795 45.50198364 253.55841064 C44.08753716 254.48343132 44.08753716 254.48343132 42.64451599 255.42713928 C39.61961381 257.4029556 36.58656854 259.36582704 33.55276489 261.32794189 C30.56708633 263.27016674 27.58315691 265.21504633 24.59991455 267.16101074 C22.66987185 268.41926526 20.73846734 269.67543351 18.80566406 270.92944336 C12.54989776 274.99811337 6.41923731 279.19676966 0.39968872 283.60699463 C-2.85255262 285.57475572 -5.49267403 286.19957007 -9.25973511 285.77716064 C-12.48027701 284.68351829 -14.14454558 282.81475907 -16.13473511 280.14044189 C-17.08326167 277.29486219 -17.26080591 275.54866466 -17.26336956 272.59980965 C-17.26820623 271.19515015 -17.26820623 271.19515015 -17.27314061 269.76211369 C-17.27159201 268.73148867 -17.27004341 267.70086365 -17.26844788 266.63900757 C-17.27071343 265.54558009 -17.27297899 264.45215261 -17.2753132 263.32559097 C-17.28166921 259.64293304 -17.28082281 255.96031175 -17.27999878 252.27764893 C-17.28298927 249.64495801 -17.28639154 247.01226753 -17.29017639 244.37957764 C-17.29848948 237.95937949 -17.30123153 231.53919053 -17.30178877 225.11898746 C-17.30226363 219.90123195 -17.30431685 214.68347949 -17.3074894 209.46572495 C-17.31629782 194.67831855 -17.32090849 179.89091943 -17.32015892 165.10351039 C-17.32011896 164.30600541 -17.32007901 163.50850042 -17.32003784 162.68682861 C-17.31999696 161.88835191 -17.31995608 161.08987521 -17.31991396 160.26720224 C-17.31950745 147.32477233 -17.3290777 134.3823715 -17.34317621 121.43995 C-17.3575322 108.15653304 -17.36444682 94.87313027 -17.36358243 81.58970535 C-17.36325019 74.12975898 -17.36600917 66.66984311 -17.37676048 59.20990372 C-17.38585528 52.85855732 -17.38804917 46.50725523 -17.38125106 40.15590514 C-17.37798064 36.91480254 -17.37902973 33.67380288 -17.38660431 30.43270493 C-17.3942827 26.92034102 -17.3897069 23.4082023 -17.38197327 19.89584351 C-17.38711683 18.86967993 -17.39226039 17.84351635 -17.39755982 16.78625691 C-17.3706956 11.28550442 -17.33412514 6.81796019 -13.69723511 2.39044189 C-9.74443208 -0.77180053 -4.78449391 -0.00465518 0 0 Z M2.86526489 20.14044189 C2.86526489 98.35044189 2.86526489 176.56044189 2.86526489 257.14044189 C6.49526489 254.83044189 10.12526489 252.52044189 13.86526489 250.14044189 C15.88185829 248.93619792 17.90377167 247.74071326 19.93557739 246.56231689 C21.95426152 245.33910907 23.97248958 244.1151483 25.99026489 242.89044189 C27.02924927 242.29876221 28.06823364 241.70708252 29.13870239 241.09747314 C30.12354614 240.48774658 31.10838989 239.87802002 32.12307739 239.24981689 C33.01140259 238.72355713 33.89972778 238.19729736 34.81497192 237.65509033 C39.70787616 231.65402894 38.04477484 220.22673912 38.14651489 212.72613525 C38.16456177 211.64107193 38.18260864 210.55600861 38.20120239 209.43806458 C38.2596722 205.86885439 38.31242697 202.29958326 38.36526489 198.73028564 C38.40587707 196.20102804 38.44690077 193.671777 38.48831177 191.14253235 C38.58561333 185.1510117 38.67951444 179.15944805 38.77150726 173.16784436 C38.88378321 165.85854336 38.99912514 158.54929187 39.11526489 151.24005127 C39.13579926 149.94614283 39.15633362 148.65223438 39.17749023 147.31911659 C39.33993443 137.13648327 39.51065968 126.95400184 39.68682861 116.77159691 C39.8037777 109.96757562 39.90866974 103.16355382 40.00106812 96.35915661 C40.05696504 92.43910935 40.12432812 88.519324 40.19509888 84.59951973 C40.22471225 82.82585781 40.24946128 81.05210653 40.26882935 79.27830315 C40.3770031 69.58711751 40.49938182 61.0643961 45.42776489 52.39044189 C53.26345365 45.15749842 62.06621903 43.83655574 72.31448364 43.92169189 C80.5690586 44.43022456 87.37664881 47.45801381 93.11526489 53.51544189 C96.21401973 58.16357415 97.11353124 62.57318269 97.14373779 68.10098267 C97.15490128 69.27038391 97.16606476 70.43978516 97.17756653 71.6446228 C97.17972672 72.91345306 97.1818869 74.18228333 97.18411255 75.48956299 C97.19341874 76.85004263 97.20358843 78.2105166 97.21455383 79.57098389 C97.24179019 83.25231736 97.25698428 86.93361269 97.26998186 90.61502028 C97.28564034 94.4667697 97.31242187 98.31844157 97.3380127 102.1701355 C97.38475245 109.45851252 97.42151976 116.74690421 97.45468557 124.03535426 C97.49294095 132.33526254 97.54234214 140.63509284 97.59266973 148.93493533 C97.69591811 166.00338107 97.78520152 183.07187198 97.86526489 200.14044189 C98.58164564 199.66275108 99.29802639 199.18506027 100.03611565 198.69289398 C105.11030448 195.37424264 109.72068497 192.53266338 115.56106567 190.75958252 C123.47410448 187.6452801 130.79432411 183.95237661 134.86526489 176.14044189 C139.96779512 159.48205803 137.5389991 139.80337944 136.88095093 122.65167236 C136.58714796 114.67675144 136.49081653 106.6957176 136.36723518 98.71674347 C136.26966263 92.51006276 136.14372609 86.30891671 135.92651367 80.10516357 C135.89373825 78.9642627 135.86096283 77.82336182 135.82719421 76.64788818 C135.76600057 74.53335886 135.68922453 72.41919153 135.59294128 70.30596924 C135.39466815 62.37031789 137.01062237 56.27358612 142.42776489 50.32794189 C150.91688742 44.23101599 160.67903759 42.98422994 170.86526489 44.14044189 C178.50952598 45.99245076 184.89770827 48.69274345 189.11526489 55.57794189 C191.82578916 61.09579486 192.02332385 66.07145866 192.07058716 72.14361572 C192.08048676 72.93438507 192.09038635 73.72515442 192.10058594 74.53988647 C192.13206415 77.14238536 192.15690404 79.74490247 192.18167114 82.34747314 C192.20225249 84.15637169 192.22324927 85.96526556 192.24464417 87.77415466 C192.29974286 92.52682698 192.34920579 97.27954183 192.39749146 102.0322876 C192.44779575 106.88543466 192.50343515 111.73852024 192.55862427 116.59161377 C192.66605653 126.10783724 192.76753446 135.62411418 192.86526489 145.14044189 C200.04377619 142.90473963 200.04377619 142.90473963 210.86526489 137.14044189 C210.86526489 98.53044189 210.86526489 59.92044189 210.86526489 20.14044189 C142.22526489 20.14044189 73.58526489 20.14044189 2.86526489 20.14044189 Z " fill="#000000" transform="translate(149.13473510742188,188.85955810546875)"/>
<path d="M0 0 C0.65529521 -0.00205263 1.31059041 -0.00410527 1.98574305 -0.0062201 C4.17290036 -0.01185678 6.35999403 -0.010437 8.54715729 -0.00901413 C10.13468196 -0.01159969 11.72220598 -0.01461338 13.3097291 -0.01801753 C17.66596521 -0.02606853 22.02218483 -0.02787604 26.37842751 -0.028615 C31.0793896 -0.03046889 35.78034319 -0.03801797 40.48130035 -0.04475021 C50.75842357 -0.05832104 61.03554288 -0.06435644 71.31267357 -0.06876087 C77.73330899 -0.07152568 84.15394292 -0.07576349 90.57457733 -0.08026505 C108.36120001 -0.09245659 126.14782148 -0.1027558 143.93444824 -0.10614014 C145.07242691 -0.1063597 146.21040557 -0.10657927 147.38286844 -0.10680549 C148.52352977 -0.10702377 149.66419111 -0.10724204 150.83941793 -0.10746694 C153.15072982 -0.1079104 155.4620417 -0.10835696 157.77335358 -0.10880661 C158.91983771 -0.10902804 160.06632185 -0.10924947 161.24754792 -0.10947761 C179.81531808 -0.11342372 198.38304895 -0.13087258 216.95080394 -0.15416613 C236.02683887 -0.17790357 255.10285412 -0.19034309 274.17890406 -0.19150805 C284.88417101 -0.19242352 295.58938677 -0.19814344 306.29463959 -0.21632767 C315.41240218 -0.23176102 324.53009778 -0.23683009 333.64787096 -0.22858956 C338.29578997 -0.22469438 342.94357419 -0.22555711 347.59147644 -0.23964691 C351.85543486 -0.25245401 356.11915813 -0.25112912 360.38311654 -0.2390562 C361.91681368 -0.23711091 363.45052788 -0.24012292 364.98420113 -0.24890056 C387.38477522 -0.3688769 406.70794087 5.38330746 423.40225983 20.81892776 C437.70348572 36.0574433 442.78851618 53.70289864 442.49210358 74.16658401 C441.83769595 91.28708232 433.3396985 105.40502706 421.15225983 117.13142776 C407.44180682 128.69962249 391.64675562 132.258427 374.15225983 131.13142776 C370.32015907 130.48248116 366.79257395 129.48205387 363.15225983 128.13142776 C362.36335358 127.8413887 361.57444733 127.55134964 360.76163483 127.25252151 C355.22284758 125.00121173 350.76643677 121.89288207 346.15225983 118.13142776 C345.55542389 117.69185745 344.95858795 117.25228714 344.34366608 116.79939651 C334.93592263 109.52882419 330.16447316 98.34796553 327.40225983 87.06892776 C326.05740068 71.26683279 329.70566435 57.65783826 339.90225983 45.31892776 C348.15335115 36.55018243 358.40718187 32.23740227 370.30631256 31.67805862 C381.91983221 31.43422195 391.18363317 34.6536098 400.18350983 42.18611526 C407.62704121 49.54103318 411.20982561 58.13790053 411.58975983 68.50642776 C411.32939308 77.80369046 408.67886993 85.60310716 402.22257233 92.40877151 C395.19063456 98.25987445 387.17714684 100.88946106 378.15225983 100.13142776 C371.11131849 98.83284467 365.79921765 95.57469527 361.15225983 90.13142776 C357.9853537 84.9134717 357.3394516 79.12171304 358.15225983 73.13142776 C359.87240207 68.42367004 362.39366112 65.42020163 366.15225983 62.13142776 C371.36319464 60.39444949 376.94133518 60.28469067 382.08975983 62.25642776 C385.91335072 65.73241948 387.09179452 68.88181141 387.33975983 74.00642776 C387.27788483 75.03767776 387.21600983 76.06892776 387.15225983 77.13142776 C389.83955626 73.54836585 390.70403712 70.62574867 390.49210358 66.11580276 C389.64708939 61.18169695 386.51427091 58.12879851 382.65225983 55.25642776 C377.37556992 52.21445541 372.06593318 52.28661729 366.15225983 53.13142776 C358.5756886 55.28530253 354.17298512 60.64741864 350.33975983 67.25642776 C346.90150583 75.58062164 347.80179377 82.98007744 351.15225983 91.13142776 C355.13318383 99.68304229 361.40976283 104.8206826 370.07413483 108.40486526 C378.95809778 111.51091246 387.89186017 110.95405266 396.55460358 107.38924026 C407.15353607 102.25712558 414.5671734 95.12913439 419.14444733 84.18611526 C423.40953257 71.25860884 422.53676628 59.9051859 416.63272858 47.76814651 C409.49687787 35.05917757 398.1903776 26.15007657 384.15225983 22.13142776 C379.86269638 21.29454944 375.80944809 21.00544698 371.44204235 21.00279331 C370.78948016 21.00104027 370.13691797 20.99928724 369.46458116 20.99748108 C367.28075599 20.99283394 365.09699777 20.99528325 362.91316986 20.997715 C361.33048187 20.99584638 359.74779434 20.99354547 358.16510755 20.99084967 C353.81782955 20.98473158 349.47057079 20.98486528 345.12328947 20.98604405 C340.4340144 20.98624805 335.74474552 20.98072934 331.05547333 20.97598648 C321.86905101 20.96767936 312.68263511 20.96493161 303.49620935 20.9643741 C296.02932278 20.96389898 288.56243834 20.96184442 281.09555244 20.95867348 C259.92698032 20.9498668 238.75841327 20.94525413 217.5898393 20.94600395 C215.87796524 20.94606389 215.87796524 20.94606389 214.13150787 20.94612503 C212.9888656 20.94616591 211.84622333 20.94620679 210.66895554 20.94624891 C192.14881005 20.9466554 173.62868488 20.93708509 155.10854527 20.92298666 C136.09359174 20.90862574 117.07864814 20.90171632 98.06368905 20.90258044 C87.38767502 20.9029125 76.71168229 20.90016129 66.03567314 20.88940239 C56.94627037 20.88030114 47.85689857 20.87811907 38.76749321 20.88491181 C34.13047971 20.88817888 29.49352565 20.88822692 24.85651779 20.87955856 C20.60952924 20.87170098 16.36264734 20.87311743 12.11566142 20.8818427 C10.58136999 20.88337931 9.04707063 20.88155543 7.51278856 20.87598262 C-8.8530972 20.82048772 -22.99674812 23.82771305 -35.23836517 35.38924026 C-43.8379737 44.47293272 -49.61899789 55.43623097 -49.84774017 68.13142776 C-49.31511504 79.40532633 -45.32451416 90.51548748 -37.78524017 99.06892776 C-29.32716012 106.65802699 -18.24949575 110.53123386 -7.07820892 110.40877151 C2.93109943 109.54944758 11.32799186 104.57905532 17.96475983 97.19392776 C22.8635498 90.3356218 24.70835873 83.47291135 24.15225983 75.13142776 C22.48711127 67.29958499 18.6449167 60.31353874 11.96475983 55.69392776 C6.21352432 52.49879693 0.60266669 52.39657129 -5.84774017 53.13142776 C-10.45708828 54.96053416 -14.36940515 57.75789536 -16.84774017 62.13142776 C-18.03597814 65.69614168 -18.11048869 68.38726137 -17.84774017 72.13142776 C-16.48888901 74.53226215 -16.48888901 74.53226215 -14.84774017 76.13142776 C-14.83356049 75.53974808 -14.8193808 74.94806839 -14.80477142 74.33845901 C-14.53540853 69.87577111 -14.31025414 67.70067572 -11.41024017 64.13142776 C-6.69027193 60.44755011 -2.68601877 60.65538351 3.15225983 61.13142776 C7.38459618 62.46382995 9.27528619 63.95390163 11.46475983 67.69392776 C12.02163483 68.82830276 12.57850983 69.96267776 13.15225983 71.13142776 C13.48225983 71.79142776 13.81225983 72.45142776 14.15225983 73.13142776 C14.80305888 79.16383437 14.34108356 84.87735914 11.15225983 90.13142776 C5.8820492 96.3047496 -0.10548813 99.32265987 -8.06649017 100.44392776 C-15.71950957 100.87508379 -22.70083564 98.11275544 -28.66024017 93.38142776 C-35.90259311 86.60026239 -38.86309639 78.70782394 -39.22274017 68.88142776 C-39.03953204 58.90803516 -35.73387815 50.38646599 -28.84774017 43.13142776 C-19.79466296 34.50271355 -10.3400234 31.52697047 1.94962311 31.73103714 C14.05043453 32.21820915 24.42027762 36.85141388 32.90225983 45.69392776 C41.70787744 56.62138095 46.46752747 70.10190626 45.15225983 84.13142776 C42.42352899 101.00828404 34.11000147 113.14736616 20.48819733 123.08064651 C7.31817454 131.176972 -8.93575977 133.36775388 -23.97274017 130.06892776 C-40.91091176 125.08846268 -54.13259184 115.16454867 -62.93367767 99.83455276 C-71.15794734 84.42726616 -72.62325827 66.27793185 -68.22274017 49.38142776 C-62.08905407 31.53797728 -49.68977203 16.87279089 -33.20320892 7.70174026 C-22.69975329 2.78626976 -11.62132589 0.01246868 0 0 Z " fill="#000000" transform="translate(69.84774017333984,131.86857223510742)"/>
<path d="M0 0 C0.78767663 -0.0072672 1.57535326 -0.01453441 2.38689888 -0.02202183 C5.03679117 -0.04032717 7.6852461 -0.02289152 10.33512878 -0.00571251 C12.24979552 -0.01147152 14.16445673 -0.01941116 16.07910633 -0.02934873 C21.34863648 -0.05027544 26.61771551 -0.03988036 31.88724756 -0.02441764 C37.56695818 -0.01313189 43.24658974 -0.03055304 48.92628479 -0.04431725 C60.05601668 -0.06658385 71.18558026 -0.06173319 82.31531882 -0.04725404 C91.35836404 -0.03597527 100.401362 -0.034425 109.44441223 -0.03987312 C111.37288206 -0.04102237 111.37288206 -0.04102237 113.34031087 -0.04219484 C115.95184256 -0.04379342 118.56337424 -0.04541448 121.1749059 -0.04705779 C144.98083207 -0.06091837 168.78665615 -0.04652936 192.59256609 -0.02034481 C214.33094026 0.00338379 236.069168 0.00126067 257.80754089 -0.02264977 C282.22301703 -0.04941494 306.63839348 -0.05995194 331.05388546 -0.04458845 C333.65596452 -0.04299565 336.25804359 -0.0414238 338.86012268 -0.03987312 C340.14049135 -0.03910175 341.42086001 -0.03833037 342.74002773 -0.03753562 C351.77521687 -0.03321329 360.81035416 -0.04051664 369.84553528 -0.05227089 C380.85212637 -0.06627468 391.8585391 -0.06254056 402.86510968 -0.03586717 C408.48395307 -0.02270052 414.1024988 -0.01762521 419.72134018 -0.03411293 C424.86085258 -0.04896636 429.99979022 -0.04090043 435.13925016 -0.01422517 C437.00256319 -0.00862062 438.86592437 -0.01152458 440.72920668 -0.02360411 C443.25501429 -0.03872794 445.7788326 -0.02330245 448.30453491 0 C449.03438689 -0.01170583 449.76423887 -0.02341166 450.51620758 -0.03547221 C454.38850678 0.03633147 456.03352212 0.53436026 459.09834766 2.98232806 C462.86561806 7.83719329 462.03338348 13.39333673 462.02726746 19.3167057 C462.1065448 21.16038734 462.1065448 21.16038734 462.18742371 23.04131508 C462.22099287 29.33553315 461.83363249 33.70515035 457.58976746 38.52373695 C456.30821895 39.75802249 455.0237058 40.9898946 453.70689392 42.1864872 C451.25516449 44.46173177 448.94528069 46.87312046 446.60835266 49.26523781 C443.89108776 52.0374963 441.14251276 54.7776619 438.39347839 57.51836586 C436.25720491 59.64921733 434.12640824 61.78544322 431.99601746 63.92217445 C430.63435932 65.2831728 429.27239157 66.64386146 427.91007996 68.0042057 C427.27571014 68.64059975 426.64134033 69.27699379 425.98774719 69.9326725 C425.3963797 70.52088783 424.80501221 71.10910316 424.19572449 71.7151432 C423.6788205 72.2312516 423.1619165 72.74736 422.62934875 73.27910805 C418.93982154 76.6514492 416.61110156 76.88336259 411.7515173 76.90044117 C410.76818546 76.90794726 410.76818546 76.90794726 409.76498833 76.91560498 C407.55286893 76.93000147 405.34097773 76.93008915 403.1288147 76.93027687 C401.53292591 76.9375893 399.93704083 76.94575294 398.34116036 76.95469791 C393.94343279 76.97670727 389.54575449 76.98605328 385.14798105 76.99326837 C380.40953042 77.00311964 375.67112779 77.02430929 370.93270874 77.04377174 C359.48259021 77.08808165 348.03246124 77.11275727 336.58228096 77.1345596 C332.27155476 77.14301111 327.96083143 77.15260752 323.65010766 77.16221457 C304.65249875 77.20439027 285.65488762 77.24033265 266.65724087 77.25977802 C262.00608756 77.26461771 257.3549343 77.26949969 252.70378113 77.27446938 C250.96972274 77.27631406 250.96972274 77.27631406 249.20063288 77.27819601 C230.47389966 77.29914949 211.74748105 77.35770704 193.02089059 77.43185189 C173.79923233 77.50733504 154.57773463 77.54892119 135.355928 77.55734283 C124.56170819 77.562923 113.76796493 77.58343833 102.9738903 77.64190674 C93.78072767 77.6916068 84.58814717 77.71066833 75.39486264 77.68974449 C70.70465002 77.68000999 66.01564846 77.68480907 61.3256073 77.72897148 C57.02845291 77.76909109 52.73338542 77.76737016 48.43620098 77.73287032 C46.88495178 77.72769269 45.33355986 77.73762652 43.78253501 77.76451191 C36.10876813 77.88930783 30.3965045 77.62777653 24.40457249 72.29946041 C22.95792875 70.7698136 21.53804095 69.21420705 20.15226746 67.6292057 C18.84561932 66.34591905 17.53089798 65.07071819 16.20304871 63.80938148 C14.95432029 62.56706973 13.70826074 61.32207005 12.46476746 60.0745182 C11.4609906 59.07217644 11.4609906 59.07217644 10.43693542 58.04958534 C9.04443282 56.65775519 7.65315958 55.264694 6.2631073 53.87041664 C4.13225583 51.73414316 1.99602994 49.60334649 -0.14070129 47.4729557 C-1.50169964 46.11129757 -2.8623883 44.74932981 -4.22273254 43.3870182 C-4.85912659 42.75264839 -5.49552063 42.11827858 -6.15119934 41.46468544 C-6.73941467 40.87331795 -7.32763 40.28195045 -7.93367004 39.67266273 C-8.44977844 39.15575874 -8.96588684 38.63885475 -9.49763489 38.106287 C-14.3831586 32.76125461 -13.25430263 26.62064725 -13.28523254 19.7542057 C-13.33453918 17.83414711 -13.33453918 17.83414711 -13.38484192 15.87529945 C-13.39193176 14.64166664 -13.39902161 13.40803383 -13.40632629 12.1370182 C-13.41978088 11.00924965 -13.43323547 9.88148109 -13.44709778 8.71953773 C-12.01399437 1.33044486 -6.74186899 -0.10813039 0 0 Z M7.15226746 19.6292057 C7.15226746 30.3806553 14.20687597 38.06415814 21.43234253 45.54450607 C44.19951776 66.69484197 83.52499594 61.1203097 112.37545055 60.82349443 C119.48367439 60.75234065 126.58959629 60.74399175 133.69807434 60.77749443 C135.22700002 60.78461977 135.22700002 60.78461977 136.78681308 60.79188905 C138.85875251 60.80180252 140.93069129 60.81185318 143.0026294 60.82203938 C162.34254287 60.91002562 181.67787032 60.80947086 201.01703084 60.64222802 C217.54063855 60.50374733 234.05749238 60.5278164 250.58097839 60.67070961 C269.86046023 60.83736307 289.13594331 60.90151558 308.41604519 60.80672944 C310.47951637 60.79685648 312.54298817 60.78711094 314.60646057 60.77749443 C316.12857406 60.77032062 316.12857406 60.77032062 317.68143731 60.76300188 C324.76505209 60.73645501 331.84605941 60.78148801 338.92927551 60.85436058 C385.88899538 63.64923705 385.88899538 63.64923705 426.87219238 45.54450607 C434.09765894 38.06415814 441.15226746 30.3806553 441.15226746 19.6292057 C297.93226746 19.6292057 154.71226746 19.6292057 7.15226746 19.6292057 Z " fill="#000000" transform="translate(31.847732543945313,37.37079429626465)"/>
</svg>
