<?xml version="1.0" encoding="UTF-8"?>
<svg version="1.1" xmlns="http://www.w3.org/2000/svg" width="512" height="512">
<path d="M0 0 C0.85835449 0.43054688 1.71670898 0.86109375 2.60107422 1.3046875 C31.31425957 15.82881945 58.48212257 34.1706528 83 55 C84.07019327 55.89597576 85.14051321 56.79180024 86.2109375 57.6875 C95.44947376 65.46496668 104.29735666 73.62962822 113 82 C113.71075684 82.6820752 114.42151367 83.36415039 115.15380859 84.06689453 C139.96527028 107.99641899 139.96527028 107.99641899 141.203125 125.9453125 C141.39158734 138.72934103 138.69521505 149.39555821 130.1015625 159.15625 C117.8276022 171.01955735 98.72944234 176.49404874 83.3125 183 C80.90522538 184.01976615 78.49816304 185.04003355 76.09130859 186.06079102 C72.48194636 187.59142357 68.87244526 189.12171844 65.26220703 190.65028381 C54.87056142 195.05015939 44.49445775 199.48563084 34.125 203.9375 C32.65146407 204.5696976 31.17791322 205.2018604 29.7043457 205.83398438 C26.46925857 207.22194588 23.23450096 208.61067291 20 210 C19.9906543 210.71019287 19.98130859 211.42038574 19.97167969 212.15209961 C19.91752204 215.41456674 19.83396431 218.67566924 19.75 221.9375 C19.73582031 223.05447266 19.72164063 224.17144531 19.70703125 225.32226562 C19.46867496 233.45021518 18.36638738 239.99112119 13.03515625 246.33984375 C6.06468049 251.98523897 1.06282618 253.90912363 -8 253 C-14.71134068 250.87474212 -19.9393289 247.39812755 -23.3125 241.125 C-25.09724473 237.52538827 -25.46689697 233.95813893 -26 230 C-27.65804571 230.71059102 -29.31609129 231.42118236 -30.97413635 232.1317749 C-32.50891413 232.78953532 -34.0436941 233.44729061 -35.57847595 234.1050415 C-40.10323017 236.04419433 -44.627941 237.98344831 -49.15258789 239.92285156 C-58.7836139 244.05088303 -68.41499772 248.17807395 -78.04759216 252.30244446 C-100.97169815 262.11796578 -123.89184486 271.94219895 -146.78619385 281.82696533 C-155.10563291 285.41877289 -163.42624998 289.00785135 -171.74694824 292.59674072 C-173.97561966 293.55811609 -176.20421278 294.51967299 -178.43273926 295.48138428 C-185.37157964 298.47564711 -192.31199584 301.46620331 -199.25466919 304.4515686 C-201.446857 305.3949146 -203.6384945 306.33954056 -205.82955933 307.28549194 C-208.84456924 308.58693235 -211.86147343 309.88387669 -214.87890625 311.1796875 C-215.7783194 311.56912033 -216.67773254 311.95855316 -217.60440063 312.35978699 C-218.42274384 312.7101149 -219.24108704 313.06044281 -220.08422852 313.42138672 C-221.15254662 313.88144608 -221.15254662 313.88144608 -222.2424469 314.35079956 C-224 315 -224 315 -226 315 C-225.9685791 316.42094971 -225.9685791 316.42094971 -225.93652344 317.87060547 C-225.8678058 321.43044016 -225.81794005 324.98955652 -225.78027344 328.54980469 C-225.76032276 330.08214534 -225.73315184 331.61441152 -225.69824219 333.14648438 C-225.47646185 343.13964524 -225.46831283 352.14498401 -231.859375 360.40234375 C-238.9612065 366.16891354 -244.94099721 368.65137267 -254.1953125 368.34375 C-261.69233891 367.42489439 -267.26780604 364.41129264 -272.52734375 359.07421875 C-276.87113333 352.95604298 -277.49299759 347.37023339 -277.6875 340.0625 C-277.72166016 339.18787109 -277.75582031 338.31324219 -277.79101562 337.41210938 C-277.87275657 335.27516746 -277.9380713 333.13760782 -278 331 C-279.94603274 330.40929986 -279.94603274 330.40929986 -282 330 C-283.67651853 331.67651853 -283.13342616 333.73486649 -283.1418457 336.03540039 C-283.14888016 337.11064468 -283.15591461 338.18588898 -283.16316223 339.29371643 C-283.16732651 340.46651657 -283.17149078 341.63931671 -283.17578125 342.84765625 C-283.1989912 345.31446155 -283.22310901 347.78125844 -283.24804688 350.24804688 C-283.28309546 354.14971434 -283.31246057 358.05107552 -283.32592773 361.95288086 C-283.34144551 365.70985482 -283.38169796 369.46592281 -283.42578125 373.22265625 C-283.42387283 374.38128677 -283.42196442 375.5399173 -283.41999817 376.73365784 C-283.53863642 384.62786491 -284.64719353 390.02030324 -289.859375 396.20703125 C-296.89608473 402.18241906 -302.86701928 404.66284559 -312.1953125 404.33984375 C-320.06435214 403.38635287 -325.40860736 400.37715699 -330.52734375 394.390625 C-334.18115425 388.45924031 -335.44822579 382.8672833 -335.38818359 375.97363281 C-335.39344055 375.21455124 -335.39869751 374.45546967 -335.40411377 373.67338562 C-335.41722832 371.1830841 -335.40859568 368.69343222 -335.3984375 366.203125 C-335.40046319 364.44643025 -335.40337874 362.68973633 -335.40713501 360.93304443 C-335.411549 357.2513427 -335.40516655 353.56985978 -335.39111328 349.88818359 C-335.37417363 345.22907293 -335.38377079 340.57048671 -335.40183067 335.91139603 C-335.41282429 332.27848577 -335.40914956 328.64569363 -335.4014473 325.01277924 C-335.39947997 323.29883509 -335.40177872 321.58487933 -335.40888596 319.87094879 C-335.46051674 303.89878553 -333.97733597 287.86567879 -329.375 272.5 C-328.99758667 271.21790649 -328.99758667 271.21790649 -328.61254883 269.90991211 C-320.13898451 242.36893495 -304.05522678 221.16527286 -284.47558594 200.56835938 C-282.1880665 198.13701839 -280.01250492 195.61605902 -277.8359375 193.0859375 C-275.27508113 190.17636877 -272.63587983 187.34154434 -270 184.5 C-266.7883665 181.03716632 -263.58897047 177.57351485 -260.5 174 C-256.94316962 169.88795707 -253.24416316 165.9123038 -249.54956055 161.92456055 C-244.98389615 156.99335742 -240.48247674 152.00693471 -236 147 C-230.73109362 141.12350802 -225.42993852 135.27854013 -220.09082031 129.46582031 C-215.69316338 124.67425149 -211.34208322 119.84189136 -207 115 C-201.73054855 109.12399299 -196.42994352 103.27854557 -191.09082031 97.46582031 C-186.69316338 92.67425149 -182.34208322 87.84189136 -178 83 C-172.72916984 77.12245558 -167.42768328 71.27500173 -162.08642578 65.46142578 C-158.47268438 61.52478114 -154.89580487 57.55647306 -151.328125 53.578125 C-149.61785026 51.6841966 -147.90025771 49.7991359 -146.171875 47.921875 C-145.68654297 47.39464844 -145.20121094 46.86742188 -144.70117188 46.32421875 C-143.32811843 44.8347422 -141.95317818 43.34700563 -140.578125 41.859375 C-139.72734375 40.91578125 -138.8765625 39.9721875 -138 39 C-137.51990479 38.4730957 -137.03980957 37.94619141 -136.54516602 37.40332031 C-135.29994579 35.98901754 -134.14256997 34.49845241 -133 33 C-133.48004222 29.98259178 -134.60145809 27.73886983 -136.04296875 25.06640625 C-140.87143833 15.00854724 -140.59914596 2.09797236 -137.5 -8.5 C-133.04162769 -19.64593079 -125.62629987 -27.87038836 -114.796875 -33.0546875 C-80.45115812 -46.81919236 -30.14418788 -15.13090498 0 0 Z M-117.3125 -11.8125 C-122.93479729 -5.04144256 -124.60452285 1.54563546 -124.359375 10.28515625 C-123.58053683 16.16877069 -120.91128622 21.55826949 -117 26 C-114.44768229 27.28082643 -114.44768229 27.28082643 -111.4609375 28.19140625 C-110.33623047 28.57264648 -109.21152344 28.95388672 -108.05273438 29.34667969 C-106.23225586 29.94851074 -106.23225586 29.94851074 -104.375 30.5625 C-101.80543942 31.44183937 -99.24165537 32.33707987 -96.6796875 33.23828125 C-96.03050354 33.46655609 -95.38131958 33.69483093 -94.71246338 33.93002319 C-46.0525985 51.22050431 0.70273247 79.6497967 40 113 C41.74480092 114.47975491 43.48964808 115.9594544 45.23486328 117.4387207 C46.38362158 118.41413249 47.53053374 119.39172409 48.67529297 120.37182617 C51.054001 122.40055065 53.39446962 124.26297975 56 126 C56.15855469 125.24976563 56.31710937 124.49953125 56.48046875 123.7265625 C59.55280163 110.24903595 64.74106395 99.79257326 76.6328125 92.28515625 C82.09861494 89.31774865 87.84557066 87.7890294 94 87 C85.6348509 76.6000849 75.26634001 68.43218162 64.7421875 60.34375 C63.08044502 59.06204728 61.42943787 57.76781433 59.78125 56.46875 C39.59817879 40.6266955 17.67269438 26.97674181 -5 15 C-5.87398438 14.53770996 -6.74796875 14.07541992 -7.6484375 13.59912109 C-62.3759904 -17.75451947 -62.3759904 -17.75451947 -117.3125 -11.8125 Z M-119 41 C-118.28719321 44.11870653 -118.28719321 44.11870653 -115.8125 45.5625 C-109.3340342 51.17717036 -105.38545449 59.46418674 -104.6640625 67.953125 C-104.48772226 76.33316198 -104.65612348 83.57468607 -109 91 C-109.4125 91.71542969 -109.825 92.43085938 -110.25 93.16796875 C-115.30214653 100.81795199 -123.89460999 105.61241136 -132.75 107.625 C-143.416789 108.85578335 -153.78351051 107.51832912 -162.625 100.875 C-163.7550367 99.92261099 -164.88066498 98.96494398 -166 98 C-166.99 97.34 -167.98 96.68 -169 96 C-174.92654947 102.44719961 -180.83170962 108.9109738 -186.6796875 115.4296875 C-189.31079783 118.34428447 -191.96652475 121.23539224 -194.625 124.125 C-197.6022264 127.36213091 -200.55952966 130.61137856 -203.4375 133.9375 C-207.01802312 138.06755185 -210.73579762 142.0660407 -214.45019531 146.07519531 C-219.01596642 151.00645654 -223.51744662 155.99297968 -228 161 C-232.34208448 165.84279333 -236.69341036 170.67589855 -241.0925293 175.46704102 C-242.02713723 176.48497739 -242.96090118 177.50368934 -243.89379883 178.52319336 C-246.12684092 180.96350211 -248.36838059 183.39355965 -250.62890625 185.80859375 C-251.43199219 186.67613281 -252.23507813 187.54367187 -253.0625 188.4375 C-253.77535156 189.19933594 -254.48820312 189.96117187 -255.22265625 190.74609375 C-257.06666161 193.08453572 -258.04471642 195.19354514 -259 198 C-258.0925 198.94875 -257.185 199.8975 -256.25 200.875 C-248.67553343 209.93923132 -247.97679905 219.59642889 -248.77246094 231.00341797 C-249.25574055 235.24404103 -250.65329071 238.48359138 -253 242 C-253.63615234 243.03833984 -253.63615234 243.03833984 -254.28515625 244.09765625 C-259.33910583 251.62930814 -266.52729254 256.26384939 -275.26953125 258.52734375 C-285.07001818 260.2238515 -292.95962703 258.9216949 -302 255 C-302.99 254.67 -303.98 254.34 -305 254 C-311.0338431 264.91226944 -314.60506729 276.44182966 -317.25 288.5625 C-317.41314697 289.29267334 -317.57629395 290.02284668 -317.74438477 290.77514648 C-320.24350602 302.9169655 -320.16966735 315.43168485 -320.203125 327.77734375 C-320.20736607 328.85375216 -320.20736607 328.85375216 -320.21169281 329.9519062 C-320.22651142 333.73364736 -320.2358554 337.51535193 -320.24023438 341.29711914 C-320.24576197 345.17933161 -320.26992835 349.06120099 -320.29820633 352.94330502 C-320.31686612 355.9571482 -320.3220396 358.97090809 -320.32357025 361.98480415 C-320.32657863 363.41644779 -320.33454516 364.84809059 -320.34775543 366.27967644 C-320.61167538 376.59765541 -320.61167538 376.59765541 -317 386 C-313.76496039 388.30047261 -311.90434971 389.01845612 -307.9375 388.9375 C-304.53411551 387.85131346 -302.55494543 386.48194699 -300 384 C-298.99715073 380.99145218 -298.86993758 378.97377717 -298.8581543 375.8293457 C-298.85111984 374.77427322 -298.84408539 373.71920074 -298.83683777 372.63215637 C-298.83267349 371.49155258 -298.82850922 370.35094879 -298.82421875 369.17578125 C-298.80101509 366.76105904 -298.77689753 364.34634548 -298.75195312 361.93164062 C-298.71688005 358.12437199 -298.68751737 354.31742008 -298.67407227 350.51000977 C-298.6585568 346.83570928 -298.61831599 343.1623356 -298.57421875 339.48828125 C-298.57612717 338.35779861 -298.57803558 337.22731598 -298.58000183 336.06257629 C-298.48105081 329.63722546 -297.96284054 324.26409962 -294 319 C-289.38415193 315.06993607 -284.00781116 313.74148833 -278 314 C-272.39597591 315.13690255 -268.62971698 317.51623197 -265 322 C-262.26617235 327.19717058 -262.61914022 332.67710686 -262.52148438 338.40625 C-262.36237659 343.06306334 -262.01750953 346.22092854 -259 350 C-255.78597162 352.14268559 -253.81045073 353 -249.9375 353 C-246.20515457 351.72941432 -244.47468606 350.04032859 -242 347 C-241.08652963 344.22870845 -240.87222088 341.69504269 -240.8581543 338.7890625 C-240.85111984 337.96720459 -240.84408539 337.14534668 -240.83683777 336.29858398 C-240.83059135 334.97515991 -240.83059135 334.97515991 -240.82421875 333.625 C-240.80100015 331.73306204 -240.77688202 329.84113495 -240.75195312 327.94921875 C-240.7170325 324.98511693 -240.68759769 322.02141017 -240.67407227 319.05712891 C-240.59012202 303.64902935 -239.36041482 290.87057038 -230 278 C-229.030625 277.13375 -228.06125 276.2675 -227.0625 275.375 C-224.58259273 273.07461355 -224.58259273 273.07461355 -225.1875 269.4375 C-225.31898438 268.75171875 -225.45046875 268.0659375 -225.5859375 267.359375 C-227.48341553 256.54733039 -225.49236622 246.75933705 -219.3125 237.6875 C-213.4474047 230.47801258 -205.04255921 225.92135592 -195.92578125 224.53125 C-184.5642503 223.370025 -176.19679495 224.95727164 -167 232 C-165.10744898 234.11322397 -163.3917515 236.23494456 -161.765625 238.55859375 C-160.05222538 240.29166206 -160.05222538 240.29166206 -157.47387695 239.83447266 C-152.94522944 238.74662972 -148.89916791 236.97877549 -144.65234375 235.08984375 C-143.74039246 234.69081345 -142.82844116 234.29178314 -141.88885498 233.88066101 C-138.90234791 232.57238208 -135.920015 231.25485092 -132.9375 229.9375 C-130.85490738 229.02381559 -128.77197719 228.11090023 -126.6887207 227.19873047 C-122.46645341 225.34946586 -118.24544588 223.49737309 -114.02539062 221.64306641 C-104.10132911 217.28570572 -94.15716263 212.97441545 -84.19921875 208.69506836 C-82.72134067 208.05976447 -81.24347599 207.42442941 -79.765625 206.7890625 C-79.04467651 206.47930984 -78.32372803 206.16955719 -77.58093262 205.85041809 C-73.07079106 203.90763984 -68.57850492 201.92825441 -64.09550476 199.92367554 C-61.09567901 198.58568909 -58.08848452 197.26482381 -55.07998657 195.94647217 C-53.67881434 195.32748555 -52.28098345 194.70086476 -50.88705444 194.06573486 C-41.97830376 190.0103355 -33.40144929 186.81143173 -23.59570312 189.7109375 C-18.21328509 191.86603848 -14.80406976 196.03223628 -12 201 C-10.88389119 204.45734624 -10.84545042 207.75789577 -10.7890625 211.375 C-10.76070313 212.60734375 -10.73234375 213.8396875 -10.703125 215.109375 C-10.65104458 217.70297994 -10.60677254 220.29675345 -10.5703125 222.890625 C-10.52390625 224.73914063 -10.52390625 224.73914063 -10.4765625 226.625 C-10.45674316 227.75164062 -10.43692383 228.87828125 -10.41650391 230.0390625 C-9.95934531 233.28901529 -9.26752069 234.66886561 -7 237 C-4.65127469 238.16977494 -4.65127469 238.16977494 -2 238 C1.64593801 235.77092536 1.64593801 235.77092536 3.63175964 232.12637329 C4.01190774 229.93123973 4.13141006 227.89277514 4.1418457 225.66552734 C4.14888016 224.8171933 4.15591461 223.96885925 4.16316223 223.09481812 C4.16940865 221.72917221 4.16940865 221.72917221 4.17578125 220.3359375 C4.19899158 218.38931225 4.22310939 216.44269764 4.24804688 214.49609375 C4.28303812 211.44182322 4.31244286 208.38794194 4.32592773 205.33349609 C4.34152645 202.37550059 4.38182015 199.41863063 4.42578125 196.4609375 C4.42387283 195.56265228 4.42196442 194.66436707 4.41999817 193.73886108 C4.6064326 183.93440243 8.15246971 175.09797867 15 168 C22.19730498 162.07020812 30.92031999 158.7923196 39.4375 155.25 C41.4979319 154.38729199 43.55712237 153.52189911 45.61402893 152.65081787 C47.46074395 151.86952261 49.31120831 151.09710696 51.16186523 150.32519531 C54.05799434 149.16970161 54.05799434 149.16970161 56 147 C48.82772831 140.22560615 41.65812935 133.52650348 33.94921875 127.359375 C31.74607131 125.59685705 29.56505369 123.81748242 27.39453125 122.015625 C12.35081229 109.56760357 -3.43926587 98.33828182 -20 88 C-20.6084375 87.61924316 -21.216875 87.23848633 -21.84375 86.84619141 C-50.84860905 68.80561432 -85.22370275 48.32542047 -119 41 Z M-131 54 C-139.25370694 62.93317824 -139.25370694 62.93317824 -147.29296875 72.05859375 C-148.57567666 73.51741716 -149.89783155 74.94170464 -151.23828125 76.34765625 C-152.35783203 77.53681641 -152.35783203 77.53681641 -153.5 78.75 C-154.1909375 79.46671875 -154.881875 80.1834375 -155.59375 80.921875 C-157.21005345 82.87174136 -157.21005345 82.87174136 -156.9296875 85.09765625 C-155.8128761 87.38289639 -154.73036313 88.27948289 -152.625 89.6875 C-152.01914063 90.10386719 -151.41328125 90.52023438 -150.7890625 90.94921875 C-145.87829096 93.83349286 -140.50379295 93.61872705 -135 93 C-128.33409541 90.98800623 -124.18083524 87.97846731 -120.83984375 81.8671875 C-118.49965127 76.66434097 -117.92259165 71.28492437 -119.71875 65.80859375 C-121.77505173 61.43895258 -124.28051077 58.14726012 -128 55 C-128.99 54.67 -129.98 54.34 -131 54 Z M76.47265625 112.76953125 C71.94612974 119.62535788 69.66798758 126.78592339 71 135 C72.31192939 138.90513562 74.15155765 142.43456412 76.109375 146.046875 C77 148 77 148 77.375 151.375 C75.29792472 156.85092573 71.08744921 157.79506599 65.93017578 160.14080811 C58.56260583 163.42038318 51.11771338 166.52300583 43.67163086 169.61914062 C41.35230637 170.58546627 39.03731278 171.56161878 36.72265625 172.5390625 C36.02052505 172.82770172 35.31839386 173.11634094 34.59498596 173.41372681 C28.32092436 176.07504475 24.12846786 178.87834103 21.125 185.0625 C20.69445312 185.91972656 20.26390625 186.77695312 19.8203125 187.66015625 C18.69495151 190.10532741 18.69495151 190.10532741 20 193 C23.05736579 191.69157939 26.1146325 190.38292741 29.171875 189.07421875 C30.62568069 188.45194901 30.62568069 188.45194901 32.1088562 187.81710815 C37.53916211 185.49224383 42.96841934 183.16496945 48.39599609 180.83374023 C50.66241153 179.86045991 52.92885059 178.88723459 55.1953125 177.9140625 C56.33950653 177.42275345 57.48370056 176.9314444 58.66256714 176.42524719 C65.33245999 173.56415702 72.00982233 170.72169979 78.69616699 167.89927673 C82.72051542 166.19900335 86.74073825 164.48911591 90.76037598 162.77774048 C92.65843142 161.97254099 94.55840241 161.17184093 96.46032715 160.37582397 C99.11666528 159.26345816 101.76585508 158.13546563 104.4140625 157.00390625 C105.1849118 156.68590057 105.95576111 156.3678949 106.74996948 156.04025269 C114.95507584 152.49394018 120.35047745 147.75311406 124.05859375 139.578125 C126.60961063 132.5919377 126.50272053 125.99765641 124 119 C120.58537687 111.74558666 114.80213983 105.33602295 107.13671875 102.4765625 C94.88336139 99.74363819 84.29696224 102.91053576 76.47265625 112.76953125 Z M-38.65234375 205.04296875 C-39.79662842 205.52910645 -40.94091309 206.01524414 -42.11987305 206.51611328 C-43.39253492 207.07296904 -44.66507256 207.63010878 -45.9375 208.1875 C-47.29747899 208.77172842 -48.65792758 209.35486469 -50.01879883 209.93701172 C-53.84827623 211.58006866 -57.66964419 213.24127554 -61.48950195 214.90655518 C-64.07570108 216.03297153 -66.66356821 217.1554715 -69.25195312 218.27685547 C-78.87236439 222.44486264 -88.48712892 226.62566204 -98.09765625 230.81640625 C-108.52447196 235.36236715 -118.96216391 239.88274031 -129.40609741 244.38922119 C-132.11512923 245.5582405 -134.8238293 246.72802563 -137.5324707 247.89794922 C-146.02065125 251.56316185 -154.51165078 255.22161772 -163.00918579 258.86509705 C-167.00458249 260.57873164 -170.99865715 262.29543507 -174.99261475 264.01242065 C-176.88082991 264.82314368 -178.76968281 265.6323834 -180.65924072 266.43997192 C-205.82382145 275.79060372 -205.82382145 275.79060372 -223 295 C-222.67 295.66 -222.34 296.32 -222 297 C-221.23300781 296.67128906 -220.46601563 296.34257812 -219.67578125 296.00390625 C-217.92537672 295.25373288 -216.17497167 294.50356071 -214.42456055 293.75340271 C-210.73090665 292.17043611 -207.03729772 290.58736471 -203.34375 289.00415039 C-194.68633342 285.29334689 -186.02842712 281.58369234 -177.36953735 277.87632751 C-171.57948427 275.39720228 -165.78968437 272.91748619 -160 270.4375 C-158.80546204 269.92583282 -157.61092407 269.41416565 -156.38018799 268.88699341 C-143.56735085 263.39784507 -130.757663 257.90161979 -117.9609375 252.375 C-116.91293976 251.92249374 -115.86494202 251.46998749 -114.78518677 251.00376892 C-109.58740649 248.75888118 -104.39082213 246.51127468 -99.19580078 244.26000977 C-88.41447802 239.59357066 -77.61150713 234.98440084 -66.77079391 230.45778847 C-62.98013526 228.87341046 -59.19255838 227.28167099 -55.40476418 225.69045925 C-52.35087792 224.40874424 -49.29394869 223.13512416 -46.23260498 221.87130737 C-42.85510621 220.47689162 -39.48561651 219.06459215 -36.1171875 217.6484375 C-35.10321899 217.23589218 -34.08925049 216.82334686 -33.04455566 216.39830017 C-32.12605835 216.00824295 -31.20756104 215.61818573 -30.26123047 215.21630859 C-29.45797333 214.88295502 -28.65471619 214.54960144 -27.82711792 214.20614624 C-25.84483011 213.13930029 -25.84483011 213.13930029 -25.1633606 211.02944946 C-24.90995162 207.88131752 -26.05014548 206.40482058 -28 204 C-32.21495642 202.56228759 -34.63902919 203.31203915 -38.65234375 205.04296875 Z M-271 209 C-278.19636428 215.99950325 -284.63605069 223.45742519 -290.875 231.3125 C-291.36387695 231.92359619 -291.85275391 232.53469238 -292.35644531 233.16430664 C-294.39894945 235.76061871 -295.94700439 237.84101318 -297 241 C-291.42957336 244.28512341 -286.0411512 245.74687943 -279.6328125 244.5625 C-273.35193446 242.7014991 -269.01706068 239.85170648 -265.1875 234.4375 C-262.49631741 228.91349364 -261.81893035 222.59216521 -263.75390625 216.70703125 C-265.60822779 212.71478606 -266.83501191 210.74124502 -271 209 Z M-208 248 C-211.39077763 252.35957124 -211.66227458 256.65462188 -212 262 C-211.34 262.33 -210.68 262.66 -210 263 C-207.3233327 262.01690892 -204.75336088 260.9658619 -202.1484375 259.81640625 C-201.37440582 259.48205063 -200.60037415 259.14769501 -199.80288696 258.8032074 C-197.32368386 257.73026997 -194.84936839 256.64653412 -192.375 255.5625 C-190.69822663 254.83457205 -189.02114697 254.10734918 -187.34375 253.38085938 C-183.22556398 251.59541121 -179.11173024 249.80026255 -175 248 C-175 247.01 -175 246.02 -175 245 C-180.57687443 239.8878651 -184.72831159 238.53456623 -192.1796875 238.68359375 C-198.91094215 239.43876221 -203.65806435 242.91373253 -208 248 Z " fill="#000000" transform="translate(353,72)"/>
<path d="M0 0 C7.41454294 6.031913 12.11519558 13.81617349 13.6875 23.25 C14.57105303 35.2629229 12.33972419 44.82071901 4.6875 54.25 C-1.26376308 60.96424552 -9.53285464 64.92153914 -18.4453125 65.734375 C-29.92600844 66.31603602 -39.21031698 63.92174304 -48.25 56.5 C-55.8795125 49.14691911 -59.21901635 40.50515177 -59.6875 30.0625 C-59.43668761 19.42510389 -55.97555455 9.73168048 -48.3125 2.25 C-34.28154693 -9.42108528 -15.1437924 -10.45778871 0 0 Z M-39.3125 15.25 C-42.79625993 20.64041232 -45.0425711 26.19907452 -43.87109375 32.69921875 C-42.22865344 38.9780334 -40.03091186 43.93503542 -34.3046875 47.5 C-28.15967395 50.58321237 -22.56944352 51.48813063 -15.921875 49.5546875 C-9.93525542 47.19572151 -6.13719153 44.091831 -3.3125 38.14453125 C-0.66920818 31.28849308 -1.03846384 25.86194497 -3.8125 19.125 C-6.60915064 13.91212546 -11.7796554 10.34571308 -17.390625 8.60546875 C-25.57111127 7.09241133 -33.47848245 9.25392641 -39.3125 15.25 Z " fill="#000000" transform="translate(257.3125,208.75)"/>
<path d="M0 0 C3.46869389 2.47499333 7.0684505 5.13690099 9 9 C9.45070423 16.09859155 9.45070423 16.09859155 8 19 C4.6182913 20.69085435 1.59801085 20.90749119 -2 20 C-6.35261835 17.21005549 -10.11223609 13.90240729 -12 9 C-11.87003769 5.29607411 -11.74379893 2.91544484 -9.375 0 C-5.72145899 -1.53833306 -3.80062115 -1.14018634 0 0 Z " fill="#000000" transform="translate(315,184)"/>
<path d="M0 0 C4.07969197 2.77389544 7.26687196 5.90030794 10 10 C10.61703539 14.05480401 10.32038101 15.54369977 7.9375 18.9375 C5 21 5 21 1.625 21.1875 C-4.07447121 19.32043185 -7.70086719 15.94869921 -11 11 C-11.42255137 7.12661246 -11.56667558 4.88401391 -9.4375 1.5625 C-5.90550465 -0.70159958 -4.13858566 -0.7587407 0 0 Z " fill="#000000" transform="translate(156,234)"/>
<path d="M0 0 C2.55214016 1.67209183 2.96478452 2.89435355 3.9375 5.8125 C4.02146401 10.09466464 2.69937289 11.73233808 0 15 C-3.48832829 18.39653017 -6.09940389 19.791464 -11 20 C-13.63550724 19.19470612 -14.66507222 18.44657038 -16.3125 16.25 C-17.30544049 13.00037658 -17.02248495 11.25917078 -16 8 C-11.75387339 1.74186263 -7.84936775 -2.17110172 0 0 Z " fill="#000000" transform="translate(305,227)"/>
<path d="M0 0 C2 1 2 1 3 3 C3.60380818 7.0253879 3.91006526 9.48616976 1.79296875 13.0078125 C-0.8100574 16.15780364 -3.14819322 18.48013814 -7 20 C-13.09749492 19.78605281 -13.09749492 19.78605281 -15.9375 17.3125 C-17.42482538 14.07538005 -17.68241405 12.54855304 -17 9 C-12.19547257 2.18107434 -8.60794453 -0.91536424 0 0 Z " fill="#000000" transform="translate(190,198)"/>
<path d="M0 0 C2.60727405 2.25963751 2.97186947 3.8670193 3.6875 7.25 C2.66318785 12.83715719 -0.48451388 15.72033114 -5 19 C-8.6875 20.25 -8.6875 20.25 -12 20 C-14.9375 18.5 -14.9375 18.5 -17 16 C-17.75 12.75 -17.75 12.75 -17 9 C-12.67244915 2.49691408 -8.15416418 -2.42889997 0 0 Z " fill="#000000" transform="translate(111,335)"/>
<path d="M0 0 C3.06637864 1.99314611 3.80523321 3.22093283 4.6875 6.75 C3.43985822 12.64794298 -1.10098654 16.73399103 -6 20 C-9.53950857 20.45185216 -11.33326715 20.42109443 -14.375 18.5 C-16.18976845 15.70804854 -16.81686313 13.52039944 -16.640625 10.171875 C-14.33212101 2.34548344 -7.67079025 -1.53415805 0 0 Z " fill="#000000" transform="translate(139,270)"/>
<path d="M0 0 C3.06637864 1.99314611 3.80523321 3.22093283 4.6875 6.75 C3.43985822 12.64794298 -1.10098654 16.73399103 -6 20 C-9.33466685 19.82135713 -11.9860269 19.55604977 -14.9375 17.9375 C-16.77607663 14.58480143 -16.98917841 11.60571483 -16 8 C-11.81802539 1.63518593 -7.60467539 -1.52093508 0 0 Z " fill="#000000" transform="translate(283,162)"/>
<path d="M0 0 C4.81125468 0.06057335 7.48929423 1.51479185 11.375 4.3125 C13.5885853 6.98724891 13.37452235 8.33972586 13.3125 11.875 C12.375 15.3125 12.375 15.3125 10.25 17.3125 C6.40742323 18.64904844 4.29939731 18.39509236 0.375 17.3125 C-3.64138339 15.31227732 -6.14927402 13.58110261 -7.75 9.3125 C-7.52013181 3.79566355 -5.43379467 0.46843058 0 0 Z " fill="#000000" transform="translate(183.625,270.6875)"/>
<path d="M0 0 C4.13731174 1.21266034 7.03183486 2.69101101 10.625 5.0625 C12.17086876 8.15423752 11.91859521 10.65679552 11.625 14.0625 C10.0625 16.5 10.0625 16.5 7.625 18.0625 C1.99355231 19.03717364 -1.21647944 17.36021049 -5.7734375 14.3515625 C-8.12061404 12.46237163 -8.35082637 11.24380222 -8.75 8.25 C-8.375 5.0625 -8.375 5.0625 -6.3125 2.125 C-3.375 0.0625 -3.375 0.0625 0 0 Z " fill="#000000" transform="translate(62.375,356.9375)"/>
<path d="M0 0 C3.18329355 1.62961266 6.45432338 3.45432338 9 6 C9.58230683 13.10414334 9.58230683 13.10414334 7.375 16.5 C4.17507162 18.5210074 2.74532039 18.64822853 -1 18 C-5.24792684 15.923588 -8.35738829 13.96391757 -11 10 C-10.78206897 3.89793103 -10.78206897 3.89793103 -8.3125 1.0625 C-5.155829 -0.38786235 -3.46305318 -0.53277741 0 0 Z " fill="#000000" transform="translate(353,206)"/>
</svg>
