<?xml version="1.0" encoding="UTF-8"?>
<svg version="1.1" xmlns="http://www.w3.org/2000/svg" width="512" height="512">
<path d="M0 0 C0.73418152 -0.00794586 1.46836304 -0.01589172 2.22479248 -0.02407837 C41.69099839 -0.35177929 78.39083945 15.97869679 106.4375 43.375 C107.28570312 44.16132813 108.13390625 44.94765625 109.0078125 45.7578125 C126.73475531 62.59562965 140.45638555 86.67839416 146.4375 110.375 C140.82548394 112.61980642 135.36613717 114.20848574 129.4375 115.375 C129.0971875 114.405625 128.756875 113.43625 128.40625 112.4375 C115.27384399 75.79139409 91.70645517 46.88885103 56.26953125 30.12109375 C23.15926166 14.88822775 -13.59304306 13.73962722 -47.90625 25.8984375 C-62.8082165 31.91653936 -76.28771654 39.98714839 -88.5625 50.375 C-89.38621094 51.06335938 -90.20992187 51.75171875 -91.05859375 52.4609375 C-110.10253777 68.92013405 -123.95674686 92.1578058 -130.5625 116.375 C-130.85664795 117.40826416 -130.85664795 117.40826416 -131.15673828 118.46240234 C-137.23641823 140.59880039 -136.83430122 166.3438166 -130.5625 188.375 C-130.38058105 189.04192871 -130.19866211 189.70885742 -130.01123047 190.39599609 C-124.84290521 208.93083906 -114.93054817 225.76032136 -102.5625 240.375 C-101.87414062 241.19871094 -101.18578125 242.02242187 -100.4765625 242.87109375 C-77.85240145 269.04814652 -44.31835821 283.92164811 -10.22680664 287.10595703 C18.19646436 289.11358661 49.1042979 282.09739573 72.57421875 265.58984375 C74.4375 264.375 74.4375 264.375 76.4375 264.375 C76.4375 263.715 76.4375 263.055 76.4375 262.375 C73.44199801 261.3595756 70.44300376 260.36020663 67.4375 259.375 C66.41269531 259.03855469 65.38789063 258.70210938 64.33203125 258.35546875 C62.71361328 257.83919922 62.71361328 257.83919922 61.0625 257.3125 C60.06476563 256.99152344 59.06703125 256.67054688 58.0390625 256.33984375 C33.14537494 249.67092745 9.6844009 253.44779471 -13.5625 263.375 C-23.04707528 267.24068296 -31.2729513 267.66796099 -40.9375 263.8515625 C-46.2304355 260.87428628 -50.63327448 256.16267655 -52.5625 250.375 C-52.68255171 248.44021317 -52.73780837 246.50096946 -52.75 244.5625 C-52.76417969 243.54542969 -52.77835937 242.52835938 -52.79296875 241.48046875 C-52.54637195 238.15768139 -51.66225279 235.50590384 -50.5625 232.375 C-51.33327881 232.39594727 -52.10405762 232.41689453 -52.89819336 232.43847656 C-56.43199318 232.52225485 -59.96558322 232.57385598 -63.5 232.625 C-64.71236328 232.65851563 -65.92472656 232.69203125 -67.17382812 232.7265625 C-76.09917439 232.82331422 -82.38311787 231.81203034 -89.35546875 226.078125 C-90.14566406 225.26859375 -90.93585938 224.4590625 -91.75 223.625 C-95.86476105 219.67807027 -99.82587479 216.89137783 -104.8125 214.25 C-112.5628181 210.08284834 -118.18124295 205.23533792 -120.9609375 196.6953125 C-121.70279089 193.83387798 -122.31580162 190.95237268 -122.9375 188.0625 C-124.15017852 182.52159123 -125.98671234 177.70251783 -128.4765625 172.6171875 C-131.84298593 165.66637077 -131.75598674 157.26719183 -129.515625 149.9609375 C-128.28587701 147.04571139 -126.95849064 144.2135143 -125.5625 141.375 C-123.40569299 136.5463276 -122.34364953 131.49287453 -121.23828125 126.34570312 C-119.40087634 118.46577558 -115.17692105 112.95530877 -108.5625 108.375 C-105.125 107 -105.125 107 -102.5625 106.375 C-102.88476562 105.72917969 -103.20703125 105.08335937 -103.5390625 104.41796875 C-106.3956446 95.92454334 -105.95125283 83.65733353 -102.01953125 75.61328125 C-96.47194352 67.09111565 -89.7770038 60.9850916 -80.4375 57.0625 C-74.49435103 56.00807034 -68.58154058 56.22473269 -62.5625 56.375 C-62.45035156 55.62992188 -62.33820313 54.88484375 -62.22265625 54.1171875 C-60.45870131 46.78999005 -53.58698268 40.53526339 -47.5625 36.375 C-38.34335752 31.20067996 -26.55589548 30.60942602 -16.390625 33.17578125 C-13.03130021 34.46285983 -10.29978567 35.75442751 -7.5390625 38.078125 C-6.88679687 38.50609375 -6.23453125 38.9340625 -5.5625 39.375 C-2.45876678 38.51002517 0.42976799 37.50822481 3.4375 36.375 C22.61673019 29.35091829 44.94111538 29.91795417 63.578125 38.17578125 C71.24572351 41.73784539 78.02561768 45.82244212 84.4375 51.375 C85.23027344 51.97183594 86.02304687 52.56867188 86.83984375 53.18359375 C96.56004199 61.38364069 102.98294315 72.63512742 107.4375 84.375 C107.870625 85.48617187 108.30375 86.59734375 108.75 87.7421875 C115.28099719 107.7433664 112.68072972 130.1077544 103.625 148.75 C100.51497734 154.83504784 96.93877268 160.21623805 92.4375 165.375 C90.76496574 167.37015193 89.10196699 169.37310273 87.4375 171.375 C88.06615967 171.58068604 88.69481934 171.78637207 89.3425293 171.99829102 C117.48929448 181.28443224 117.48929448 181.28443224 128.4375 190.375 C129.08854151 188.02216625 129.73342122 185.66791551 130.375 183.3125 C130.55740234 182.65572266 130.73980469 181.99894531 130.92773438 181.32226562 C131.19360352 180.3409668 131.19360352 180.3409668 131.46484375 179.33984375 C131.62718506 178.7480835 131.78952637 178.15632324 131.95678711 177.54663086 C133.32002971 171.38815297 133.57477224 165.43072942 133.53515625 159.16015625 C133.5337413 158.30441513 133.53232635 157.44867401 133.53086853 156.56700134 C133.5253099 153.85713069 133.51276525 151.14734532 133.5 148.4375 C133.49497965 146.59049599 133.49041768 144.74349068 133.48632812 142.89648438 C133.47535405 138.38929049 133.4581183 133.88215966 133.4375 129.375 C138.81235134 128.01601091 143.90665276 126.86016204 149.4375 126.375 C154.25206565 131.18956565 151.68557398 146.75033974 151.6885376 153.57791138 C151.66712803 165.10491196 151.35088056 176.16314094 148.4375 187.375 C148.24945801 188.14166992 148.06141602 188.90833984 147.86767578 189.69824219 C138.16393519 228.43600694 113.55995284 261.88039561 79.58984375 282.7890625 C54.94892616 297.410498 28.38310944 304.83571845 -0.25 304.6875 C-1.00017395 304.68534485 -1.7503479 304.6831897 -2.52325439 304.68096924 C-13.77906077 304.62910745 -24.6222948 304.19570278 -35.5625 301.375 C-36.71468018 301.09293701 -36.71468018 301.09293701 -37.89013672 300.80517578 C-57.38555292 295.92063558 -75.4356562 287.35862271 -91.5625 275.375 C-92.49835938 274.68148438 -93.43421875 273.98796875 -94.3984375 273.2734375 C-126.69563765 247.98501392 -147.48817279 211.06938155 -152.5625 170.375 C-153.06691445 164.54846021 -153.09840524 158.719505 -153.0625 152.875 C-153.06073761 152.09907501 -153.05897522 151.32315002 -153.05715942 150.52371216 C-152.85504955 110.30281926 -137.36490586 74.18182804 -109.5625 45.375 C-108.77359375 44.52292969 -107.9846875 43.67085937 -107.171875 42.79296875 C-88.24492783 22.89460541 -62.00023185 9.89263528 -35.5625 3.375 C-34.2940625 3.05402344 -33.025625 2.73304687 -31.71875 2.40234375 C-21.26491564 0.08672715 -10.65725058 0.06035591 0 0 Z M-45.5625 57.9375 C-48.46854105 63.19416129 -48.63496671 68.54537741 -47.5625 74.375 C-45.35373835 79.60914291 -41.89046754 84.28375058 -36.67578125 86.78125 C-30.45621927 88.52870549 -23.84287388 88.56964544 -18.125 85.375 C-13.18363353 81.67155415 -10.14683409 77.64905513 -9.05078125 71.5078125 C-8.67524495 64.94844517 -9.74078861 60.42302894 -13.80859375 55.22265625 C-18.30354218 50.48744331 -21.93967453 49.14257927 -28.5 48.8125 C-36.15176774 49.109006 -40.98849737 51.83458284 -45.5625 57.9375 Z M5.4375 54.375 C5.59605469 55.02082031 5.75460937 55.66664063 5.91796875 56.33203125 C7.63374373 66.38157041 8.14487979 78.58379403 2.4375 87.375 C-2.56780604 94.15218437 -7.86356978 98.91685168 -15.5625 102.375 C-11.07148372 106.41691465 -5.97265011 108.81174441 -0.5625 111.375 C-0.48773438 110.69695312 -0.41296875 110.01890625 -0.3359375 109.3203125 C0.94772078 100.23402543 3.99704011 92.7841077 11.3125 86.9375 C20.34825964 80.96442293 28.89618996 80.43006185 39.4375 81.375 C48.55466748 83.54909378 54.48769916 88.30648997 59.359375 96.21484375 C61.9859057 101.47742156 62.82639679 106.34668022 62.8125 112.1875 C62.81088867 112.89310059 62.80927734 113.59870117 62.80761719 114.32568359 C62.6700718 120.19024118 61.48969358 124.4298083 58.4375 129.375 C57.880625 130.426875 57.32375 131.47875 56.75 132.5625 C52.22025327 138.07165143 46.30537381 141.54468644 39.4375 143.375 C36.80103409 143.61217162 34.32008489 143.75567164 31.6875 143.75 C30.63622925 143.7497583 30.63622925 143.7497583 29.5637207 143.74951172 C22.2333025 143.58929321 16.51720302 141.42813535 10.4375 137.375 C11.31624916 140.15770567 12.19692454 142.87364809 13.4609375 145.5078125 C17.46274399 154.1074392 17.55940725 163.18006858 15.4375 172.375 C16.48421875 172.17003906 17.5309375 171.96507812 18.609375 171.75390625 C26.2802819 170.35848721 33.73129052 169.29730241 41.546875 169.234375 C42.76922852 169.22204834 43.99158203 169.20972168 45.25097656 169.19702148 C47.65933626 169.19080122 50.06806763 169.21753509 52.47558594 169.28149414 C61.65574288 169.24948249 66.65020513 166.4111402 73.4375 160.375 C74.5670813 159.39527222 74.5670813 159.39527222 75.71948242 158.39575195 C87.12960198 148.16684656 93.8419776 133.1739101 94.9140625 118.02734375 C95.69236564 98.69584037 90.75482674 83.96003458 78.125 69.125 C66.41925795 56.60580808 50.73473178 49.43817159 33.6796875 48.375 C23.70895364 48.375 14.4241018 50.01914125 5.4375 54.375 Z M-84.16796875 80.06640625 C-87.76790215 84.89656899 -88.32349848 89.53692656 -88.0390625 95.47265625 C-87.02600766 101.64232629 -83.9438271 105.66970996 -79 109.375 C-73.76343472 112.28530282 -68.37840196 112.34431699 -62.5625 111.375 C-56.98101364 109.23663834 -53.21023198 105.78558274 -50.5625 100.375 C-50.89883229 96.60654958 -52.77748714 94.86197026 -55.375 92.25 C-60.52243688 86.66899765 -62.84051635 80.68089178 -64.5625 73.375 C-72.95852078 72.60077677 -78.28521913 73.86876493 -84.16796875 80.06640625 Z M18.0625 104 C15.85842107 108.57770239 15.6403361 112.38052411 16.4375 117.375 C18.76718931 122.21358548 21.59891452 125.04531069 26.4375 127.375 C31.43197589 128.1721639 35.23479761 127.95407893 39.8125 125.75 C43.39657713 122.50726355 46.03285241 119.91024104 46.8203125 114.9765625 C47.07633919 109.29277006 46.37376932 105.72561345 42.4375 101.375 C38.08688655 97.43873068 34.51972994 96.73616081 28.8359375 96.9921875 C23.90225896 97.77964759 21.30523645 100.41592287 18.0625 104 Z M-35.5625 108.375 C-35.98660156 108.95507812 -36.41070312 109.53515625 -36.84765625 110.1328125 C-43.05001731 118.39353954 -49.15024411 125.0140044 -59.5625 127.375 C-69.28057727 128.51830321 -78.77490901 128.04194442 -87.5625 123.375 C-88.60857422 122.54742187 -88.60857422 122.54742187 -89.67578125 121.703125 C-90.29839844 121.26484375 -90.92101562 120.8265625 -91.5625 120.375 C-96.26285783 121.29463523 -99.95197149 123.26750086 -103.5625 126.375 C-105.07163942 129.84887519 -105.86715645 133.43588108 -106.6875 137.125 C-108.32230956 144.11264313 -110.22571613 150.01754862 -113.5625 156.375 C-114.50143305 162.73887958 -112.82229572 166.34075304 -109.95703125 171.9765625 C-108.8043922 174.78551482 -108.14458225 177.07981695 -107.57421875 180.0234375 C-105.96605121 189.45324953 -105.96605121 189.45324953 -100.70703125 197.09375 C-97.39681168 199.04961244 -94.02203149 200.70155221 -90.5625 202.375 C-86.09667011 205.59625435 -81.86292982 209.09848002 -77.93334961 212.95581055 C-74.34693836 215.92582599 -70.8379821 216.10115443 -66.3125 216.0390625 C-65.53616211 216.04384613 -64.75982422 216.04862976 -63.95996094 216.05355835 C-62.32615114 216.0569457 -60.69227249 216.04782488 -59.05859375 216.02685547 C-56.568764 216.00006739 -54.08344084 216.02663682 -51.59375 216.05859375 C-49.99999013 216.05528944 -48.40623304 216.04888275 -46.8125 216.0390625 C-46.07483398 216.04918365 -45.33716797 216.05930481 -44.57714844 216.06973267 C-38.81704955 215.9402132 -36.42508424 214.366176 -32.5625 210.375 C-31.61193265 207.78888691 -31.61193265 207.78888691 -31.5 205.0625 C-30.41294233 197.13337346 -26.82800037 191.83930446 -20.71484375 186.76953125 C-18.11910632 185.08771952 -15.42944696 184.09358473 -12.5625 182.9375 C-5.70829465 179.69122435 -3.42843927 174.96492789 -0.671875 168.2265625 C0.94648064 163.40494037 1.29028185 158.71561401 -0.48046875 153.85546875 C-0.89941406 153.09878906 -1.31835938 152.34210938 -1.75 151.5625 C-3.57799519 147.96693921 -4.78740993 144.66628779 -5.55078125 140.7265625 C-7.15894879 131.29675047 -7.15894879 131.29675047 -12.41796875 123.65625 C-15.72798763 121.70050614 -19.10564275 120.05335827 -22.5625 118.375 C-25.31877014 116.35954555 -27.91791128 114.22480654 -30.5390625 112.0390625 C-32.66332862 110.23550314 -32.66332862 110.23550314 -35.5625 108.375 Z M-13.5625 202.375 C-15.85263653 205.8102048 -15.74092973 207.360331 -15.5625 211.375 C-12.96143303 213.10904464 -10.78545118 214.41841839 -7.58203125 214.3046875 C-2.00517523 213.18728466 3.06247195 210.91419354 8.265625 208.67578125 C38.64213071 196.21842115 71.65316099 199.30026797 101.4375 211.375 C108.24684204 214.25086628 108.24684204 214.25086628 115.4375 213.375 C117.48201019 212.33125978 117.48201019 212.33125978 118.4375 210.375 C118.57651556 207.24714995 118.24377301 205.28408333 116.12597656 202.89624023 C111.4764741 198.83097911 106.81231969 196.43798448 101.0625 194.25 C100.19343018 193.910896 99.32436035 193.57179199 98.42895508 193.22241211 C65.49766909 180.75892877 15.68232053 179.19231766 -13.5625 202.375 Z M7.4375 226.375 C3.21188411 228.31365024 -0.35535036 229.76612663 -5 230.125 C-6.423125 230.23521484 -6.423125 230.23521484 -7.875 230.34765625 C-10.28363245 230.37216268 -12.1730393 230.10060966 -14.5 229.5625 C-20.44007502 228.60521518 -25.7466292 232.27957659 -30.5625 235.375 C-33.57619847 237.88119416 -35.28079267 240.16365849 -36.1875 244.0625 C-35.73455208 246.54302465 -35.73455208 246.54302465 -33.5625 248.25 C-26.91346791 250.74338703 -20.65740409 247.83205902 -14.5625 245.0625 C14.33603535 232.55250565 47.25036958 233.20662084 76.4375 244.375 C78.60783541 245.32499548 80.77476961 246.28281622 82.9375 247.25 C87.70681023 249.2912391 90.48706121 250.06025576 95.4375 248.375 C97.54688785 247.35078739 97.54688785 247.35078739 98.4375 245.375 C98.62248858 241.21275685 97.63586152 239.60807479 94.9375 236.4375 C72.57027822 219.10630584 32.5527179 214.55099707 7.4375 226.375 Z " fill="#000000" transform="translate(256.5625,103.625)"/>
<path d="M0 0 C5.28 0 10.56 0 16 0 C16 26.4 16 52.8 16 80 C23.92 80 31.84 80 40 80 C40 53.6 40 27.2 40 0 C45.28 0 50.56 0 56 0 C56 26.4 56 52.8 56 80 C63.92 80 71.84 80 80 80 C80 53.6 80 27.2 80 0 C85.28 0 90.56 0 96 0 C96.11592725 18.08097153 96.20506599 36.16181481 96.25906086 54.24307823 C96.28480214 62.63923194 96.31987417 71.03514995 96.37719727 79.43115234 C96.42715768 86.75227034 96.45932063 94.07321758 96.47044247 101.39450133 C96.47694 105.26830611 96.49212455 109.14162254 96.52865028 113.01527023 C96.56281039 116.66793413 96.57301328 120.31991262 96.56553841 123.9727211 C96.567551 125.93897537 96.59434086 127.90515649 96.62210083 129.87121582 C96.57163179 138.62177046 95.09688675 145.56964708 89.02248096 152.13847923 C84.47128209 156.45351661 79.46731319 160 73 160 C73.23262794 161.83427048 73.23262794 161.83427048 73.46995544 163.70559692 C74.13236725 169.69792525 74.30509684 175.68724247 74.48071289 181.71044922 C74.5198732 182.95586487 74.55903351 184.20128052 74.59938049 185.48443604 C74.70536802 188.8822299 74.80810679 192.28008979 74.90911031 195.67803335 C74.9946006 198.53908588 75.08241229 201.4000653 75.17022032 204.26104748 C75.37819916 211.03803108 75.58252384 217.81511792 75.78442383 224.59228516 C75.99053452 231.50907258 76.20215287 238.42567482 76.41671187 245.34220493 C76.60236543 251.33247698 76.78471334 257.32284373 76.96453851 263.31329358 C77.07123151 266.86708946 77.17895909 270.42084429 77.28978157 273.97451401 C77.84975765 291.98813706 78.11064135 309.97729638 78 328 C72.39 328.33 66.78 328.66 61 329 C60.34642358 308.29407899 59.6943458 287.5881114 59.04424286 266.88208103 C58.74233743 257.26747311 58.43990673 247.65288225 58.13623047 238.03833008 C57.87148409 229.6562762 57.60773242 221.2741917 57.34516478 212.89206928 C57.20616107 208.45566234 57.06666636 204.01927208 56.92597961 199.58291817 C56.79343179 195.40271655 56.66221942 191.22247509 56.53200722 187.04220009 C56.48412465 185.51242291 56.4357647 183.98266058 56.38687706 182.45291519 C56.14789894 174.96682986 55.93892205 167.4907234 56 160 C50.72 160 45.44 160 40 160 C39.93631226 163.10776855 39.93631226 163.10776855 39.87133789 166.27832031 C39.35848841 190.2609095 38.64211297 214.23635643 37.89138746 238.2124157 C37.78028556 241.76440298 37.66974191 245.31640754 37.5592066 248.86841249 C37.07082708 264.56068453 36.58139001 280.25292054 36.08129883 295.94482422 C35.81790455 304.21053142 35.55890836 312.47636507 35.30449444 320.74235368 C35.17128982 325.06456735 35.03614347 329.38669581 34.89541435 333.70867157 C34.53509362 344.80463227 34.22616166 355.90045419 34 367 C33.97306871 368.28390719 33.97306871 368.28390719 33.94559336 369.59375191 C33.83788483 374.88987719 33.7573544 380.18543533 33.71033108 385.48245478 C33.6928604 387.15614931 33.66869688 388.82978922 33.63738716 390.50328207 C33.59602 392.81883247 33.58073472 395.13316211 33.57215881 397.44903564 C33.55794923 398.76565815 33.54373964 400.08228065 33.52909946 401.43880081 C34.19437027 406.46993087 36.36075573 409.553608 40.125 412.875 C44.44348642 414.56484251 48.4267052 414.65960983 53 414 C57.5448763 411.76887891 59.76980884 409.4909589 62 405 C62.43029416 402.03519481 62.43029416 402.03519481 62.34057617 398.83276367 C62.34034958 397.61187546 62.34012299 396.39098724 62.33988953 395.13310242 C62.32440567 393.82460831 62.30892181 392.5161142 62.29296875 391.16796875 C62.28736884 389.80748463 62.2831006 388.44699443 62.28010559 387.08650208 C62.26868776 383.51729433 62.23924765 379.94845671 62.20599365 376.37939453 C62.17522626 372.73279832 62.16158606 369.08614191 62.14648438 365.43945312 C62.11437442 358.29280347 62.06163198 351.14646493 62 344 C67.61 343.67 73.22 343.34 79 343 C79.81552194 357.19881946 80.17652323 371.40572156 80.28710938 385.62625122 C80.30392819 387.4470298 80.32776237 389.26775816 80.35888672 391.08834839 C80.55838815 403.33316923 80.55077627 413.99550723 71.703125 423.46875 C63.47956115 430.86241291 54.76554365 432.58190067 43.98828125 432.3125 C35.60258669 431.83817365 28.597063 428.22530477 23 422 C17.84231471 415.14137594 15.68450663 408.71877231 15.75978088 400.09765625 C15.759043 399.32520569 15.75830512 398.55275513 15.75754488 397.75689697 C15.75900313 395.19193709 15.77636276 392.62738769 15.79516602 390.0625 C15.80229524 388.22745816 15.80929651 386.39241583 15.81617832 384.55737305 C15.92397018 364.08259709 16.53444071 343.62088897 17.17864299 323.15727234 C17.34780931 317.7459246 17.51026124 312.33437412 17.67372131 306.92285156 C17.94772184 297.88397939 18.22651186 288.84526554 18.50854492 279.80664062 C18.83374417 269.383226 19.15185836 258.95961324 19.466196 248.53586578 C19.77133537 238.42028742 20.08060504 228.30483979 20.39203072 218.18945312 C20.5235924 213.9154004 20.65386284 209.64131129 20.78309441 205.3671875 C20.93483845 200.3564913 21.09025415 195.34592179 21.24848366 190.33542633 C21.30575628 188.50412049 21.3618143 186.67277618 21.41654205 184.84139252 C21.49164885 182.33522388 21.5712549 179.82923586 21.65196228 177.32324219 C21.67239513 176.60701691 21.69282798 175.89079163 21.71388 175.15286255 C21.88452317 170.06633412 22.3777491 165.05038707 23 160 C22.195625 159.95875 21.39125 159.9175 20.5625 159.875 C12.96409165 158.00872427 7.67679449 153.27621797 3.19140625 147.02734375 C0.63633982 142.67954219 -0.24955041 139.12435614 -0.24050903 134.08378601 C-0.24325836 132.89893112 -0.24600769 131.71407623 -0.24884033 130.49331665 C-0.24164978 129.20218964 -0.23445923 127.91106262 -0.22705078 126.58081055 C-0.22648634 125.20078032 -0.22680387 123.82074949 -0.22793579 122.4407196 C-0.22850902 118.7014127 -0.21675962 114.96223442 -0.20278788 111.22295737 C-0.19027549 107.31252938 -0.18910962 103.40209836 -0.18673706 99.49165344 C-0.18052379 92.08985439 -0.16411503 84.6881145 -0.14403808 77.28634149 C-0.12167434 68.85834101 -0.11068445 60.43033769 -0.10064721 52.00231493 C-0.07974867 34.66817478 -0.04417223 17.33409591 0 0 Z M16 96 C15.938125 101.795625 15.87625 107.59125 15.8125 113.5625 C15.78518799 115.3782251 15.75787598 117.1939502 15.72973633 119.06469727 C15.72096446 120.52359352 15.71332218 121.98249719 15.70703125 123.44140625 C15.69168335 124.18289917 15.67633545 124.92439209 15.66052246 125.68835449 C15.65795368 130.86101378 16.58699661 134.40220644 19 139 C23.0809945 142.97635361 26.43751247 144.10517869 32.01489258 144.16113281 C32.79282669 144.17074036 33.5707608 144.1803479 34.37226868 144.19024658 C35.20461533 144.19449646 36.03696198 144.19874634 36.89453125 144.203125 C37.76011154 144.20882507 38.62569183 144.21452515 39.51750183 144.22039795 C41.34734887 144.22983201 43.17721278 144.23637559 45.00708008 144.24023438 C47.79213446 144.24992911 50.57644713 144.28096282 53.36132812 144.3125 C55.14322481 144.31903183 56.92512674 144.32428159 58.70703125 144.328125 C59.94644218 144.3466452 59.94644218 144.3466452 61.21089172 144.36553955 C66.56097662 144.34514798 70.2562727 143.52344395 75 141 C80.21125016 135.65161167 80.14614741 130.90801217 80.09765625 123.734375 C80.09664917 123.03070801 80.09564209 122.32704102 80.09460449 121.60205078 C80.08939005 118.98468384 80.07542881 116.36734021 80.0625 113.75 C80.041875 107.8925 80.02125 102.035 80 96 C58.88 96 37.76 96 16 96 Z " fill="#000000" transform="translate(400,40)"/>
<path d="M0 0 C17.22324676 12.36915684 24.91259906 33.42996402 28.421875 53.58984375 C32.39547443 81.21321082 29.66298965 113.29180582 12.58984375 136.34375 C10.07163905 139.53923358 7.55373552 142.64938948 4.67578125 145.52734375 C4.50927822 148.19917879 4.46520028 150.75962062 4.51635742 153.42930603 C4.5245132 154.23274222 4.53266897 155.03617842 4.54107189 155.86396116 C4.57229056 158.41886048 4.62083638 160.97285041 4.67578125 163.52734375 C4.69246983 164.31162538 4.7091584 165.09590701 4.72635269 165.90395474 C4.8574168 171.63580538 5.03976345 177.365689 5.2265625 183.09594727 C5.28593451 184.98278503 5.34503886 186.86963122 5.40390015 188.75648499 C5.53006992 192.78640685 5.65788025 196.81627197 5.78695679 200.84610176 C5.99230853 207.26463168 6.19250351 213.68331652 6.3918457 220.10203552 C6.95910147 238.34434406 7.53218248 256.5864652 8.11230469 274.82836914 C8.43350345 284.92985214 8.7499409 295.03147395 9.06158352 305.13325638 C9.2257272 310.44688827 9.39212184 315.76042518 9.56460571 321.07379341 C10.21827285 341.25307556 10.81710429 361.43781648 10.98224831 381.62794483 C10.99902011 383.39415597 11.02237565 385.16031945 11.05298424 386.92634499 C11.24604021 398.67900558 10.81328807 408.9653415 2.37890625 417.99609375 C-5.8446576 425.38975666 -14.5586751 427.10924442 -25.3359375 426.83984375 C-33.72163206 426.3655174 -40.72715575 422.75264852 -46.32421875 416.52734375 C-51.30867222 409.89908115 -53.57525451 403.72429207 -53.58764648 395.35668945 C-53.59020761 394.64160658 -53.59276875 393.9265237 -53.59540749 393.18977165 C-53.5990706 390.75655061 -53.58563211 388.32379704 -53.5703125 385.890625 C-53.56647458 384.58890571 -53.56647458 384.58890571 -53.56255913 383.26088905 C-53.47186597 355.65403319 -52.47499502 328.05314641 -51.59923398 300.462309 C-51.40744372 294.4067796 -51.22267516 288.35105164 -51.03970438 282.29525012 C-50.81745069 274.94167944 -50.59036231 267.58826369 -50.36187053 260.2348845 C-50.29749526 258.15287287 -50.23400734 256.07083585 -50.1707325 253.98879051 C-50.05260411 250.11113751 -49.92905052 246.23366724 -49.80493164 242.35620117 C-49.77112396 241.22945984 -49.73731628 240.10271851 -49.70248413 238.9418335 C-49.46740475 231.77554469 -48.96984932 224.66868995 -48.32421875 217.52734375 C-39.90921875 218.02234375 -39.90921875 218.02234375 -31.32421875 218.52734375 C-31.80030199 241.40346286 -32.34640247 264.27503972 -33.078125 287.14453125 C-33.14449838 289.23480167 -33.21085366 291.32507267 -33.27719116 293.41534424 C-33.54639452 301.87045977 -33.8175653 310.32550283 -34.09741211 318.78027344 C-35.11982133 349.74997976 -35.11982133 349.74997976 -35.63923454 380.73132706 C-35.6555717 382.37065754 -35.67849005 384.00993788 -35.70852852 385.64907455 C-35.74734399 387.88505951 -35.76008314 390.11967519 -35.76538086 392.35595703 C-35.7771788 393.60386017 -35.78897675 394.85176331 -35.8011322 396.13748169 C-35.10981402 401.05131512 -32.87899589 404.15548157 -29.19921875 407.40234375 C-24.88073233 409.09218626 -20.89751355 409.18695358 -16.32421875 408.52734375 C-11.78774412 406.30034711 -9.51336243 404.03561436 -7.32421875 399.52734375 C-6.89014909 396.13144406 -6.89014909 396.13144406 -6.98510742 392.36860657 C-6.98597697 391.30670005 -6.98597697 391.30670005 -6.98686409 390.22334087 C-6.99376475 387.85986367 -7.02364061 385.49730836 -7.0546875 383.1340332 C-7.06683827 381.43593199 -7.07831164 379.73782582 -7.0891571 378.03971577 C-7.25210896 358.01642244 -7.89327131 338.00123926 -8.5357933 317.9887979 C-8.70841567 312.56943659 -8.8739556 307.14985841 -9.0402832 301.7303009 C-9.35447176 291.52463616 -9.67429647 281.31915722 -9.99651432 271.11374313 C-10.47041556 256.09711998 -10.93648127 241.08025298 -11.401474 226.06335163 C-11.45284688 224.40435779 -11.45284688 224.40435779 -11.50525761 222.71184891 C-11.57352979 220.50696402 -11.64178443 218.30207858 -11.71002102 216.09719259 C-11.90881762 209.68025768 -12.10959689 203.26338876 -12.31214905 196.84657133 C-12.43748559 192.87028865 -12.56174907 188.89397288 -12.68581009 184.91765022 C-12.74336058 183.0814547 -12.80139729 181.24527434 -12.85996628 179.40911102 C-12.94007089 176.89637011 -13.01844544 174.38358062 -13.09643555 171.87077332 C-13.11978124 171.15250168 -13.14312693 170.43423004 -13.16718006 169.69419259 C-13.32167289 164.63669636 -13.34232458 159.58722126 -13.32421875 154.52734375 C-18.27421875 154.52734375 -23.22421875 154.52734375 -28.32421875 154.52734375 C-29.57784267 163.783267 -29.65921073 173.07087822 -29.87646484 182.39453125 C-29.92863161 184.57692062 -29.98567694 186.75914633 -30.04296875 188.94140625 C-30.07326172 190.22998535 -30.10355469 191.51856445 -30.13476562 192.84619141 C-30.31889231 196.42384878 -30.81759197 199.98095626 -31.32421875 203.52734375 C-39.73921875 203.03234375 -39.73921875 203.03234375 -48.32421875 202.52734375 C-48.25203125 199.9440625 -48.17984375 197.36078125 -48.10546875 194.69921875 C-47.95810499 189.41846241 -47.81841262 184.13773289 -47.70166016 178.85620117 C-47.66184767 177.06819519 -47.6219719 175.28019062 -47.58203125 173.4921875 C-47.56258453 172.61390793 -47.54313782 171.73562836 -47.52310181 170.83073425 C-47.4128853 166.18121952 -47.23565373 161.54856986 -46.94140625 156.90625 C-46.42138704 147.42523196 -47.27857535 141.80743802 -53.87109375 134.4375 C-61.24687097 125.6875732 -64.82278916 113.48147144 -67.32421875 102.52734375 C-67.50082031 101.77195312 -67.67742187 101.0165625 -67.859375 100.23828125 C-69.61972255 91.86405648 -69.72130843 83.54285779 -69.69921875 75.02734375 C-69.69890152 73.90049667 -69.69890152 73.90049667 -69.69857788 72.75088501 C-69.62933409 48.09714196 -63.98995973 22.91349615 -46.32421875 4.52734375 C-43.16041542 1.85221705 -39.90206159 -0.38847595 -36.32421875 -2.47265625 C-35.71320312 -2.83359375 -35.1021875 -3.19453125 -34.47265625 -3.56640625 C-23.68814972 -8.6973609 -9.64605477 -6.11187 0 0 Z M-38.85546875 22.30859375 C-53.08094489 43.79814281 -55.93586926 72.35654976 -51.19677734 97.3527832 C-47.59004144 113.11588266 -41.3188117 127.5193299 -27.32421875 136.52734375 C-23.56713239 138.40588693 -19.41581214 138.03879292 -15.32421875 137.52734375 C-6.00604696 134.06679082 0.27866335 125.13774264 4.42578125 116.52734375 C9.21017407 106.04686326 12.2246673 94.04954581 12.67578125 82.52734375 C12.753125 80.83158203 12.753125 80.83158203 12.83203125 79.1015625 C13.31566846 58.72834501 9.8411322 36.30586194 -3.34375 20.03515625 C-8.32206381 14.83791086 -12.79098817 11.49681499 -20.13671875 10.96484375 C-27.9836913 11.22444284 -34.12873046 16.32139191 -38.85546875 22.30859375 Z " fill="#000000" transform="translate(85.32421875,45.47265625)"/>
<path d="M0 0 C3.60085205 1.48364728 5.46163297 3.46741 7.9375 6.4375 C37.28859181 39.70844447 83.95471817 58.616683 127.52929688 61.60717773 C175.6944563 64.32273462 223.46134354 48.13464003 259.87255859 16.36621094 C261.78457882 14.65594214 263.67848123 12.92855064 265.5625 11.1875 C266.14628418 10.64843018 266.73006836 10.10936035 267.33154297 9.55395508 C270.51578643 6.55797711 273.35465157 3.49910391 276 0 C279.47775179 1.51553404 281.9557984 3.5773456 284.75 6.125 C285.54921875 6.84945313 286.3484375 7.57390625 287.171875 8.3203125 C287.77515625 8.87460937 288.3784375 9.42890625 289 10 C288.41481639 13.40695488 287.31639924 15.06780991 284.89453125 17.50390625 C284.24798584 18.15665527 283.60144043 18.8094043 282.93530273 19.48193359 C282.23477783 20.16852051 281.53425293 20.85510742 280.8125 21.5625 C280.09070557 22.27486816 279.36891113 22.98723633 278.62524414 23.72119141 C267.77099059 34.27674771 255.74790769 42.88802359 243 51 C242.05125 51.61488281 241.1025 52.22976563 240.125 52.86328125 C214.16740815 68.90241826 180.84130966 78.93192796 150.34765625 79.23828125 C149.53862854 79.2480751 148.72960083 79.25786896 147.89605713 79.26795959 C129.61228842 79.44356752 111.89689693 79.22123902 94 75 C93.08814941 74.78569336 92.17629883 74.57138672 91.23681641 74.35058594 C78.28464236 71.18904976 66.09598086 66.56586542 54 61 C53.31099609 60.68836914 52.62199219 60.37673828 51.91210938 60.05566406 C36.27394021 52.91649988 21.91816468 43.3266468 9 32 C8.16339844 31.27296875 7.32679687 30.5459375 6.46484375 29.796875 C3.94168326 27.56619834 1.46433095 25.29543599 -1 23 C-1.95132813 22.12601562 -2.90265625 21.25203125 -3.8828125 20.3515625 C-4.80835937 19.47242188 -5.73390625 18.59328125 -6.6875 17.6875 C-7.53699219 16.88699219 -8.38648437 16.08648437 -9.26171875 15.26171875 C-11 13 -11 13 -11.0859375 11.00390625 C-9.52638566 8.12602822 -7.41031125 6.37849576 -4.9375 4.25 C-4.01839844 3.45078125 -3.09929687 2.6515625 -2.15234375 1.828125 C-1.44207031 1.22484375 -0.73179688 0.6215625 0 0 Z " fill="#000000" transform="translate(117,377)"/>
<path d="M0 0 C0.8772876 0.00087616 1.7545752 0.00175232 2.65844727 0.00265503 C17.28142497 0.05064768 31.35255694 0.96245054 45.625 4.375 C46.61274414 4.61105957 47.60048828 4.84711914 48.61816406 5.09033203 C81.0063565 13.14324746 109.36359514 28.76913321 134.625 50.375 C133.10946596 53.85275179 131.0476544 56.3307984 128.5 59.125 C127.77554687 59.92421875 127.05109375 60.7234375 126.3046875 61.546875 C125.75039063 62.15015625 125.19609375 62.7534375 124.625 63.375 C120.51955618 62.82824697 118.39928756 60.64499766 115.375 57.9375 C89.42474318 35.54007734 53.59836254 21.37041924 19.625 18.375 C18.93148437 18.30941895 18.23796875 18.24383789 17.5234375 18.17626953 C-31.97210162 13.7433572 -80.41197886 29.68413018 -118.375 61.375 C-119.035 62.035 -119.695 62.695 -120.375 63.375 C-123.47856512 63.27552676 -124.48731105 62.26622192 -126.734375 60.08984375 C-127.52328125 59.17332031 -128.3121875 58.25679687 -129.125 57.3125 C-129.92421875 56.39339844 -130.7234375 55.47429687 -131.546875 54.52734375 C-132.15015625 53.81707031 -132.7534375 53.10679688 -133.375 52.375 C-132.04338317 49.3228328 -130.72281394 47.5586636 -128.09375 45.52734375 C-127.09202759 44.75136841 -127.09202759 44.75136841 -126.07006836 43.9597168 C-125.3456958 43.41613525 -124.62132324 42.87255371 -123.875 42.3125 C-123.12033447 41.74249268 -122.36566895 41.17248535 -121.58813477 40.58520508 C-86.00851366 14.15662286 -44.35697954 -0.10871809 0 0 Z " fill="#000000" transform="translate(255.375,55.625)"/>
<path d="M0 0 C3.53567665 1.30187829 6.50074386 2.84559036 9.609375 4.96875 C10.44597656 5.53980469 11.28257812 6.11085937 12.14453125 6.69921875 C13.00433594 7.29347656 13.86414063 7.88773438 14.75 8.5 C15.62527344 9.09425781 16.50054687 9.68851563 17.40234375 10.30078125 C23.87221443 14.74442887 23.87221443 14.74442887 25 17 C23.76725921 19.010684 22.51323373 21.00833222 21.25 23 C20.55390625 24.11375 19.8578125 25.2275 19.140625 26.375 C18.43421875 27.24125 17.7278125 28.1075 17 29 C12.57893479 29 11.60071811 28.39725115 8.05078125 26.0078125 C7.12072266 25.38519531 6.19066406 24.76257813 5.23242188 24.12109375 C4.26884766 23.46238281 3.30527344 22.80367188 2.3125 22.125 C1.33732422 21.47402344 0.36214844 20.82304687 -0.64257812 20.15234375 C-7.85965402 15.28069196 -7.85965402 15.28069196 -9 13 C-7.68889201 11.01989841 -6.37618664 9.04088963 -5.0625 7.0625 C-4.50272461 6.21655273 -4.50272461 6.21655273 -3.93164062 5.35351562 C-1.11328125 1.11328125 -1.11328125 1.11328125 0 0 Z " fill="#000000" transform="translate(212,241)"/>
<path d="M0 0 C0.8655047 2.26708325 1.71759315 4.53775079 2.5625 6.8125 C2.80935547 7.45509766 3.05621094 8.09769531 3.31054688 8.75976562 C5.11328125 13.66015625 5.11328125 13.66015625 4 17 C2.00634766 17.9831543 2.00634766 17.9831543 -0.5859375 18.82421875 C-1.98199219 19.28344727 -1.98199219 19.28344727 -3.40625 19.75195312 C-4.87578125 20.21504883 -4.87578125 20.21504883 -6.375 20.6875 C-7.34695312 21.00783203 -8.31890625 21.32816406 -9.3203125 21.65820312 C-16.55042311 24 -16.55042311 24 -20 24 C-20.8655047 21.73291675 -21.71759315 19.46224921 -22.5625 17.1875 C-22.80935547 16.54490234 -23.05621094 15.90230469 -23.31054688 15.24023438 C-25.11328125 10.33984375 -25.11328125 10.33984375 -24 7 C-22.00634766 6.0168457 -22.00634766 6.0168457 -19.4140625 5.17578125 C-18.01800781 4.71655273 -18.01800781 4.71655273 -16.59375 4.24804688 C-15.12421875 3.78495117 -15.12421875 3.78495117 -13.625 3.3125 C-12.65304688 2.99216797 -11.68109375 2.67183594 -10.6796875 2.34179688 C-3.44957689 0 -3.44957689 0 0 0 Z " fill="#000000" transform="translate(214,280)"/>
<path d="M0 0 C1.73017508 0.45451184 3.45909877 0.91378857 5.1875 1.375 C6.15042969 1.63023437 7.11335937 1.88546875 8.10546875 2.1484375 C10.82210207 2.94766296 13.39137175 3.9031362 16 5 C14.88194379 10.79356402 13.35586371 16.38462597 11.5625 22 C11.35729736 22.6710376 11.15209473 23.3420752 10.94067383 24.03344727 C10.31640625 25.9375 10.31640625 25.9375 9 29 C5.01754349 30.3274855 2.55210457 28.99907829 -1.1875 27.5625 C-1.84169922 27.31951172 -2.49589844 27.07652344 -3.16992188 26.82617188 C-4.78303286 26.2256707 -6.3919435 25.61390797 -8 25 C-6.87613072 19.17631373 -5.3072912 13.62007724 -3.4375 8 C-3.21553955 7.3289624 -2.9935791 6.6579248 -2.76489258 5.96655273 C-1.12932926 1.12932926 -1.12932926 1.12932926 0 0 Z " fill="#000000" transform="translate(168,245)"/>
</svg>
