<?xml version="1.0" standalone="no"?>
<!DOCTYPE svg PUBLIC "-//W3C//DTD SVG 20010904//EN"
 "http://www.w3.org/TR/2001/REC-SVG-20010904/DTD/svg10.dtd">
<svg version="1.0" xmlns="http://www.w3.org/2000/svg"
 width="512.000000pt" height="512.000000pt" viewBox="0 0 512.000000 512.000000"
 preserveAspectRatio="xMidYMid meet">

<g transform="translate(0.000000,512.000000) scale(0.100000,-0.100000)"
fill="#000000" stroke="none">
<path d="M2365 5104 c-16 -2 -73 -9 -125 -15 -359 -41 -786 -199 -1092 -405
-721 -487 -1138 -1265 -1138 -2124 0 -426 85 -781 276 -1160 129 -255 274
-453 483 -660 705 -697 1742 -923 2671 -582 486 178 916 510 1215 937 405 579
549 1292 404 2000 -57 275 -207 629 -371 875 -332 498 -849 878 -1411 1038
-238 69 -400 92 -667 97 -118 2 -228 2 -245 -1z m550 -203 c165 -29 228 -45
390 -98 576 -192 1086 -623 1373 -1163 227 -426 316 -933 247 -1407 -130 -892
-784 -1650 -1666 -1931 -837 -268 -1744 -43 -2369 588 -359 363 -585 815 -666
1332 -25 158 -25 507 -1 673 113 758 576 1412 1248 1764 257 135 502 213 807
256 143 21 480 13 637 -14z"/>
<path d="M3034 4506 c-27 -19 -78 -132 -106 -232 -18 -65 -22 -105 -22 -229 1
-134 4 -160 28 -240 52 -173 142 -325 280 -473 32 -34 57 -64 55 -66 -9 -8
-48 -26 -57 -26 -5 0 -32 36 -61 81 -224 343 -655 521 -1163 480 -236 -19
-438 -61 -475 -97 -40 -40 -32 -89 27 -159 28 -33 81 -86 118 -118 288 -249
648 -390 1061 -414 107 -6 113 -7 94 -22 -161 -126 -217 -174 -325 -279 l-126
-123 -39 19 c-118 61 -313 75 -464 34 -286 -77 -547 -303 -689 -596 -79 -162
-95 -233 -94 -411 0 -140 2 -155 28 -225 72 -189 206 -323 388 -387 64 -23 89
-26 198 -26 109 0 136 3 210 27 345 112 645 436 731 791 54 223 25 439 -80
596 -49 73 -61 52 114 212 209 191 428 343 665 462 84 42 111 52 106 38 -15
-39 -46 -249 -46 -314 0 -47 -4 -71 -12 -73 -7 -2 -43 -11 -81 -20 -286 -66
-512 -351 -573 -722 -22 -133 -15 -356 15 -469 53 -204 169 -355 333 -433 103
-50 175 -65 298 -65 362 2 626 311 681 797 21 189 -11 371 -95 541 -76 154
-183 261 -320 321 l-66 28 0 43 c0 74 29 269 51 339 40 131 44 135 157 172
114 37 137 56 137 114 0 31 -6 45 -28 64 -37 31 -67 30 -180 -6 -101 -32 -111
-34 -103 -22 16 27 27 226 16 319 -30 271 -138 478 -350 667 -122 109 -186
137 -236 102z m177 -303 c95 -100 160 -211 198 -338 23 -78 39 -207 34 -275
-6 -80 -26 -190 -34 -190 -10 0 -107 110 -161 182 -124 164 -184 374 -159 552
6 47 16 98 22 115 14 39 25 33 100 -46z m-863 -598 c202 -33 384 -115 509
-229 69 -63 143 -150 143 -168 0 -7 -70 -9 -212 -5 -226 5 -319 19 -491 73
-167 53 -378 168 -496 272 l-45 39 95 12 c52 7 101 14 109 16 48 9 307 3 388
-10z m1137 -1066 c159 -29 286 -158 351 -355 28 -85 29 -97 28 -259 -1 -201
-16 -273 -90 -425 -37 -74 -63 -110 -118 -166 -96 -96 -151 -118 -296 -119
-126 0 -183 17 -268 79 -71 52 -122 127 -159 232 -27 76 -28 87 -28 264 0 218
11 271 86 428 41 84 64 117 122 176 76 77 164 130 241 146 58 11 66 11 131 -1z
m-1290 -80 c97 -30 178 -101 230 -203 39 -76 40 -82 44 -196 2 -95 -1 -134
-18 -201 -62 -246 -261 -493 -486 -604 -120 -60 -197 -78 -305 -73 -70 3 -98
10 -153 36 -127 59 -221 183 -248 327 -50 267 147 640 432 818 174 108 353
143 504 96z"/>
<path d="M3211 1476 c-155 -51 -103 -174 88 -205 164 -26 290 54 221 141 -47
60 -215 94 -309 64z"/>
<path d="M1370 1602 c-38 -39 -40 -92 -6 -160 75 -146 284 -238 363 -159 100
100 -81 332 -269 345 -53 4 -59 2 -88 -26z"/>
</g>
</svg>
