<?xml version="1.0" encoding="UTF-8"?>
<svg version="1.1" xmlns="http://www.w3.org/2000/svg" width="261" height="169">
<path d="M0 0 C3.67018197 0.81892496 5.20388903 2.2035752 7.80859375 4.890625 C8.60136719 5.67953125 9.39414063 6.4684375 10.2109375 7.28125 C11.87109375 9.640625 11.87109375 9.640625 11.9296875 11.64453125 C10.42016557 14.49089918 8.41295896 16.20224215 5.99609375 18.328125 C5.50214111 18.76527832 5.00818848 19.20243164 4.49926758 19.65283203 C0.36235696 23.28617013 -3.89615272 26.76795952 -8.1796875 30.2265625 C-11.54259095 32.97924373 -14.83820194 35.80244269 -18.12890625 38.640625 C-22.25342331 42.19534045 -26.4009913 45.70855286 -30.62890625 49.140625 C-34.80974104 52.53678698 -38.92009359 56.00419452 -43.00390625 59.515625 C-43.59123535 60.0204541 -44.17856445 60.5252832 -44.78369141 61.04541016 C-45.97303819 62.06796824 -47.16232848 63.09059203 -48.3515625 64.11328125 C-68.21759127 81.18496751 -68.21759127 81.18496751 -73.12890625 83.640625 C-73.85966273 85.9546872 -74.53028883 88.28891369 -75.12890625 90.640625 C-74.30390625 91.259375 -73.47890625 91.878125 -72.62890625 92.515625 C-71.80390625 93.216875 -70.97890625 93.918125 -70.12890625 94.640625 C-70.12890625 95.300625 -70.12890625 95.960625 -70.12890625 96.640625 C-71.53979492 97.89892578 -71.53979492 97.89892578 -73.546875 99.3359375 C-74.29582031 99.87863281 -75.04476562 100.42132813 -75.81640625 100.98046875 C-76.64140625 101.56957031 -77.46640625 102.15867187 -78.31640625 102.765625 C-80.07147853 104.03745498 -81.82534221 105.3109541 -83.578125 106.5859375 C-84.49384277 107.25141602 -85.40956055 107.91689453 -86.35302734 108.60253906 C-90.82584191 111.88653695 -95.22635837 115.26333925 -99.62890625 118.640625 C-107.13690096 124.38757061 -114.69072313 130.06375596 -122.33178711 135.6328125 C-125.92671321 138.25683522 -129.48729787 140.89938613 -132.95703125 143.6875 C-143.93748718 152.42619662 -155.98823226 158.8063851 -168.4284668 165.20532227 C-171.15695709 166.60601499 -171.15695709 166.60601499 -173.72973633 168.32397461 C-176.12890625 169.640625 -176.12890625 169.640625 -180.12890625 169.640625 C-178.62418439 154.68745155 -167.01936669 141.38101851 -155.94140625 132.265625 C-154.55888672 131.17121094 -154.55888672 131.17121094 -153.1484375 130.0546875 C-149.7374821 127.32768823 -146.43193153 124.49639832 -143.12890625 121.640625 C-138.1402785 117.34001413 -133.0866639 113.13574591 -127.97265625 108.984375 C-124.65204031 106.24760362 -121.38846916 103.44956115 -118.12890625 100.640625 C-113.12684003 96.33083014 -108.06910739 92.10482949 -102.9375 87.94921875 C-100.82462296 86.21248672 -98.73794754 84.4580351 -96.6640625 82.67578125 C-96.07633057 82.17183838 -95.48859863 81.66789551 -94.88305664 81.14868164 C-93.73701114 80.16341748 -92.594119 79.17447021 -91.45483398 78.18139648 C-89.01085143 76.08271402 -87.21901171 74.67066015 -84.12890625 73.640625 C-83.87625 72.92003906 -83.62359375 72.19945313 -83.36328125 71.45703125 C-81.59851249 67.43045444 -78.72475323 65.33837556 -75.37890625 62.578125 C-74.37452515 61.72939819 -74.37452515 61.72939819 -73.34985352 60.86352539 C-71.95979333 59.68920647 -70.5666104 58.51857455 -69.17041016 57.3515625 C-66.11178034 54.78819515 -63.0910024 52.18145502 -60.06640625 49.578125 C-58.90791955 48.58550846 -57.74906515 47.59332092 -56.58984375 46.6015625 C-56.0184668 46.11268555 -55.44708984 45.62380859 -54.85839844 45.12011719 C-53.70540365 44.13378906 -52.55240885 43.14746094 -51.39941406 42.16113281 C-44.16233658 35.96900279 -36.94522834 29.75497403 -29.75219727 23.51171875 C-23.77820686 18.32953706 -17.80110282 13.14803355 -11.75390625 8.05126953 C-10.60192916 7.05125096 -9.47931275 6.01694999 -8.37890625 4.96044922 C-5.55183852 2.31394804 -3.85819731 0.78994302 0 0 Z M-83.12890625 76.640625 C-84.52689453 77.85685547 -84.52689453 77.85685547 -85.953125 79.09765625 C-96.05721072 87.878016 -106.17959864 96.6322099 -116.56640625 105.078125 C-121.4301965 109.03570688 -126.18771856 113.10604946 -130.93725586 117.19897461 C-134.46189544 120.23007789 -138.01930507 123.21047816 -141.62890625 126.140625 C-143.46344633 127.63914888 -145.29669016 129.13926052 -147.12890625 130.640625 C-147.6914209 131.09937012 -148.25393555 131.55811523 -148.83349609 132.03076172 C-158.8238532 140.2179417 -168.10588106 148.41065062 -173.12890625 160.640625 C-172.79890625 161.300625 -172.46890625 161.960625 -172.12890625 162.640625 C-157.20592237 155.08059964 -143.65075521 146.84438291 -130.51269531 136.49609375 C-126.63576805 133.47841174 -122.66113518 130.59690374 -118.69140625 127.703125 C-110.87028525 121.96894675 -103.15084945 116.10779123 -95.44873047 110.21508789 C-89.40655027 105.59745425 -83.32442468 101.0514859 -77.12890625 96.640625 C-77.47695312 96.09921875 -77.825 95.5578125 -78.18359375 95 C-79.41719493 91.92109458 -78.94319198 90.10729174 -78.25390625 86.890625 C-78.05023438 85.90578125 -77.8465625 84.9209375 -77.63671875 83.90625 C-77.46914062 83.15859375 -77.3015625 82.4109375 -77.12890625 81.640625 C-79.10890625 79.990625 -81.08890625 78.340625 -83.12890625 76.640625 Z " fill="#363636" transform="translate(180.12890625,-0.640625)"/>
<path d="M0 0 C4.84473003 1.38420858 8.22994748 4.75557717 11.0625 8.875 C11.55859375 11.37890625 11.55859375 11.37890625 11.0625 13.875 C9.26171875 16.015625 9.26171875 16.015625 6.75 18.125 C5.82960937 18.90875 4.90921875 19.6925 3.9609375 20.5 C3.00445312 21.28375 2.04796875 22.0675 1.0625 22.875 C0.20914063 23.57625 -0.64421875 24.2775 -1.5234375 25 C-3.30770111 26.45741653 -5.09566127 27.91031576 -6.88671875 29.359375 C-10.45806624 32.30425052 -13.9496164 35.33220087 -17.4375 38.375 C-22.59314063 42.87020733 -27.81261424 47.26123664 -33.12890625 51.56640625 C-36.44048935 54.28844465 -39.6905082 57.07653371 -42.9375 59.875 C-48.85896474 64.97406139 -54.85647972 69.96655313 -60.9375 74.875 C-61.87207031 75.63296875 -62.80664062 76.3909375 -63.76953125 77.171875 C-70.67526224 82.74388112 -70.67526224 82.74388112 -72.9375 83.875 C-73.66825648 86.1890622 -74.33888258 88.52328869 -74.9375 90.875 C-74.1125 91.49375 -73.2875 92.1125 -72.4375 92.75 C-71.6125 93.45125 -70.7875 94.1525 -69.9375 94.875 C-69.9375 95.535 -69.9375 96.195 -69.9375 96.875 C-71.34838867 98.13330078 -71.34838867 98.13330078 -73.35546875 99.5703125 C-74.10441406 100.11300781 -74.85335937 100.65570313 -75.625 101.21484375 C-76.45 101.80394531 -77.275 102.39304687 -78.125 103 C-79.88007228 104.27182998 -81.63393596 105.5453291 -83.38671875 106.8203125 C-84.30243652 107.48579102 -85.2181543 108.15126953 -86.16162109 108.83691406 C-90.63443566 112.12091195 -95.03495212 115.49771425 -99.4375 118.875 C-106.94549471 124.62194561 -114.49931688 130.29813096 -122.14038086 135.8671875 C-125.73530696 138.49121022 -129.29589162 141.13376113 -132.765625 143.921875 C-143.74608093 152.66057162 -155.79682601 159.0407601 -168.23706055 165.43969727 C-170.96555084 166.84038999 -170.96555084 166.84038999 -173.53833008 168.55834961 C-175.9375 169.875 -175.9375 169.875 -179.9375 169.875 C-178.43277814 154.92182655 -166.82796044 141.61539351 -155.75 132.5 C-154.36748047 131.40558594 -154.36748047 131.40558594 -152.95703125 130.2890625 C-149.54607585 127.56206323 -146.24052528 124.73077332 -142.9375 121.875 C-137.94887225 117.57438913 -132.89525765 113.37012091 -127.78125 109.21875 C-124.46063514 106.48197951 -121.19703218 103.6839705 -117.9375 100.875 C-112.96054862 96.58600734 -107.92407126 92.38723278 -102.81640625 88.25390625 C-100.58839012 86.41284544 -98.39500614 84.54883571 -96.21484375 82.65234375 C-95.25964844 81.82283203 -95.25964844 81.82283203 -94.28515625 80.9765625 C-93.03010006 79.88320066 -91.77867107 78.78565855 -90.53125 77.68359375 C-86.15731812 73.875 -86.15731812 73.875 -83.9375 73.875 C-83.74671875 73.17503906 -83.5559375 72.47507812 -83.359375 71.75390625 C-81.39789345 67.78244498 -78.56682669 65.60044452 -75.1875 62.8125 C-74.5171875 62.24595703 -73.846875 61.67941406 -73.15625 61.09570312 C-71.76548904 59.92061469 -70.37157519 58.74924815 -68.97460938 57.58154297 C-65.93956563 55.03900273 -62.93971232 52.45612839 -59.9375 49.875 C-58.78132781 48.88532576 -57.6250772 47.89574312 -56.46875 46.90625 C-52.77906397 43.74366197 -49.1073724 40.56053816 -45.4375 37.375 C-38.88161141 31.68522287 -32.29808285 26.02852509 -25.70214844 20.38525391 C-22.6331668 17.75870156 -19.5667429 15.12916553 -16.5 12.5 C-13.20843308 9.67858867 -13.20843308 9.67858867 -11.59057617 8.29833984 C-10.41049637 7.28226168 -9.23975779 6.25529294 -8.07543945 5.22119141 C-7.46015381 4.67897949 -6.84486816 4.13676758 -6.2109375 3.578125 C-5.6545459 3.0821582 -5.0981543 2.58619141 -4.52490234 2.07519531 C-2.9375 0.875 -2.9375 0.875 0 0 Z M-82.9375 76.875 C-84.33548828 78.09123047 -84.33548828 78.09123047 -85.76171875 79.33203125 C-95.86580447 88.112391 -105.98819239 96.8665849 -116.375 105.3125 C-121.23879025 109.27008188 -125.99631231 113.34042446 -130.74584961 117.43334961 C-134.27048919 120.46445289 -137.82789882 123.44485316 -141.4375 126.375 C-160.49151642 140.92196352 -160.49151642 140.92196352 -172.9375 160.875 C-172.6075 161.535 -172.2775 162.195 -171.9375 162.875 C-156.47174241 155.1047643 -142.70316574 146.42902432 -129.18261719 135.63916016 C-126.17405559 133.27510338 -123.07593154 131.06192318 -119.9375 128.875 C-113.07836079 124.06004367 -106.44421282 118.95887157 -99.79223633 113.86328125 C-92.25095482 108.09289664 -84.62493865 102.44868824 -76.9375 96.875 C-77.27394531 96.2871875 -77.61039062 95.699375 -77.95703125 95.09375 C-79.81100551 90.89830228 -78.13655214 86.15732908 -76.9375 81.875 C-78.9175 80.225 -80.8975 78.575 -82.9375 76.875 Z " fill="#363636" transform="translate(249.9375,-0.875)"/>
</svg>
