<?xml version="1.0" encoding="UTF-8"?>
<svg version="1.1" xmlns="http://www.w3.org/2000/svg" width="192" height="192">
<path d="M0 0 C0 0.66 0 1.32 0 2 C0.72574219 2.10441406 1.45148438 2.20882813 2.19921875 2.31640625 C5.25984191 3.06342027 7.21471478 4.17548648 9.8125 5.9375 C10.60269531 6.46214844 11.39289063 6.98679687 12.20703125 7.52734375 C12.79871094 8.01332031 13.39039063 8.49929688 14 9 C14 9.66 14 10.32 14 11 C14.804375 11.3403125 14.804375 11.3403125 15.625 11.6875 C21.33276533 14.84179137 24.53581337 18.55627816 28 24 C28.66 24.33 29.32 24.66 30 25 C35.36428371 34.13553772 36.80777098 44.17441422 34.41796875 54.51953125 C33.6875 56.5625 33.6875 56.5625 32 60 C31.38125 61.423125 31.38125 61.423125 30.75 62.875 C27.70546172 68.3116755 24.30655122 73.80289849 19.77734375 78.1171875 C17.65677684 79.93205765 17.65677684 79.93205765 18 83 C20.65502822 83.88500941 22.66691765 84.23164854 25.421875 84.46484375 C26.71351563 84.58182617 26.71351563 84.58182617 28.03125 84.70117188 C29.82790695 84.8573468 31.62478173 85.01103794 33.421875 85.16210938 C40.73205463 85.83112135 47.04950426 87.62665999 54 90 C54 90.66 54 91.32 54 92 C55.0828125 91.87818359 55.0828125 91.87818359 56.1875 91.75390625 C61.73102632 92.2389648 65.39177469 97.07775836 69 101 C74.55775913 108.9396559 75.24343364 115.69678117 75.375 125.1875 C75.43107422 126.69280273 75.43107422 126.69280273 75.48828125 128.22851562 C75.58808396 136.75055854 73.25478063 142.03001618 67.90234375 148.55859375 C67.25394531 149.17863281 66.60554687 149.79867187 65.9375 150.4375 C64.96103516 151.39462891 64.96103516 151.39462891 63.96484375 152.37109375 C60.46566994 155.27199927 58.62923378 156 54 156 C54 156.66 54 157.32 54 158 C49.22925383 159.23398119 44.5740582 159.11225053 39.6875 159.0625 C35.3871875 159.0315625 35.3871875 159.0315625 31 159 C31 169.56 31 180.12 31 191 C-10.25 191 -51.5 191 -94 191 C-94.33 174.5 -94.66 158 -95 141 C-96.11127486 134.29845247 -96.11127486 134.29845247 -99 132.625 C-99.66 132.41875 -100.32 132.2125 -101 132 C-101.66 131.67 -102.32 131.34 -103 131 C-103 130.34 -103 129.68 -103 129 C-103.66 129 -104.32 129 -105 129 C-108 125.53846154 -108 125.53846154 -108 123 C-108.66 123 -109.32 123 -110 123 C-116.56472339 114.10585864 -117.49707367 107.57074538 -117.4375 96.75 C-117.45748047 95.47769531 -117.47746094 94.20539063 -117.49804688 92.89453125 C-117.4921397 81.44642145 -114.86487492 72.5137271 -107 64 C-103.40816327 61 -103.40816327 61 -101 61 C-101 60.34 -101 59.68 -101 59 C-94.44301336 56.06681545 -88.95455529 55.52613988 -81.8125 55.625 C-80.29644165 55.63370117 -80.29644165 55.63370117 -78.74975586 55.64257812 C-71.1577928 55.77398802 -64.25806577 56.65958724 -57 59 C-57 59.66 -57 60.32 -57 61 C-54.03 61.495 -54.03 61.495 -51 62 C-51.34933594 61.33613281 -51.69867188 60.67226563 -52.05859375 59.98828125 C-52.51363281 59.10527344 -52.96867187 58.22226562 -53.4375 57.3125 C-53.88996094 56.44238281 -54.34242187 55.57226562 -54.80859375 54.67578125 C-57.27010282 49.14747399 -57.21271756 43.70586927 -57.25 37.75 C-57.270625 36.94175781 -57.29125 36.13351563 -57.3125 35.30078125 C-57.38086698 24.61844077 -53.69894547 17.06426249 -46.4765625 9.37890625 C-44.7400026 7.74823415 -42.94251798 6.37903948 -41 5 C-40.26265625 4.43796875 -39.5253125 3.8759375 -38.765625 3.296875 C-28.3601379 -3.29121447 -11.66988484 -3.37911812 0 0 Z M-31 11 C-31 11.66 -31 12.32 -31 13 C-32.0828125 13.12375 -32.0828125 13.12375 -33.1875 13.25 C-36.58926868 14.15713831 -38.45466084 15.60010879 -41 18 C-41 18.66 -41 19.32 -41 20 C-41.66 20 -42.32 20 -43 20 C-44.25664978 22.90600261 -45 24.79604584 -45 28 C-45.66 28 -46.32 28 -47 28 C-49.66972126 40.2454157 -47.14758184 49.87821734 -42 61 C-41.01725053 62.34609853 -40.0195561 63.68156034 -39 65 C-37.17829091 68.70394008 -36.75138168 71.63840414 -36.8125 75.75 C-36.81894531 76.71421875 -36.82539062 77.6784375 -36.83203125 78.671875 C-37 81 -37 81 -38 82 C-39.68608966 82.07205511 -41.37500659 82.08386068 -43.0625 82.0625 C-44.44115234 82.04896484 -44.44115234 82.04896484 -45.84765625 82.03515625 C-46.91306641 82.01775391 -46.91306641 82.01775391 -48 82 C-48 81.34 -48 80.68 -48 80 C-48.66 80 -49.32 80 -50 80 C-50.20625 79.443125 -50.4125 78.88625 -50.625 78.3125 C-53.08652075 74.17266965 -57.04754311 71.63497126 -61 69 C-63.71306473 68.41057118 -66.38999457 67.89173201 -69.125 67.4375 C-76.87696335 66.12303665 -76.87696335 66.12303665 -78 65 C-87.04145967 64.11790637 -94.75444771 69.16963181 -102 74 C-102 75.32 -102 76.64 -102 78 C-102.66 78 -103.32 78 -104 78 C-106.31226903 83.51457812 -106.29938244 88.56510475 -106.25 94.4375 C-106.25773437 95.35337891 -106.26546875 96.26925781 -106.2734375 97.21289062 C-106.25242144 104.53173518 -104.86650839 110.24323022 -102 117 C-101.34 117 -100.68 117 -100 117 C-99.773125 117.5775 -99.54625 118.155 -99.3125 118.75 C-97.08951132 122.56083774 -94.14211008 124.61929664 -90 126 C-81.25531036 126.6144917 -74.93400603 126.39518236 -67.6328125 121.37109375 C-64.31903778 118.38672987 -62.21745706 115.0769073 -59.875 111.3125 C-55.40289256 104.13429752 -55.40289256 104.13429752 -52 103 C-52 102.34 -52 101.68 -52 101 C-49.03 101.66 -46.06 102.32 -43 103 C-43.14120714 104.93784265 -43.28812873 106.87526955 -43.4375 108.8125 C-43.51871094 109.89144531 -43.59992188 110.97039062 -43.68359375 112.08203125 C-44 115 -44 115 -45 118 C-46.31403276 118.70394612 -47.6520257 119.36345658 -49 120 C-49.680625 120.598125 -50.36125 121.19625 -51.0625 121.8125 C-55.34048658 124.99823468 -60.11293559 126.91165724 -65 129 C-65 129.66 -65 130.32 -65 131 C-65.721875 131.12375 -66.44375 131.2475 -67.1875 131.375 C-71.77627472 132.39472771 -74.75458759 133.60706884 -78 137 C-78.99 137.33 -79.98 137.66 -81 138 C-87.71482605 151.4296521 -83 167.98519249 -83 183 C-49.34 183 -15.68 183 19 183 C19.66 179.7 20.32 176.4 21 173 C20.67 172.67 20.34 172.34 20 172 C19.76244437 168.66290895 19.60425121 165.33311258 19.48242188 161.99023438 C19.31854434 156.63511457 19.31854434 156.63511457 17 152 C14.27854706 149.91753841 14.27854706 149.91753841 11 148 C10.4220166 147.64873047 9.8440332 147.29746094 9.24853516 146.93554688 C7.44750569 145.85365291 5.63281964 144.79906361 3.8125 143.75 C3.19697266 143.38648438 2.58144531 143.02296875 1.94726562 142.6484375 C-1.77711731 140.49924648 -1.77711731 140.49924648 -6 140 C-6 139.34 -6 138.68 -6 138 C-6.763125 137.731875 -7.52625 137.46375 -8.3125 137.1875 C-10.90496926 136.04199033 -12.08815544 135.00288478 -14 133 C-14.66 133 -15.32 133 -16 133 C-16.66 131.35 -17.32 129.7 -18 128 C-18.66 128 -19.32 128 -20 128 C-20.85298376 124.32612505 -21.10789471 120.9552607 -21.0625 117.1875 C-21.05347656 116.21167969 -21.04445313 115.23585938 -21.03515625 114.23046875 C-21.02355469 113.49441406 -21.01195313 112.75835937 -21 112 C-14.76744828 110.65572414 -14.76744828 110.65572414 -11.4921875 112.125 C-8.55191936 114.33711396 -7.15676056 116.5170296 -5.3125 119.6875 C-4.25880746 121.48882361 -3.1663874 123.26951592 -2 125 C-1.34 125 -0.68 125 0 125 C0.2165625 125.57234375 0.433125 126.1446875 0.65625 126.734375 C2.44414884 129.74885559 4.65234274 131.22666458 7.5 133.25 C8.96953125 134.30960938 8.96953125 134.30960938 10.46875 135.390625 C12.78136658 137.17884613 12.78136658 137.17884613 15 137 C15 137.66 15 138.32 15 139 C32.21149872 147.74641374 32.21149872 147.74641374 51 148 C51 147.34 51 146.68 51 146 C51.70125 145.95875 52.4025 145.9175 53.125 145.875 C58.43460316 144.25903382 61.66504341 139.96634772 64.375 135.3125 C66.69841797 130.36803613 66.35380531 125.34639141 66 120 C65.34 120 64.68 120 64 120 C63.7834375 118.6078125 63.7834375 118.6078125 63.5625 117.1875 C63.07899889 113.99274889 63.07899889 113.99274889 62 111 C61.34 111 60.68 111 60 111 C59.773125 110.4225 59.54625 109.845 59.3125 109.25 C56.29101626 104.07031359 51.39113082 102.11794425 46 100 C45.175 99.62875 44.35 99.2575 43.5 98.875 C40.37433122 97.78101593 37.27416053 97.44075238 34 97 C33.67 96.67 33.34 96.34 33 96 C31.0491272 95.83198044 29.09305063 95.72369642 27.13671875 95.640625 C25.93982422 95.57617188 24.74292969 95.51171875 23.50976562 95.4453125 C20.97402882 95.31573985 18.43748766 95.20100519 15.90039062 95.1015625 C14.69962891 95.03195313 13.49886719 94.96234375 12.26171875 94.890625 C10.60595825 94.81376465 10.60595825 94.81376465 8.91674805 94.73535156 C5.13173031 93.78109749 4.06246572 92.23703596 2 89 C0.96710657 85.03226456 1.3163511 81.38622233 3.12890625 77.7109375 C4.01426696 76.32362014 4.93826286 74.95988857 5.90625 73.62890625 C7.18581793 72.05027168 7.18581793 72.05027168 7 70 C7.66 70 8.32 70 9 70 C12.02517909 66.94441577 12.02517909 66.94441577 13 63 C13.66 63 14.32 63 15 63 C22.06813613 51.45033155 22.06813613 51.45033155 21.81640625 38.41015625 C20.6345708 34.92119704 19.01023255 32.08235658 17 29 C16.34 29 15.68 29 15 29 C14.62875 28.1646875 14.62875 28.1646875 14.25 27.3125 C10.71927916 20.78066645 5.35623013 16.68215669 -1 13 C-1.99 13 -2.98 13 -4 13 C-4 12.34 -4 11.68 -4 11 C-5.299375 10.855625 -6.59875 10.71125 -7.9375 10.5625 C-11.875 10.125 -11.875 10.125 -13 9 C-19.27025224 8.65798624 -24.89758025 9.59944465 -31 11 Z " fill="#333333" transform="translate(117,1)"/>
<path d="M0 0 C3.125 0.375 3.125 0.375 4.78125 2.2578125 C6.69165244 6.68950187 6.65494522 10.84510224 6.75 15.625 C6.80077714 17.44282177 6.85525845 19.26054518 6.9140625 21.078125 C6.93162598 21.87895508 6.94918945 22.67978516 6.96728516 23.50488281 C6.92362966 25.38869073 6.92362966 25.38869073 8.125 26.375 C8.67464365 33.66834839 8.73047865 39.91518408 5.125 46.375 C2.3125 46.6875 2.3125 46.6875 -0.875 46.375 C-6.83252012 38.81569381 -4.95109535 26.14482893 -5 16.875 C-5.00475342 16.13419189 -5.00950684 15.39338379 -5.0144043 14.63012695 C-4.97176291 0.64849081 -4.97176291 0.64849081 0 0 Z " fill="#333333" transform="translate(53.875,135.625)"/>
<path d="M0 0 C3.65705741 7.80172248 3.26145213 16.738506 3.375 25.1875 C3.41238281 26.25419922 3.44976562 27.32089844 3.48828125 28.41992188 C3.5743711 36.0675698 3.5743711 36.0675698 1.86035156 38.85009766 C0.4765625 40.23828125 0.4765625 40.23828125 -2 42 C-4.375 41.4375 -4.375 41.4375 -7 40 C-8.85626733 35.01074056 -9.27460432 30.36483756 -9.1953125 25.09765625 C-9.1924826 24.3750914 -9.18965271 23.65252655 -9.18673706 22.9080658 C-9.17564386 20.62603384 -9.15056088 18.34441103 -9.125 16.0625 C-9.11495611 14.50456301 -9.10583274 12.94661979 -9.09765625 11.38867188 C-9.07574033 7.59229301 -9.04128738 3.7962156 -9 0 C-5.93109813 -1.53445094 -3.29905734 -0.54984289 0 0 Z " fill="#343434" transform="translate(88,141)"/>
<path d="M0 0 C3.3125 -0.25 3.3125 -0.25 7 0 C13.38241569 6.57764253 13.1237689 20.38774716 13 29 C11.65346535 34.56435644 11.65346535 34.56435644 8 37 C4.9375 36.9375 4.9375 36.9375 2 36 C-2.24144768 29.53684163 -1.15807742 18.99940662 -1.125 11.5625 C-1.12886719 10.66595703 -1.13273437 9.76941406 -1.13671875 8.84570312 C-1.13542969 7.99041016 -1.13414063 7.13511719 -1.1328125 6.25390625 C-1.13168457 5.48377197 -1.13055664 4.7136377 -1.12939453 3.92016602 C-1 2 -1 2 0 0 Z " fill="#343434" transform="translate(107,146)"/>
</svg>
