<?xml version="1.0" encoding="UTF-8"?>
<svg version="1.1" xmlns="http://www.w3.org/2000/svg" width="512" height="512">
<path d="M0 0 C15.84 0 31.68 0 48 0 C48 0.66 48 1.32 48 2 C51.3 2 54.6 2 58 2 C58 2.99 58 3.98 58 5 C60.97 5 63.94 5 67 5 C67.33 6.32 67.66 7.64 68 9 C69.98 9 71.96 9 74 9 C74 9.99 74 10.98 74 12 C75.98 12 77.96 12 80 12 C80.33 12.99 80.66 13.98 81 15 C82.65 15 84.3 15 86 15 C86.33 16.32 86.66 17.64 87 19 C87.99 19 88.98 19 90 19 C90 19.99 90 20.98 90 22 C91.98 22 93.96 22 96 22 C96.33 23.32 96.66 24.64 97 26 C97.99 26 98.98 26 100 26 C100 26.99 100 27.98 100 29 C100.99 29 101.98 29 103 29 C103 29.99 103 30.98 103 32 C105.31 32.33 107.62 32.66 110 33 C110 33.99 110 34.98 110 36 C110.99 36 111.98 36 113 36 C113 36.99 113 37.98 113 39 C113.99 39 114.98 39 116 39 C116 40.32 116 41.64 116 43 C117.32 43.33 118.64 43.66 120 44 C120 44.66 120 45.32 120 46 C120.99 46 121.98 46 123 46 C123 47.32 123 48.64 123 50 C124.98 50 126.96 50 129 50 C129 51.98 129 53.96 129 56 C129.99 56 130.98 56 132 56 C132 57.32 132 58.64 132 60 C133.32 60 134.64 60 136 60 C136 60.99 136 61.98 136 63 C136.99 63 137.98 63 139 63 C139 64.32 139 65.64 139 67 C139.99 67 140.98 67 142 67 C142 67.99 142 68.98 142 70 C142.99 70 143.98 70 145 70 C145 72.31 145 74.62 145 77 C146.32 77.33 147.64 77.66 149 78 C149 79.98 149 81.96 149 84 C149.99 84 150.98 84 152 84 C152 86.31 152 88.62 152 91 C152.99 91 153.98 91 155 91 C155 94.3 155 97.6 155 101 C155.99 101 156.98 101 158 101 C158 114.53 158 128.06 158 142 C157.01 142 156.02 142 155 142 C155 145.3 155 148.6 155 152 C154.01 152 153.02 152 152 152 C152 155.3 152 158.6 152 162 C151.01 162 150.02 162 149 162 C149 164.31 149 166.62 149 169 C147.68 169 146.36 169 145 169 C145 171.31 145 173.62 145 176 C144.01 176 143.02 176 142 176 C142 176.99 142 177.98 142 179 C141.01 179 140.02 179 139 179 C139 181.31 139 183.62 139 186 C138.01 186 137.02 186 136 186 C136 186.99 136 187.98 136 189 C135.01 189 134.02 189 133 189 C132.67 190.32 132.34 191.64 132 193 C131.01 193 130.02 193 129 193 C129 195.31 129 197.62 129 200 C128.01 200 127.02 200 126 200 C126 200.99 126 201.98 126 203 C125.01 203 124.02 203 123 203 C123 203.99 123 204.98 123 206 C122.01 206 121.02 206 120 206 C119.67 207.32 119.34 208.64 119 210 C118.01 210 117.02 210 116 210 C116 210.99 116 211.98 116 213 C115.01 213 114.02 213 113 213 C113 214.32 113 215.64 113 217 C112.01 217 111.02 217 110 217 C110 220.3 110 223.6 110 227 C113.96 227 117.92 227 122 227 C122.33 227.99 122.66 228.98 123 230 C124.11036621 229.99476318 125.22073242 229.98952637 126.36474609 229.98413086 C130.47590329 229.96606015 134.58705696 229.95456038 138.69824219 229.94506836 C140.47917267 229.94003289 142.260099 229.93320419 144.04101562 229.92456055 C146.59766665 229.91246058 149.15426312 229.90676391 151.7109375 229.90234375 C152.50994476 229.89718246 153.30895203 229.89202118 154.13217163 229.88670349 C159.77225659 229.88612829 159.77225659 229.88612829 162 231 C162 231.99 162 232.98 162 234 C167.28 234 172.56 234 178 234 C178 234.99 178 235.98 178 237 C182.95 237 187.9 237 193 237 C193.33 238.32 193.66 239.64 194 241 C197.3 241 200.6 241 204 241 C204 241.99 204 242.98 204 244 C205.98 244 207.96 244 210 244 C210 244.99 210 245.98 210 247 C213.3 247.33 216.6 247.66 220 248 C220 248.99 220 249.98 220 251 C221.98 251 223.96 251 226 251 C226 251.99 226 252.98 226 254 C227.32 254.33 228.64 254.66 230 255 C230 255.99 230 256.98 230 258 C231.98 258 233.96 258 236 258 C236 258.99 236 259.98 236 261 C236.99 261 237.98 261 239 261 C239 262.32 239 263.64 239 265 C240.32 265 241.64 265 243 265 C243 265.99 243 266.98 243 268 C243.99 268 244.98 268 246 268 C246 268.99 246 269.98 246 271 C246.99 271.33 247.98 271.66 249 272 C249 273.98 249 275.96 249 278 C249.99 278 250.98 278 252 278 C252 279.32 252 280.64 252 282 C253.32 282.33 254.64 282.66 256 283 C256 284.98 256 286.96 256 289 C256.99 289 257.98 289 259 289 C259 290.98 259 292.96 259 295 C259.99 295.33 260.98 295.66 262 296 C262 299.3 262 302.6 262 306 C262.99 306 263.98 306 265 306 C265 310.29 265 314.58 265 319 C265.66 319 266.32 319 267 319 C267 331.54 267 344.08 267 357 C266.34 357 265.68 357 265 357 C265 360.3 265 363.6 265 367 C264.01 367 263.02 367 262 367 C262 370.3 262 373.6 262 377 C261.01 377 260.02 377 259 377 C258.67 378.32 258.34 379.64 258 381 C257.34 381 256.68 381 256 381 C256 382.98 256 384.96 256 387 C254.68 387 253.36 387 252 387 C252 388.32 252 389.64 252 391 C251.01 391 250.02 391 249 391 C249 391.99 249 392.98 249 394 C248.01 394 247.02 394 246 394 C246 395.32 246 396.64 246 398 C245.01 398 244.02 398 243 398 C243 398.99 243 399.98 243 401 C241.68 401 240.36 401 239 401 C239 401.99 239 402.98 239 404 C238.01 404 237.02 404 236 404 C236 405.32 236 406.64 236 408 C235.01 408 234.02 408 233 408 C233 408.99 233 409.98 233 411 C230.69 411 228.38 411 226 411 C226 412.32 226 413.64 226 415 C224.02 415 222.04 415 220 415 C220 415.99 220 416.98 220 418 C216.7 418 213.4 418 210 418 C209.67 419.32 209.34 420.64 209 422 C205.04 422 201.08 422 197 422 C197 422.99 197 423.98 197 425 C181.16 425 165.32 425 149 425 C149 453.71 149 482.42 149 512 C39.77 512 -69.46 512 -182 512 C-182 467.45 -182 422.9 -182 377 C-182.99 377 -183.98 377 -185 377 C-185 373.7 -185 370.4 -185 367 C-185.99 367 -186.98 367 -188 367 C-188 366.01 -188 365.02 -188 364 C-189.32 363.34 -190.64 362.68 -192 362 C-192 361.34 -192 360.68 -192 360 C-192.99 360 -193.98 360 -195 360 C-195 359.01 -195 358.02 -195 357 C-195.99 357 -196.98 357 -198 357 C-198 355.68 -198 354.36 -198 353 C-198.99 353 -199.98 353 -201 353 C-201 352.01 -201 351.02 -201 350 C-202.98 350 -204.96 350 -207 350 C-207.33 348.68 -207.66 347.36 -208 346 C-208.99 346 -209.98 346 -211 346 C-211 345.01 -211 344.02 -211 343 C-211.99 343 -212.98 343 -214 343 C-214 342.01 -214 341.02 -214 340 C-214.99 339.67 -215.98 339.34 -217 339 C-217 338.01 -217 337.02 -217 336 C-218.32 335.67 -219.64 335.34 -221 335 C-221 333.02 -221 331.04 -221 329 C-221.99 329 -222.98 329 -224 329 C-224 328.01 -224 327.02 -224 326 C-224.99 326 -225.98 326 -227 326 C-227 325.01 -227 324.02 -227 323 C-227.99 323 -228.98 323 -230 323 C-230 321.68 -230 320.36 -230 319 C-231.32 318.67 -232.64 318.34 -234 318 C-234 316.02 -234 314.04 -234 312 C-234.99 312 -235.98 312 -237 312 C-237 309.69 -237 307.38 -237 305 C-237.99 305 -238.98 305 -240 305 C-240 303.02 -240 301.04 -240 299 C-240.99 299 -241.98 299 -243 299 C-243 295.37 -243 291.74 -243 288 C-243.66 288 -244.32 288 -245 288 C-245 271.17 -245 254.34 -245 237 C-244.34 237 -243.68 237 -243 237 C-243 231.39 -243 225.78 -243 220 C-242.01 220 -241.02 220 -240 220 C-240 216.7 -240 213.4 -240 210 C-239.01 210 -238.02 210 -237 210 C-237 207.69 -237 205.38 -237 203 C-236.01 203 -235.02 203 -234 203 C-234 201.02 -234 199.04 -234 197 C-232.68 196.67 -231.36 196.34 -230 196 C-230 194.02 -230 192.04 -230 190 C-229.34 189.67 -228.68 189.34 -228 189 C-227.67 188.01 -227.34 187.02 -227 186 C-226.01 186 -225.02 186 -224 186 C-224 184.02 -224 182.04 -224 180 C-223.01 179.67 -222.02 179.34 -221 179 C-220.67 178.01 -220.34 177.02 -220 176 C-219.01 176 -218.02 176 -217 176 C-216.67 174.68 -216.34 173.36 -216 172 C-214.35 172 -212.7 172 -211 172 C-211 171.01 -211 170.02 -211 169 C-210.01 169 -209.02 169 -208 169 C-208 168.01 -208 167.02 -208 166 C-205.69 166 -203.38 166 -201 166 C-201 164.68 -201 163.36 -201 162 C-199.02 162 -197.04 162 -195 162 C-195 161.01 -195 160.02 -195 159 C-192.69 159 -190.38 159 -188 159 C-188 157.68 -188 156.36 -188 155 C-182.72 155 -177.44 155 -172 155 C-172 154.01 -172 153.02 -172 152 C-157.15 152 -142.3 152 -127 152 C-127 152.99 -127 153.98 -127 155 C-121.72 155 -116.44 155 -111 155 C-111 156.32 -111 157.64 -111 159 C-106.71 159 -102.42 159 -98 159 C-98 159.99 -98 160.98 -98 162 C-93.71 162 -89.42 162 -85 162 C-85 163.32 -85 164.64 -85 166 C-81.7 166 -78.4 166 -75 166 C-75 166.99 -75 167.98 -75 169 C-73.02 169 -71.04 169 -69 169 C-68.67 169.66 -68.34 170.32 -68 171 C-67.01 171.33 -66.02 171.66 -65 172 C-65 171.01 -65 170.02 -65 169 C-65.99 169 -66.98 169 -68 169 C-68 166.69 -68 164.38 -68 162 C-69.32 162 -70.64 162 -72 162 C-72 159.69 -72 157.38 -72 155 C-72.99 155 -73.98 155 -75 155 C-75 152.69 -75 150.38 -75 148 C-75.99 148 -76.98 148 -78 148 C-78 146.02 -78 144.04 -78 142 C-78.99 141.67 -79.98 141.34 -81 141 C-81 136.71 -81 132.42 -81 128 C-82.32 127.67 -83.64 127.34 -85 127 C-85.02529479 120.20069165 -85.04284349 113.40139537 -85.05493164 106.60205078 C-85.05996943 104.28759304 -85.06679981 101.9731385 -85.07543945 99.65869141 C-85.08752924 96.3375571 -85.09323375 93.01646475 -85.09765625 89.6953125 C-85.10281754 88.65569366 -85.10797882 87.61607483 -85.11329651 86.54495239 C-85.11337204 85.58410736 -85.11344757 84.62326233 -85.11352539 83.63330078 C-85.115746 82.78502716 -85.11796661 81.93675354 -85.12025452 81.06277466 C-85 79 -85 79 -84 77 C-83.01 77 -82.02 77 -81 77 C-81 73.7 -81 70.4 -81 67 C-80.01 67 -79.02 67 -78 67 C-78 64.69 -78 62.38 -78 60 C-77.01 60 -76.02 60 -75 60 C-75 57.69 -75 55.38 -75 53 C-74.01 53 -73.02 53 -72 53 C-72 52.01 -72 51.02 -72 50 C-70.68 50 -69.36 50 -68 50 C-68 47.69 -68 45.38 -68 43 C-67.01 43 -66.02 43 -65 43 C-64.67 41.68 -64.34 40.36 -64 39 C-63.34 39 -62.68 39 -62 39 C-62 38.01 -62 37.02 -62 36 C-61.01 36 -60.02 36 -59 36 C-59 35.01 -59 34.02 -59 33 C-57.68 32.67 -56.36 32.34 -55 32 C-55 31.01 -55 30.02 -55 29 C-53.02 29 -51.04 29 -49 29 C-49 28.01 -49 27.02 -49 26 C-48.01 26 -47.02 26 -46 26 C-46 24.68 -46 23.36 -46 22 C-44.68 22 -43.36 22 -42 22 C-42 21.01 -42 20.02 -42 19 C-40.02 19 -38.04 19 -36 19 C-36 17.68 -36 16.36 -36 15 C-33.69 15 -31.38 15 -29 15 C-29 14.01 -29 13.02 -29 12 C-27.02 12 -25.04 12 -23 12 C-23 11.01 -23 10.02 -23 9 C-21.02 9 -19.04 9 -17 9 C-16.67 7.68 -16.34 6.36 -16 5 C-14.02 5 -12.04 5 -10 5 C-10 4.01 -10 3.02 -10 2 C-6.7 2 -3.4 2 0 2 C0 1.34 0 0.68 0 0 Z M9 26 C9 26.99 9 27.98 9 29 C3.72 29 -1.56 29 -7 29 C-7 29.99 -7 30.98 -7 32 C-10.3 32 -13.6 32 -17 32 C-17 33.32 -17 34.64 -17 36 C-19.97 36 -22.94 36 -26 36 C-26 36.99 -26 37.98 -26 39 C-27.32 39 -28.64 39 -30 39 C-30 40.32 -30 41.64 -30 43 C-31.98 43 -33.96 43 -36 43 C-36 43.99 -36 44.98 -36 46 C-36.99 46 -37.98 46 -39 46 C-39 46.99 -39 47.98 -39 49 C-39.99 49 -40.98 49 -42 49 C-42.33 50.32 -42.66 51.64 -43 53 C-43.99 53 -44.98 53 -46 53 C-46 53.99 -46 54.98 -46 56 C-46.99 56 -47.98 56 -49 56 C-49 58.31 -49 60.62 -49 63 C-49.99 63 -50.98 63 -52 63 C-52 65.31 -52 67.62 -52 70 C-52.99 70 -53.98 70 -55 70 C-55.33 71.98 -55.66 73.96 -56 76 C-56.99 76.33 -57.98 76.66 -59 77 C-59 81.29 -59 85.58 -59 90 C-59.99 90 -60.98 90 -62 90 C-62 101.55 -62 113.1 -62 125 C-61.01 125 -60.02 125 -59 125 C-59 128.3 -59 131.6 -59 135 C-58.01 135 -57.02 135 -56 135 C-55.92652344 136.06541016 -55.92652344 136.06541016 -55.8515625 137.15234375 C-55.73941406 138.53099609 -55.73941406 138.53099609 -55.625 139.9375 C-55.55539063 140.85402344 -55.48578125 141.77054687 -55.4140625 142.71484375 C-55.27742187 143.46894531 -55.14078125 144.22304687 -55 145 C-54.34 145.33 -53.68 145.66 -53 146 C-52.375 149.0625 -52.375 149.0625 -52 152 C-51.01 152 -50.02 152 -49 152 C-49 154.31 -49 156.62 -49 159 C-48.01 159 -47.02 159 -46 159 C-46 161.31 -46 163.62 -46 166 C-45.01 166 -44.02 166 -43 166 C-43 166.99 -43 167.98 -43 169 C-42.01 169.33 -41.02 169.66 -40 170 C-39.67 171.98 -39.34 173.96 -39 176 C-38.01 176 -37.02 176 -36 176 C-36 178.31 -36 180.62 -36 183 C-35.01 183 -34.02 183 -33 183 C-33 185.31 -33 187.62 -33 190 C-32.01 190 -31.02 190 -30 190 C-30 198.91 -30 207.82 -30 217 C-30.99 217 -31.98 217 -33 217 C-33 217.99 -33 218.98 -33 220 C-33.99 220 -34.98 220 -36 220 C-36.33 220.99 -36.66 221.98 -37 223 C-42.61 223 -48.22 223 -54 223 C-54.33 222.01 -54.66 221.02 -55 220 C-56.32 220 -57.64 220 -59 220 C-59 219.01 -59 218.02 -59 217 C-59.99 217 -60.98 217 -62 217 C-62 215.68 -62 214.36 -62 213 C-62.99 213 -63.98 213 -65 213 C-65 212.01 -65 211.02 -65 210 C-65.99 210 -66.98 210 -68 210 C-68 208.68 -68 207.36 -68 206 C-69.32 206 -70.64 206 -72 206 C-72 205.01 -72 204.02 -72 203 C-72.99 203 -73.98 203 -75 203 C-75 202.01 -75 201.02 -75 200 C-75.99 200 -76.98 200 -78 200 C-78 198.68 -78 197.36 -78 196 C-78.99 196 -79.98 196 -81 196 C-81 195.01 -81 194.02 -81 193 C-83.31 193 -85.62 193 -88 193 C-88 191.68 -88 190.36 -88 189 C-89.98 189 -91.96 189 -94 189 C-94 188.01 -94 187.02 -94 186 C-98.29 186 -102.58 186 -107 186 C-107 185.01 -107 184.02 -107 183 C-111.95 182.67 -116.9 182.34 -122 182 C-122.33 181.01 -122.66 180.02 -123 179 C-124.71509766 178.92652344 -124.71509766 178.92652344 -126.46484375 178.8515625 C-127.95575473 178.77654811 -129.44663892 178.70099972 -130.9375 178.625 C-131.69224609 178.5940625 -132.44699219 178.563125 -133.22460938 178.53125 C-135.15507395 178.4273685 -137.07942081 178.22104386 -139 178 C-139.33 177.34 -139.66 176.68 -140 176 C-146.27 176 -152.54 176 -159 176 C-159 176.99 -159 177.98 -159 179 C-163.29 179 -167.58 179 -172 179 C-172.33 179.99 -172.66 180.98 -173 182 C-174.98 182.33 -176.96 182.66 -179 183 C-179 183.99 -179 184.98 -179 186 C-181.97 186 -184.94 186 -188 186 C-188 186.99 -188 187.98 -188 189 C-189.32 189 -190.64 189 -192 189 C-192 190.32 -192 191.64 -192 193 C-193.98 193 -195.96 193 -198 193 C-198 193.99 -198 194.98 -198 196 C-198.99 196 -199.98 196 -201 196 C-201 197.32 -201 198.64 -201 200 C-201.99 200 -202.98 200 -204 200 C-204.33 201.98 -204.66 203.96 -205 206 C-205.99 206 -206.98 206 -208 206 C-208 207.32 -208 208.64 -208 210 C-208.99 210 -209.98 210 -211 210 C-211 212.31 -211 214.62 -211 217 C-211.99 217 -212.98 217 -214 217 C-214 220.3 -214 223.6 -214 227 C-214.99 227 -215.98 227 -217 227 C-217.80409335 245.40845013 -218.15838409 263.58931052 -217 282 C-216.01 282 -215.02 282 -214 282 C-214 286.29 -214 290.58 -214 295 C-213.34 295.33 -212.68 295.66 -212 296 C-211.375 299.0625 -211.375 299.0625 -211 302 C-210.01 302 -209.02 302 -208 302 C-208 304.31 -208 306.62 -208 309 C-207.01 309 -206.02 309 -205 309 C-205 311.31 -205 313.62 -205 316 C-203.68 316 -202.36 316 -201 316 C-201 316.99 -201 317.98 -201 319 C-200.01 319 -199.02 319 -198 319 C-198 320.32 -198 321.64 -198 323 C-197.01 323 -196.02 323 -195 323 C-195 323.99 -195 324.98 -195 326 C-194.01 326 -193.02 326 -192 326 C-192 326.99 -192 327.98 -192 329 C-191.01 329.33 -190.02 329.66 -189 330 C-188.67 330.99 -188.34 331.98 -188 333 C-186.02 333 -184.04 333 -182 333 C-182 333.99 -182 334.98 -182 336 C-179.03 336.33 -176.06 336.66 -173 337 C-172.505 338.485 -172.505 338.485 -172 340 C-160.12 340 -148.24 340 -136 340 C-136 338.68 -136 337.36 -136 336 C-133.03 336 -130.06 336 -127 336 C-127 335.01 -127 334.02 -127 333 C-124.69 333 -122.38 333 -120 333 C-120 331.68 -120 330.36 -120 329 C-118.02 329 -116.04 329 -114 329 C-114 328.01 -114 327.02 -114 326 C-112.68 325.67 -111.36 325.34 -110 325 C-110 324.34 -110 323.68 -110 323 C-109.01 323 -108.02 323 -107 323 C-107 321.68 -107 320.36 -107 319 C-106.01 319 -105.02 319 -104 319 C-103.87625 318.030625 -103.7525 317.06125 -103.625 316.0625 C-103.41875 315.051875 -103.2125 314.04125 -103 313 C-102.34 312.67 -101.68 312.34 -101 312 C-101 311.01 -101 310.02 -101 309 C-100.01 309 -99.02 309 -98 309 C-98 308.01 -98 307.02 -98 306 C-96.68 306 -95.36 306 -94 306 C-94 303.69 -94 301.38 -94 299 C-93.01 299 -92.02 299 -91 299 C-91 297.68 -91 296.36 -91 295 C-90.01 295 -89.02 295 -88 295 C-88 293.02 -88 291.04 -88 289 C-87.01 288.67 -86.02 288.34 -85 288 C-85 287.01 -85 286.02 -85 285 C-83.68 285 -82.36 285 -81 285 C-81 284.01 -81 283.02 -81 282 C-80.01 282 -79.02 282 -78 282 C-78 280.68 -78 279.36 -78 278 C-76.02 278 -74.04 278 -72 278 C-72 277.01 -72 276.02 -72 275 C-65.4 275 -58.8 275 -52 275 C-52 275.99 -52 276.98 -52 278 C-51.01 278 -50.02 278 -49 278 C-49 288.23 -49 298.46 -49 309 C-49.99 309 -50.98 309 -52 309 C-52 309.99 -52 310.98 -52 312 C-52.99 312 -53.98 312 -55 312 C-55.33 312.99 -55.66 313.98 -56 315 C-56.99 315.33 -57.98 315.66 -59 316 C-59 316.99 -59 317.98 -59 319 C-59.99 319 -60.98 319 -62 319 C-62.33 319.99 -62.66 320.98 -63 322 C-63.66 322.33 -64.32 322.66 -65 323 C-65 323.99 -65 324.98 -65 326 C-67.31 326 -69.62 326 -72 326 C-72 326.99 -72 327.98 -72 329 C-72.99 329 -73.98 329 -75 329 C-75 330.32 -75 331.64 -75 333 C-76.98 333 -78.96 333 -81 333 C-81 333.99 -81 334.98 -81 336 C-83.31 336 -85.62 336 -88 336 C-88 337.32 -88 338.64 -88 340 C-89.98 340 -91.96 340 -94 340 C-94 340.99 -94 341.98 -94 343 C-96.31 343 -98.62 343 -101 343 C-101 343.99 -101 344.98 -101 346 C-102.98 346 -104.96 346 -107 346 C-107 347.32 -107 348.64 -107 350 C-109.31 350 -111.62 350 -114 350 C-114 350.99 -114 351.98 -114 353 C-115.98 353 -117.96 353 -120 353 C-120.33 353.99 -120.66 354.98 -121 356 C-122.98 356.33 -124.96 356.66 -127 357 C-127 357.99 -127 358.98 -127 360 C-128.98 360 -130.96 360 -133 360 C-133 360.99 -133 361.98 -133 363 C-133.99 363.33 -134.98 363.66 -136 364 C-136.33 364.66 -136.66 365.32 -137 366 C-140.0625 366.625 -140.0625 366.625 -143 367 C-143 367.99 -143 368.98 -143 370 C-144.98 370 -146.96 370 -149 370 C-149.33 370.99 -149.66 371.98 -150 373 C-150.99 373.33 -151.98 373.66 -153 374 C-153 376.31 -153 378.62 -153 381 C-153.99 381 -154.98 381 -156 381 C-156 417.96 -156 454.92 -156 493 C-64.92 493 26.16 493 120 493 C120 486.4 120 479.8 120 473 C120.99 473 121.98 473 123 473 C123 469.37 123 465.74 123 462 C122.01 462 121.02 462 120 462 C120 447.48 120 432.96 120 418 C119.01 417.67 118.02 417.34 117 417 C116.67 415.02 116.34 413.04 116 411 C115.01 411 114.02 411 113 411 C113 410.01 113 409.02 113 408 C112.01 408 111.02 408 110 408 C110 406.68 110 405.36 110 404 C109.030625 403.87625 108.06125 403.7525 107.0625 403.625 C105.5465625 403.315625 105.5465625 403.315625 104 403 C103.67 402.34 103.34 401.68 103 401 C102.01 401 101.02 401 100 401 C100 400.01 100 399.02 100 398 C98.35 397.67 96.7 397.34 95 397 C94.67 396.01 94.34 395.02 94 394 C92.68 394 91.36 394 90 394 C90 393.01 90 392.02 90 391 C88.02 391 86.04 391 84 391 C84 389.68 84 388.36 84 387 C83.030625 386.87625 82.06125 386.7525 81.0625 386.625 C79.5465625 386.315625 79.5465625 386.315625 78 386 C77.67 385.34 77.34 384.68 77 384 C75.02 384 73.04 384 71 384 C71 383.01 71 382.02 71 381 C69.35 380.67 67.7 380.34 66 380 C65.67 379.01 65.34 378.02 65 377 C62.69 377 60.38 377 58 377 C58 376.01 58 375.02 58 374 C56.02 374 54.04 374 52 374 C52 372.68 52 371.36 52 370 C49.69 370 47.38 370 45 370 C45 369.01 45 368.02 45 367 C43.02 367 41.04 367 39 367 C39 365.68 39 364.36 39 363 C37.68 363 36.36 363 35 363 C35 362.01 35 361.02 35 360 C34.01 360 33.02 360 32 360 C32 359.01 32 358.02 32 357 C30.35 356.67 28.7 356.34 27 356 C26.67 354.02 26.34 352.04 26 350 C24.68 350 23.36 350 22 350 C22 348.68 22 347.36 22 346 C21.01 346 20.02 346 19 346 C19 345.01 19 344.02 19 343 C18.01 343 17.02 343 16 343 C16 340.69 16 338.38 16 336 C15.01 336 14.02 336 13 336 C13 333.69 13 331.38 13 329 C12.01 328.67 11.02 328.34 10 328 C10 321.07 10 314.14 10 307 C10.99 306.67 11.98 306.34 13 306 C13 304.68 13 303.36 13 302 C13.99 302 14.98 302 16 302 C16 301.01 16 300.02 16 299 C21.28 299 26.56 299 32 299 C32 299.99 32 300.98 32 302 C33.98 302 35.96 302 38 302 C38.33 303.32 38.66 304.64 39 306 C39.99 306 40.98 306 42 306 C42 306.99 42 307.98 42 309 C42.99 309 43.98 309 45 309 C45 309.99 45 310.98 45 312 C45.66 312.33 46.32 312.66 47 313 C47.33 313.99 47.66 314.98 48 316 C48.99 316 49.98 316 51 316 C51 318.31 51 320.62 51 323 C52.32 323 53.64 323 55 323 C55 323.99 55 324.98 55 326 C55.99 326 56.98 326 58 326 C58 328.31 58 330.62 58 333 C58.99 333 59.98 333 61 333 C61 333.99 61 334.98 61 336 C61.99 336 62.98 336 64 336 C64 337.32 64 338.64 64 340 C65.32 340 66.64 340 68 340 C68 340.99 68 341.98 68 343 C68.99 343 69.98 343 71 343 C71 343.99 71 344.98 71 346 C71.66 346.33 72.32 346.66 73 347 C73.33 347.99 73.66 348.98 74 350 C74.99 350 75.98 350 77 350 C77 350.99 77 351.98 77 353 C78.98 353.33 80.96 353.66 83 354 C83.33 354.99 83.66 355.98 84 357 C84.99 357 85.98 357 87 357 C87 357.99 87 358.98 87 360 C88.98 360.33 90.96 360.66 93 361 C93.33 361.99 93.66 362.98 94 364 C94.99 364 95.98 364 97 364 C97 364.99 97 365.98 97 367 C98.98 367 100.96 367 103 367 C103 367.99 103 368.98 103 370 C103.99 370.33 104.98 370.66 106 371 C106.33 371.99 106.66 372.98 107 374 C108.98 374 110.96 374 113 374 C113 374.99 113 375.98 113 377 C114.98 377 116.96 377 119 377 C119.33 378.32 119.66 379.64 120 381 C121.98 381 123.96 381 126 381 C126 381.99 126 382.98 126 384 C127.98 384 129.96 384 132 384 C132 384.99 132 385.98 132 387 C135.3 387.33 138.6 387.66 142 388 C142 388.99 142 389.98 142 391 C145.3 391 148.6 391 152 391 C152 391.99 152 392.98 152 394 C154.97 394.33 157.94 394.66 161 395 C161.33 395.99 161.66 396.98 162 398 C169.26 398 176.52 398 184 398 C184 398.99 184 399.98 184 401 C185.32 401 186.64 401 188 401 C188 400.01 188 399.02 188 398 C193.28 398 198.56 398 204 398 C204 396.68 204 395.36 204 394 C205.98 394 207.96 394 210 394 C210 393.01 210 392.02 210 391 C212.31 391 214.62 391 217 391 C217 389.68 217 388.36 217 387 C217.99 387 218.98 387 220 387 C220 386.01 220 385.02 220 384 C220.99 384 221.98 384 223 384 C223 383.01 223 382.02 223 381 C224.32 381 225.64 381 227 381 C227 379.68 227 378.36 227 377 C227.99 377 228.98 377 230 377 C230 376.01 230 375.02 230 374 C230.99 374 231.98 374 233 374 C233 371.69 233 369.38 233 367 C233.99 367 234.98 367 236 367 C236 366.01 236 365.02 236 364 C236.99 364 237.98 364 239 364 C239.33 360.37 239.66 356.74 240 353 C240.99 353 241.98 353 243 353 C243 343.1 243 333.2 243 323 C242.01 322.67 241.02 322.34 240 322 C239.67 318.7 239.34 315.4 239 312 C238.01 312 237.02 312 236 312 C236 309.69 236 307.38 236 305 C235.01 305 234.02 305 233 305 C233 303.02 233 301.04 233 299 C232.01 299 231.02 299 230 299 C230 297.68 230 296.36 230 295 C229.01 295 228.02 295 227 295 C227 294.01 227 293.02 227 292 C226.01 291.67 225.02 291.34 224 291 C223.67 290.01 223.34 289.02 223 288 C222.01 288 221.02 288 220 288 C220 287.01 220 286.02 220 285 C219.01 285 218.02 285 217 285 C217 284.01 217 283.02 217 282 C216.01 282 215.02 282 214 282 C214 280.68 214 279.36 214 278 C211.69 278 209.38 278 207 278 C207 277.01 207 276.02 207 275 C205.02 275 203.04 275 201 275 C201 273.68 201 272.36 201 271 C197.7 271 194.4 271 191 271 C191 270.01 191 269.02 191 268 C187.7 268 184.4 268 181 268 C181 267.01 181 266.02 181 265 C177.7 264.67 174.4 264.34 171 264 C171 263.01 171 262.02 171 261 C165.72 261 160.44 261 155 261 C155 260.01 155 259.02 155 258 C143.45 258 131.9 258 120 258 C120 256.68 120 255.36 120 254 C108.12 254 96.24 254 84 254 C84 253.01 84 252.02 84 251 C82.02 251 80.04 251 78 251 C77.67 249.68 77.34 248.36 77 247 C76.01 247 75.02 247 74 247 C74 245.02 74 243.04 74 241 C73.01 241 72.02 241 71 241 C71 233.08 71 225.16 71 217 C71.99 217 72.98 217 74 217 C74 214.69 74 212.38 74 210 C74.99 210 75.98 210 77 210 C77.33 207.69 77.66 205.38 78 203 C78.99 203 79.98 203 81 203 C81 202.01 81 201.02 81 200 C81.99 200 82.98 200 84 200 C84 198.68 84 197.36 84 196 C84.99 196 85.98 196 87 196 C87 194.02 87 192.04 87 190 C87.99 190 88.98 190 90 190 C90.33 188.68 90.66 187.36 91 186 C91.99 186 92.98 186 94 186 C94 185.01 94 184.02 94 183 C94.99 183 95.98 183 97 183 C97 181.68 97 180.36 97 179 C97.99 179 98.98 179 100 179 C100 178.01 100 177.02 100 176 C100.99 176 101.98 176 103 176 C103.33 175.01 103.66 174.02 104 173 C104.99 172.67 105.98 172.34 107 172 C107 170.02 107 168.04 107 166 C107.99 166 108.98 166 110 166 C110 164.68 110 163.36 110 162 C110.99 162 111.98 162 113 162 C113 161.01 113 160.02 113 159 C113.99 159 114.98 159 116 159 C116 156.69 116 154.38 116 152 C117.32 152 118.64 152 120 152 C120 149.69 120 147.38 120 145 C120.99 145 121.98 145 123 145 C123 142.69 123 140.38 123 138 C123.99 138 124.98 138 126 138 C126 133.71 126 129.42 126 125 C126.99 125 127.98 125 129 125 C129 122.69 129 120.38 129 118 C128.34 117.67 127.68 117.34 127 117 C126.5859375 114.05859375 126.5859375 114.05859375 126.375 110.4375 C126.26285156 108.64119141 126.26285156 108.64119141 126.1484375 106.80859375 C126.09945313 105.88175781 126.05046875 104.95492187 126 104 C125.01 104 124.02 104 123 104 C123 101.69 123 99.38 123 97 C122.01 97 121.02 97 120 97 C120 94.69 120 92.38 120 90 C118.68 90 117.36 90 116 90 C116 89.01 116 88.02 116 87 C115.01 87 114.02 87 113 87 C113 84.69 113 82.38 113 80 C112.01 80 111.02 80 110 80 C110 79.01 110 78.02 110 77 C109.01 77 108.02 77 107 77 C107 75.68 107 74.36 107 73 C106.01 72.67 105.02 72.34 104 72 C103.67 71.34 103.34 70.68 103 70 C102.01 70 101.02 70 100 70 C100 67.69 100 65.38 100 63 C98.02 63 96.04 63 94 63 C94 62.01 94 61.02 94 60 C93.01 60 92.02 60 91 60 C90.67 58.68 90.34 57.36 90 56 C89.01 56 88.02 56 87 56 C87 55.01 87 54.02 87 53 C86.01 53 85.02 53 84 53 C84 51.68 84 50.36 84 49 C83.01 49 82.02 49 81 49 C81 48.01 81 47.02 81 46 C78.69 46 76.38 46 74 46 C74 45.01 74 44.02 74 43 C73.01 43 72.02 43 71 43 C71 41.68 71 40.36 71 39 C70.030625 38.87625 69.06125 38.7525 68.0625 38.625 C66.5465625 38.315625 66.5465625 38.315625 65 38 C64.67 37.34 64.34 36.68 64 36 C62.02 36 60.04 36 58 36 C58 34.68 58 33.36 58 32 C54.7 32 51.4 32 48 32 C48 31.01 48 30.02 48 29 C42.72 29 37.44 29 32 29 C32 28.01 32 27.02 32 26 C24.41 26 16.82 26 9 26 Z " fill="#353535" transform="translate(245,0)"/>
<path d="M0 0 C4.29 0 8.58 0 13 0 C13 0.99 13 1.98 13 3 C13.99 3 14.98 3 16 3 C16 5.31 16 7.62 16 10 C16.99 10 17.98 10 19 10 C19 16.6 19 23.2 19 30 C19.99 30 20.98 30 22 30 C22 41.55 22 53.1 22 65 C22.99 65 23.98 65 25 65 C26.25513654 68.86761538 26.14416307 72.7385232 26.1328125 76.7578125 C26.13376923 77.50207489 26.13472595 78.24633728 26.13571167 79.01315308 C26.13639052 80.58152349 26.13455683 82.14989675 26.13037109 83.71826172 C26.12500349 86.1234361 26.13033378 88.52842504 26.13671875 90.93359375 C26.13605821 92.45833375 26.13477756 93.98307363 26.1328125 95.5078125 C26.13483673 96.22865021 26.13686096 96.94948792 26.13894653 97.69216919 C26.1149722 102.7700556 26.1149722 102.7700556 25 105 C24.01 105 23.02 105 22 105 C22.01160156 105.92683594 22.02320313 106.85367188 22.03515625 107.80859375 C22.04417969 109.00613281 22.05320313 110.20367187 22.0625 111.4375 C22.07410156 112.63246094 22.08570313 113.82742188 22.09765625 115.05859375 C22 118 22 118 21 119 C19.65732587 119.08631874 18.31025678 119.10706473 16.96484375 119.09765625 C16.15595703 119.09443359 15.34707031 119.09121094 14.51367188 119.08789062 C13.66353516 119.07951172 12.81339844 119.07113281 11.9375 119.0625 C11.08349609 119.05798828 10.22949219 119.05347656 9.34960938 119.04882812 C7.23304337 119.03700373 5.11651315 119.01906769 3 119 C3 118.01 3 117.02 3 116 C2.01 116 1.02 116 0 116 C0 113.69 0 111.38 0 109 C-0.99 109 -1.98 109 -3 109 C-3.0501123 107.86981445 -3.10022461 106.73962891 -3.15185547 105.57519531 C-3.34035437 101.37780245 -3.54070837 97.18104457 -3.74462891 92.984375 C-3.83119431 91.16877101 -3.91455404 89.3530112 -3.99462891 87.53710938 C-4.1103599 84.92530382 -4.23764997 82.31427772 -4.3671875 79.703125 C-4.40061249 78.89256653 -4.43403748 78.08200806 -4.46847534 77.24688721 C-4.63094314 72.99821148 -4.63094314 72.99821148 -6.01048279 69.03817749 C-7.16329179 66.66365653 -7.2476945 65.07529449 -7.24291992 62.44677734 C-7.24599655 61.55260101 -7.24907318 60.65842468 -7.25224304 59.7371521 C-7.24505753 58.77975128 -7.23787201 57.82235046 -7.23046875 56.8359375 C-7.23001053 55.84751862 -7.22955231 54.85909973 -7.2290802 53.84072876 C-7.22606239 51.75448402 -7.21819019 49.66824144 -7.20581055 47.58203125 C-7.18752928 44.38012765 -7.1853011 41.1785129 -7.18554688 37.9765625 C-7.18063245 35.95051832 -7.17480446 33.92447611 -7.16796875 31.8984375 C-7.16685593 30.93698822 -7.1657431 29.97553894 -7.16459656 28.98495483 C-7.15821671 28.09708282 -7.15183685 27.20921082 -7.14526367 26.29443359 C-7.14145187 25.51151947 -7.13764008 24.72860535 -7.13371277 23.92196655 C-7 22 -7 22 -6 20 C-5.34 20 -4.68 20 -4 20 C-4.01160156 19.10796875 -4.02320313 18.2159375 -4.03515625 17.296875 C-4.04869141 15.54117187 -4.04869141 15.54117187 -4.0625 13.75 C-4.07410156 12.58984375 -4.08570313 11.4296875 -4.09765625 10.234375 C-4.01782092 7.59022872 -3.78643778 5.50173909 -3 3 C-2.01 3 -1.02 3 0 3 C0 2.01 0 1.02 0 0 Z " fill="#343434" transform="translate(138,364)"/>
<path d="M0 0 C3.96 0 7.92 0 12 0 C12 0.99 12 1.98 12 3 C12.969375 2.979375 13.93875 2.95875 14.9375 2.9375 C18 3 18 3 19 4 C19.07205511 5.68608966 19.08386068 7.37500659 19.0625 9.0625 C19.05347656 9.98160156 19.04445312 10.90070313 19.03515625 11.84765625 C19.02355469 12.55792969 19.01195312 13.26820313 19 14 C19.99 14.33 20.98 14.66 22 15 C22 21.27 22 27.54 22 34 C23.485 34.495 23.485 34.495 25 35 C25 57.11 25 79.22 25 102 C24.01 102 23.02 102 22 102 C22 103.32 22 104.64 22 106 C21.01 106 20.02 106 19 106 C19 106.99 19 107.98 19 109 C17.68 109 16.36 109 15 109 C15 109.99 15 110.98 15 112 C12.03 112 9.06 112 6 112 C6 111.01 6 110.02 6 109 C5.01 109 4.02 109 3 109 C3 108.01 3 107.02 3 106 C2.01 106 1.02 106 0 106 C0 101.38 0 96.76 0 92 C-0.99 92 -1.98 92 -3 92 C-4.19618381 89.60763239 -4.1497142 88.07001797 -4.18945312 85.3984375 C-4.20617065 84.44404785 -4.22288818 83.4896582 -4.2401123 82.50634766 C-4.26047546 80.95633057 -4.26047546 80.95633057 -4.28125 79.375 C-4.30886414 77.78824463 -4.30886414 77.78824463 -4.33703613 76.16943359 C-4.41589679 71.62933697 -4.48351268 67.08908752 -4.55224609 62.54882812 C-4.60390427 59.24080919 -4.66118261 55.9329205 -4.71875 52.625 C-4.73232544 51.59165527 -4.74590088 50.55831055 -4.7598877 49.49365234 C-4.77660522 48.5392627 -4.79332275 47.58487305 -4.81054688 46.6015625 C-4.82307495 45.75932129 -4.83560303 44.91708008 -4.84851074 44.04931641 C-4.87431029 41.93466368 -4.87431029 41.93466368 -6 40 C-6.13415472 37.3276379 -6.04318541 34.67749512 -6 32 C-5.34 32 -4.68 32 -4 32 C-4 22.76 -4 13.52 -4 4 C-2.68 3.67 -1.36 3.34 0 3 C0 2.01 0 1.02 0 0 Z " fill="#353535" transform="translate(216,374)"/>
<path d="M0 0 C5.28 0 10.56 0 16 0 C16 0.99 16 1.98 16 3 C16.99 3 17.98 3 19 3 C19 4.32 19 5.64 19 7 C19.99 7 20.98 7 22 7 C22 10.3 22 13.6 22 17 C23.32 17.33 24.64 17.66 26 18 C26 24.27 26 30.54 26 37 C27.485 37.495 27.485 37.495 29 38 C29 47.9 29 57.8 29 68 C29.99 68 30.98 68 32 68 C32 70.31 32 72.62 32 75 C31.01 75 30.02 75 29 75 C29 79.62 29 84.24 29 89 C28.01 89 27.02 89 26 89 C26 89.99 26 90.98 26 92 C23.69 92 21.38 92 19 92 C19 92.99 19 93.98 19 95 C16.03 95 13.06 95 10 95 C10 94.01 10 93.02 10 92 C7.69 92 5.38 92 3 92 C3 88.7 3 85.4 3 82 C2.01 82 1.02 82 0 82 C0 74.08 0 66.16 0 58 C-0.99 58 -1.98 58 -3 58 C-3 39.85 -3 21.7 -3 3 C-2.01 3 -1.02 3 0 3 C0 2.01 0 1.02 0 0 Z " fill="#353535" transform="translate(287,391)"/>
</svg>
