<?xml version="1.0" encoding="UTF-8"?>
<svg version="1.1" xmlns="http://www.w3.org/2000/svg" width="180" height="180">
<path d="M0 0 C8.23325233 2.02649006 16.50573722 7.53315033 22 14 C22 14.66 22 15.32 22 16 C23.32 16.33 24.64 16.66 26 17 C26.33 18.32 26.66 19.64 27 21 C27.66 21 28.32 21 29 21 C31 24 31 24 31 27 C31.66 27 32.32 27 33 27 C37.17730765 35.52866979 37.56708684 45.75715827 34.875 54.875 C33.26999268 58.92573276 30.93065027 62.43465024 28.421875 65.98046875 C26.86580057 68.12327795 26.86580057 68.12327795 25.25 71.0625 C24.8375 71.701875 24.425 72.34125 24 73 C23.34 73 22.68 73 22 73 C21.690625 73.61875 21.38125 74.2375 21.0625 74.875 C20.375 76.25 19.6875 77.625 19 79 C20.12535156 79.10957031 21.25070313 79.21914062 22.41015625 79.33203125 C53.02709817 82.43163181 53.02709817 82.43163181 63 90 C63.33 90.99 63.66 91.98 64 93 C64.93779297 93.45246094 64.93779297 93.45246094 65.89453125 93.9140625 C68.58583509 95.30215613 69.28892873 96.71903816 70.6875 99.375 C71.10386719 100.14585938 71.52023438 100.91671875 71.94921875 101.7109375 C74.42041455 107.09428598 74.2520459 112.42222469 74.3125 118.25 C74.34150391 119.16652344 74.37050781 120.08304687 74.40039062 121.02734375 C74.45894022 127.34169247 73.39293848 131.66903544 70 137 C69.55398437 137.70511719 69.10796875 138.41023437 68.6484375 139.13671875 C63.66969238 145.19979179 56.7890364 148.93377744 49 150 C46.21705537 150.06814262 43.4680761 150.09455193 40.6875 150.0625 C38.150625 150.041875 35.61375 150.02125 33 150 C33 159.9 33 169.8 33 180 C-5.94 180 -44.88 180 -85 180 C-85.33 163.5 -85.66 147 -86 130 C-86.33 129.01 -86.66 128.02 -87 127 C-87.66 127 -88.32 127 -89 127 C-89 126.34 -89 125.68 -89 125 C-89.66 125 -90.32 125 -91 125 C-91 124.34 -91 123.68 -91 123 C-91.9590625 122.5978125 -91.9590625 122.5978125 -92.9375 122.1875 C-95 121 -95 121 -96 118 C-96.66 118 -97.32 118 -98 118 C-99.69140625 115.6640625 -99.69140625 115.6640625 -101.5625 112.625 C-102.18253906 111.62726563 -102.80257812 110.62953125 -103.44140625 109.6015625 C-106.88667675 103.85081023 -106.22238948 98.48771959 -106.25 91.875 C-106.270625 90.66328125 -106.29125 89.4515625 -106.3125 88.203125 C-106.35099206 79.36919769 -105.22220949 73.05954102 -100.4375 65.5 C-100.02371094 64.8296875 -99.60992187 64.159375 -99.18359375 63.46875 C-98.79300781 62.9840625 -98.40242188 62.499375 -98 62 C-97.34 62 -96.68 62 -96 62 C-96 61.34 -96 60.68 -96 60 C-91.61538462 57 -91.61538462 57 -89 57 C-89 56.34 -89 55.68 -89 55 C-83.40108194 53.41468837 -78.43283593 52.67553204 -72.625 52.75 C-71.52007202 52.75580078 -71.52007202 52.75580078 -70.39282227 52.76171875 C-64.76968463 52.85057333 -59.43679511 53.50387948 -54 55 C-54 55.66 -54 56.32 -54 57 C-52.72125 57.144375 -51.4425 57.28875 -50.125 57.4375 C-47.74307106 57.70642746 -46.15547309 57.92226346 -44 59 C-44 58.34 -44 57.68 -44 57 C-44.66 57 -45.32 57 -46 57 C-49.20481442 49.89367238 -50.19864837 43.96085345 -50.25 36.1875 C-50.270625 35.41857422 -50.29125 34.64964844 -50.3125 33.85742188 C-50.3619487 26.53283287 -48.52572343 20.4463781 -44.0625 14.5625 C-43.57910156 13.90378906 -43.09570312 13.24507812 -42.59765625 12.56640625 C-41 11 -41 11 -38.93359375 10.52734375 C-38.29550781 10.35332031 -37.65742187 10.17929688 -37 10 C-36.31200309 8.6775468 -35.64631309 7.34331739 -35 6 C-33.16015625 4.8046875 -33.16015625 4.8046875 -31.0625 3.875 C-20.66651095 -0.82748477 -11.63245846 -1.31980314 0 0 Z M-22 11 C-22.67546875 11.24105469 -23.3509375 11.48210938 -24.046875 11.73046875 C-27.37681604 12.92754609 -30.02546116 14.01697411 -33 16 C-33 16.66 -33 17.32 -33 18 C-33.66 18 -34.32 18 -35 18 C-35 18.66 -35 19.32 -35 20 C-35.66 20 -36.32 20 -37 20 C-37.474375 21.051875 -37.94875 22.10375 -38.4375 23.1875 C-38.70433594 23.77917969 -38.97117188 24.37085938 -39.24609375 24.98046875 C-42.588766 33.93467369 -41.77818457 43.49203858 -38.2890625 52.21484375 C-36.89159705 55.23421608 -35.32830627 58.13403125 -33.75 61.0625 C-30.95905345 66.44755051 -30.00296984 70.97995714 -31 77 C-32 78 -32 78 -35.25 78.375 C-40.02557231 77.89744277 -40.89948177 76.56559596 -44 73 C-49.35399429 67.33439758 -54.49442889 65.67654029 -62 64 C-63.85625 63.4121875 -63.85625 63.4121875 -65.75 62.8125 C-74.11030935 60.72242266 -79.61963997 63.12178533 -87 67 C-87.99 67.66 -88.98 68.32 -90 69 C-90 69.66 -90 70.32 -90 71 C-90.66 71 -91.32 71 -92 71 C-92 71.99 -92 72.98 -92 74 C-92.66 74 -93.32 74 -94 74 C-98.11111372 84.22845092 -97.44150405 98.36607955 -93.4765625 108.53515625 C-90.38296493 113.69933632 -85.66261885 117.11246038 -80 119 C-73.08034109 119.72729148 -67.08094032 119.61399396 -61.09765625 115.82421875 C-57.72606104 112.89212385 -55.3010148 109.41577052 -52.82421875 105.71875 C-47.97081081 98.48540541 -47.97081081 98.48540541 -45 97 C-42.6670134 96.95977609 -40.33293334 96.95679753 -38 97 C-37.94576362 98.91635217 -37.90710037 100.83314925 -37.875 102.75 C-37.85179687 103.81734375 -37.82859375 104.8846875 -37.8046875 105.984375 C-37.99512313 108.92470106 -38.47329896 110.52361878 -40 113 C-40.66 113 -41.32 113 -42 113 C-42 113.66 -42 114.32 -42 115 C-42.5775 115.12375 -43.155 115.2475 -43.75 115.375 C-46.02335767 116.00648824 -47.9253529 116.88858191 -50 118 C-50 118.66 -50 119.32 -50 120 C-50.68449219 120.09152344 -51.36898437 120.18304688 -52.07421875 120.27734375 C-55.70056363 121.17303641 -58.55047308 122.75026282 -61.8125 124.5625 C-62.40998047 124.89185547 -63.00746094 125.22121094 -63.62304688 125.56054688 C-65.08533998 126.36773267 -66.5431399 127.18304917 -68 128 C-68 128.66 -68 129.32 -68 130 C-69.32 130 -70.64 130 -72 130 C-78.41699133 142.83398267 -74 158.65117117 -74 173 C-42.32 173 -10.64 173 22 173 C22.64436618 166.55633819 23.13542772 160.90098406 22.6875 154.5625 C22.65205078 153.86962891 22.61660156 153.17675781 22.58007812 152.46289062 C22.34620428 148.85006337 22.05212503 147.07818755 20 144 C19.34 144 18.68 144 18 144 C18 143.34 18 142.68 18 142 C15.63204291 140.37668351 13.28147505 138.89132438 10.8125 137.4375 C10.13896484 137.02564453 9.46542969 136.61378906 8.77148438 136.18945312 C5.20799724 134.06526714 2.20164126 132.46503602 -2 132 C-2 131.34 -2 130.68 -2 130 C-3.32 130 -4.64 130 -6 130 C-6 129.34 -6 128.68 -6 128 C-7.24853289 126.84728475 -8.54968938 125.75104998 -9.875 124.6875 C-13.86570882 121.25379824 -15.71221378 119.11134918 -16.20703125 113.76171875 C-16.40318199 109.20666271 -16.40318199 109.20666271 -16 107 C-13 105 -13 105 -10.625 105.125 C-7.40836008 106.19721331 -5.45687342 107.67961954 -3 110 C-2.67 110.99 -2.34 111.98 -2 113 C-1.34 113 -0.68 113 0 113 C0.2371875 113.73605469 0.474375 114.47210938 0.71875 115.23046875 C2.1976127 118.42715672 3.84375237 120.02278004 6.5 122.3125 C7.2940625 123.00988281 8.088125 123.70726563 8.90625 124.42578125 C10.82983903 126.20031798 10.82983903 126.20031798 13 126 C13 126.66 13 127.32 13 128 C24.35928137 135.06584426 24.35928137 135.06584426 37 138 C37 138.66 37 139.32 37 140 C46.89357562 140.97651117 46.89357562 140.97651117 55.6875 137.1875 C56.82761588 136.16367088 57.93540026 135.10214231 59 134 C59.84498047 133.25169922 59.84498047 133.25169922 60.70703125 132.48828125 C62.32791763 130.95112865 62.32791763 130.95112865 62 128 C62.66 128 63.32 128 64 128 C66.05693071 120.75016227 65.90927872 114.08290379 62.5 107.3125 C61.68828335 105.86268388 60.86256525 104.42015207 60 103 C59.34 103 58.68 103 58 103 C58 102.34 58 101.68 58 101 C57.34 101 56.68 101 56 101 C55.67 100.01 55.34 99.02 55 98 C43.47423477 91.55672015 31.25671154 90.48304459 18.33203125 89.80859375 C17.27371094 89.74800781 16.21539062 89.68742187 15.125 89.625 C14.22007813 89.59664063 13.31515625 89.56828125 12.3828125 89.5390625 C9.17928923 88.81433101 7.97552392 87.59063023 6 85 C4.85174291 80.68285161 5.24078506 76.57644298 7.17578125 72.55859375 C8.67852388 70.26370772 10.27092499 68.12871971 12 66 C12.69609375 65.11441406 12.69609375 65.11441406 13.40625 64.2109375 C15.00810697 62.22815112 16.63905908 60.33389366 18.51171875 58.6015625 C22.64539008 54.15325477 25.09893757 46.93625437 25 41 C23.02119879 33.97394812 20.86144047 27.63462735 15 23 C13.60334561 21.73006907 12.20756597 20.45917566 10.8125 19.1875 C8.2812461 16.65386981 8.2812461 16.65386981 5 16 C5 15.34 5 14.68 5 14 C4.07316406 13.72285156 3.14632812 13.44570312 2.19140625 13.16015625 C0.99386719 12.79792969 -0.20367187 12.43570312 -1.4375 12.0625 C-2.63246094 11.70285156 -3.82742187 11.34320313 -5.05859375 10.97265625 C-8 10 -8 10 -9 9 C-13.86656096 8.71373171 -17.47435474 9.24515796 -22 11 Z " fill="#343434" transform="translate(106,0)"/>
<path d="M0 0 C1.98 0 3.96 0 6 0 C7.5012129 2.72996367 8.30212566 4.96076688 8.6328125 8.0546875 C8.71692383 8.82796387 8.80103516 9.60124023 8.88769531 10.39794922 C8.96600586 11.21537598 9.04431641 12.03280273 9.125 12.875 C9.2084668 13.71691895 9.29193359 14.55883789 9.37792969 15.42626953 C11.20704374 35.10231069 11.20704374 35.10231069 8 42 C5.69 42 3.38 42 1 42 C-3.42252185 34.57519706 -2.09621769 23.54523444 -2.1875 15.0625 C-2.20055176 14.36552002 -2.21360352 13.66854004 -2.22705078 12.95043945 C-2.23496526 8.22605891 -1.46322266 4.43593589 0 0 Z " fill="#343434" transform="translate(48,128)"/>
<path d="M0 0 C3 0.0625 3 0.0625 6 1 C10.17129992 7.7535332 9.21331038 17.61855825 9.25 25.25 C9.270625 26.33796875 9.29125 27.4259375 9.3125 28.546875 C9.31765625 29.5884375 9.3228125 30.63 9.328125 31.703125 C9.34214355 33.12093262 9.34214355 33.12093262 9.35644531 34.56738281 C9 37 9 37 7.67871094 38.85058594 C6 40 6 40 2.8125 39.6875 C1.884375 39.460625 0.95625 39.23375 0 39 C-1.57364879 34.11692248 -2.25594726 30.00423089 -2.265625 24.82421875 C-2.26753845 24.17298538 -2.2694519 23.52175201 -2.27142334 22.8507843 C-2.27277323 21.48865365 -2.26916124 20.1265096 -2.26074219 18.7644043 C-2.24993705 16.67532929 -2.26072175 14.58709711 -2.2734375 12.49804688 C-2.27085938 11.18255859 -2.26828125 9.86707031 -2.265625 8.51171875 C-2.26336914 7.30990967 -2.26111328 6.10810059 -2.25878906 4.86987305 C-2 2 -2 2 0 0 Z " fill="#343434" transform="translate(76,131)"/>
<path d="M0 0 C2.31 0 4.62 0 7 0 C11.9526404 8.50011306 12 17.3852012 12 27 C11.36893571 29.01151741 10.70626239 31.01363702 10 33 C4.25 34.125 4.25 34.125 2 33 C-2.81870542 25.35593853 -2.32652332 10.20404751 -0.4921875 1.625 C-0.32976562 1.08875 -0.16734375 0.5525 0 0 Z " fill="#323232" transform="translate(100,137)"/>
</svg>
