<?xml version="1.0" encoding="UTF-8"?>
<svg version="1.1" xmlns="http://www.w3.org/2000/svg" width="16" height="16">
<path d="M0 0 C2.375 -0.125 2.375 -0.125 5 0 C7 2 7 2 7 6 C7.99 6.66 8.98 7.32 10 8 C10.1875 10.625 10.1875 10.625 10 13 C9.01 13.33 8.02 13.66 7 14 C7 14.66 7 15.32 7 16 C3.37 16 -0.26 16 -4 16 C-5.77997029 11.55007426 -6.21222719 9.56288469 -6 5 C-4.35 4.67 -2.7 4.34 -1 4 C-0.67 2.68 -0.34 1.36 0 0 Z M1 1 C-0.33333333 4 -0.33333333 4 1 7 C-0.65 6.67 -2.3 6.34 -4 6 C-4 7.32 -4 8.64 -4 10 C-2.35 9.34 -0.7 8.68 1 8 C0.67 8.99 0.34 9.98 0 11 C0.66 11 1.32 11 2 11 C2 10.34 2 9.68 2 9 C2.66 9 3.32 9 4 9 C4 9.66 4 10.32 4 11 C5.32 11.33 6.64 11.66 8 12 C8 11.01 8 10.02 8 9 C6.35 8.67 4.7 8.34 3 8 C3.66 6.35 4.32 4.7 5 3 C3.68 2.34 2.36 1.68 1 1 Z M-1 11 C0 13 0 13 0 13 Z M-3 12 C-2 15 -2 15 -2 15 Z M4 13 C5 15 5 15 5 15 Z " fill="#343434" transform="translate(6,0)"/>
<path d="M0 0 C1.4540625 0.0309375 1.4540625 0.0309375 2.9375 0.0625 C2.9375 1.0525 2.9375 2.0425 2.9375 3.0625 C1.2875 3.0625 -0.3625 3.0625 -2.0625 3.0625 C-2.0625 3.7225 -2.0625 4.3825 -2.0625 5.0625 C-0.4125 4.7325 1.2375 4.4025 2.9375 4.0625 C2.2775 5.7125 1.6175 7.3625 0.9375 9.0625 C2.2575 8.7325 3.5775 8.4025 4.9375 8.0625 C5.2675 9.0525 5.5975 10.0425 5.9375 11.0625 C4.9375 12.0625 4.9375 12.0625 1.375 12.125 C0.240625 12.104375 -0.89375 12.08375 -2.0625 12.0625 C-3.86010213 8.24259548 -4.34993526 5.27821713 -4.0625 1.0625 C-3.0625 0.0625 -3.0625 0.0625 0 0 Z M-1.0625 8.0625 C-0.0625 11.0625 -0.0625 11.0625 -0.0625 11.0625 Z " fill="#2D2D2D" transform="translate(4.0625,3.9375)"/>
</svg>
