<?xml version="1.0" encoding="UTF-8"?>
<svg version="1.1" xmlns="http://www.w3.org/2000/svg" width="32" height="32">
<path d="M0 0 C2.46856178 0.06306545 3.80402093 0.24016605 5.859375 1.6328125 C7.25 3.125 7.25 3.125 9.1875 6.5 C8.99142157 11.69607843 8.99142157 11.69607843 7.1875 13.5 C8.321875 13.974375 9.45625 14.44875 10.625 14.9375 C14.1875 16.5 14.1875 16.5 15.1875 17.5 C15.55836093 23.3410596 15.55836093 23.3410596 15.1875 25.5 C12.1875 27.5 12.1875 27.5 8.1875 27.5 C8.1875 29.15 8.1875 30.8 8.1875 32.5 C1.2575 32.5 -5.6725 32.5 -12.8125 32.5 C-13.1425 29.2 -13.4725 25.9 -13.8125 22.5 C-14.4725 22.5 -15.1325 22.5 -15.8125 22.5 C-17.40602059 19.31295882 -17.1954977 15.96825691 -16.8125 12.5 C-15.6875 10.5 -15.6875 10.5 -13.8125 9.5 C-10.625 9.3125 -10.625 9.3125 -7.8125 9.5 C-7.52375 8.38625 -7.235 7.2725 -6.9375 6.125 C-5.4417953 1.30550709 -5.04745684 0.66196155 0 0 Z M-4.8125 4.5 C-4.35427532 7.96941546 -3.92118317 11.17395049 -2.8125 14.5 C-3.328125 14.17 -3.84375 13.84 -4.375 13.5 C-7.59276512 12.17989123 -10.3695528 12.36757895 -13.8125 12.5 C-14.49743373 15.35778033 -14.49743373 15.35778033 -14.8125 18.5 C-14.1525 19.49 -13.4925 20.48 -12.8125 21.5 C-9.32710083 20.85455571 -6.78430943 19.39865603 -3.8125 17.5 C-4.8125 20.5 -4.8125 20.5 -6.8125 21.5 C-6.8125 24.47 -6.8125 27.44 -6.8125 30.5 C-5.8225 30.5 -4.8325 30.5 -3.8125 30.5 C-3.8125 28.19 -3.8125 25.88 -3.8125 23.5 C-3.1525 23.5 -2.4925 23.5 -1.8125 23.5 C-1.4825 25.81 -1.1525 28.12 -0.8125 30.5 C-0.1525 30.17 0.5075 29.84 1.1875 29.5 C1.36692163 25.55272412 1.28100689 22.9019487 -0.8125 19.5 C-0.1525 19.5 0.5075 19.5 1.1875 19.5 C1.93 20.325 2.6725 21.15 3.4375 22 C5.98114102 24.81484288 5.98114102 24.81484288 9.5 24.8125 C10.386875 24.709375 11.27375 24.60625 12.1875 24.5 C12.86708603 22.10280568 12.86708603 22.10280568 13.1875 19.5 C10.98952597 17.30202597 10.01203855 17.04102483 7.0625 16.375 C5.78375 16.08625 4.505 15.7975 3.1875 15.5 C3.496875 14.7575 3.80625 14.015 4.125 13.25 C4.6509375 11.88875 4.6509375 11.88875 5.1875 10.5 C5.620625 9.4790625 5.620625 9.4790625 6.0625 8.4375 C6.411832 6.29109292 6.411832 6.29109292 4.5 4.25 C0.84747761 1.485929 -1.12425381 2.04116921 -4.8125 4.5 Z M-9.8125 23.5 C-11.16868499 24.62534105 -11.16868499 24.62534105 -10.875 27.5625 C-10.854375 28.531875 -10.83375 29.50125 -10.8125 30.5 C-10.1525 30.5 -9.4925 30.5 -8.8125 30.5 C-8.8125 28.19 -8.8125 25.88 -8.8125 23.5 C-9.1425 23.5 -9.4725 23.5 -9.8125 23.5 Z M3.1875 25.5 C3.1875 27.15 3.1875 28.8 3.1875 30.5 C3.8475 30.5 4.5075 30.5 5.1875 30.5 C4.8575 28.85 4.5275 27.2 4.1875 25.5 C3.8575 25.5 3.5275 25.5 3.1875 25.5 Z " fill="#323232" transform="translate(16.8125,-0.49999999999999994)"/>
<path d="M0 0 C0.99 0 1.98 0 3 0 C3.33 2.64 3.66 5.28 4 8 C1.03 7.505 1.03 7.505 -2 7 C-2 5.35 -2 3.7 -2 2 C-1.67 3.32 -1.34 4.64 -1 6 C0.29633621 4.93354885 0.29633621 4.93354885 0.0625 2.4375 C0.041875 1.633125 0.02125 0.82875 0 0 Z " fill="#272727" transform="translate(17,24)"/>
</svg>
